999
"DXF R12 Output" (www.mydxf.blogspot.com)
 0 
SECTION
 2 
HEADER
 9 
$ACADVER
 1 
AC1009
 9 
$EXTMIN
 10 
 0 
 20 
 0 
 9 
$EXTMAX
 10 
 8.5 
 20 
 11 
 0 
ENDSEC
 0 
SECTION
 2 
ENTITIES
0
LINE
8
Layer 1
10
0.793749
20
297.794000
11
-0.793749
21
296.206000
0
LINE
8
Layer 1
10
0.000000
20
298.323000
11
0.000000
21
295.677000
0
LINE
8
Layer 1
10
2.116660
20
295.942000
11
1.058330
21
294.883670
0
LINE
8
Layer 1
10
1.587500
20
296.471000
11
0.529170
21
295.412670
0
LINE
8
Layer 1
10
1.058330
20
297.000000
11
0.000000
21
295.941670
0
LINE
8
0
10
56.445900
20
100.946000
11
60.445900
21
100.946000
0
LINE
8
0
10
60.445900
20
100.946000
11
60.445900
21
86.946200
0
LINE
8
0
10
60.445900
20
86.946200
11
56.445900
21
86.946200
0
LINE
8
0
10
56.445900
20
86.946200
11
56.445900
21
72.946200
0
LINE
8
0
10
56.445900
20
72.946200
11
60.445900
21
72.946200
0
LINE
8
0
10
60.445900
20
72.946200
11
60.445900
21
58.946200
0
LINE
8
0
10
60.445900
20
58.946200
11
134.446000
21
58.946200
0
LINE
8
0
10
134.446000
20
58.946200
11
134.446000
21
54.946200
0
LINE
8
0
10
134.446000
20
54.946200
11
138.446000
21
54.946200
0
LINE
8
0
10
138.446000
20
54.946200
11
138.446000
21
58.946200
0
LINE
8
0
10
138.446000
20
58.946200
11
154.446000
21
58.946200
0
LINE
8
0
10
154.446000
20
58.946200
11
154.446000
21
128.946000
0
LINE
8
0
10
154.446000
20
128.946000
11
138.446000
21
128.946000
0
LINE
8
0
10
138.446000
20
128.946000
11
138.446000
21
132.946000
0
LINE
8
0
10
138.446000
20
132.946000
11
134.446000
21
132.946000
0
LINE
8
0
10
134.446000
20
132.946000
11
134.446000
21
128.946000
0
LINE
8
0
10
134.446000
20
128.946000
11
60.445900
21
128.946000
0
LINE
8
0
10
60.445900
20
128.946000
11
60.445900
21
114.946000
0
LINE
8
0
10
60.445900
20
114.946000
11
56.445900
21
114.946000
0
LINE
8
0
10
56.445900
20
114.946000
11
56.445900
21
100.946000
0
LINE
8
0
10
118.031000
20
63.805700
11
119.000767
21
64.627189
0
LINE
8
0
10
119.000767
20
64.627189
11
119.751240
21
65.611400
0
LINE
8
0
10
119.751240
20
65.611400
11
120.052132
21
66.725695
0
LINE
8
0
10
120.052132
20
66.725695
11
119.901854
21
67.757340
0
LINE
8
0
10
119.901854
20
67.757340
11
119.534017
21
68.098988
0
LINE
8
0
10
119.534017
20
68.098988
11
119.290991
21
68.306458
0
LINE
8
0
10
119.290991
20
68.306458
11
119.230781
21
68.574833
0
LINE
8
0
10
119.230781
20
68.574833
11
119.015215
21
69.884016
0
LINE
8
0
10
119.015215
20
69.884016
11
118.440556
21
70.997513
0
LINE
8
0
10
118.440556
20
70.997513
11
117.614865
21
71.769805
0
LINE
8
0
10
117.614865
20
71.769805
11
116.646201
21
72.055373
0
LINE
8
0
10
116.646201
20
72.055373
11
115.871404
21
71.901970
0
LINE
8
0
10
115.871404
20
71.901970
11
115.588271
21
71.751650
0
LINE
8
0
10
115.588271
20
71.751650
11
114.600781
21
72.791630
0
LINE
8
0
10
114.600781
20
72.791630
11
113.613288
21
73.953190
0
LINE
8
0
10
113.613288
20
73.953190
11
113.841829
21
74.507230
0
LINE
8
0
10
113.841829
20
74.507230
11
114.345992
21
75.192940
0
LINE
8
0
10
114.345992
20
75.192940
11
114.674033
21
75.610902
0
LINE
8
0
10
114.674033
20
75.610902
11
114.250010
21
75.895453
0
LINE
8
0
10
114.250010
20
75.895453
11
113.940516
21
76.133292
0
LINE
8
0
10
113.940516
20
76.133292
11
114.071678
21
76.243401
0
LINE
8
0
10
114.071678
20
76.243401
11
115.450034
21
77.049025
0
LINE
8
0
10
115.450034
20
77.049025
11
115.894258
21
77.543404
0
LINE
8
0
10
115.894258
20
77.543404
11
116.207698
21
78.127511
0
LINE
8
0
10
116.207698
20
78.127511
11
116.422034
21
78.659746
0
LINE
8
0
10
116.422034
20
78.659746
11
116.447090
21
83.917796
0
LINE
8
0
10
116.447090
20
83.917796
11
116.443583
21
88.520711
0
LINE
8
0
10
116.443583
20
88.520711
11
116.293624
21
89.763566
0
LINE
8
0
10
116.293624
20
89.763566
11
115.993949
21
90.463887
0
LINE
8
0
10
115.993949
20
90.463887
11
115.557060
21
91.051331
0
LINE
8
0
10
115.557060
20
91.051331
11
114.988298
21
91.520290
0
LINE
8
0
10
114.988298
20
91.520290
11
114.293004
21
91.865156
0
LINE
8
0
10
114.293004
20
91.865156
11
113.428737
21
92.007593
0
LINE
8
0
10
113.428737
20
92.007593
11
110.804544
21
92.032785
0
LINE
8
0
10
110.804544
20
92.032785
11
107.147244
21
91.885881
0
LINE
8
0
10
107.147244
20
91.885881
11
105.094217
21
91.132769
0
LINE
8
0
10
105.094217
20
91.132769
11
103.406542
21
89.929204
0
LINE
8
0
10
103.406542
20
89.929204
11
102.125655
21
88.314524
0
LINE
8
0
10
102.125655
20
88.314524
11
101.292994
21
86.328071
0
LINE
8
0
10
101.292994
20
86.328071
11
101.132185
21
85.469046
0
LINE
8
0
10
101.132185
20
85.469046
11
101.096515
21
84.098911
0
LINE
8
0
10
101.096515
20
84.098911
11
101.132186
21
82.728776
0
LINE
8
0
10
101.132186
20
82.728776
11
101.292994
21
81.869751
0
LINE
8
0
10
101.292994
20
81.869751
11
101.959903
21
80.197269
0
LINE
8
0
10
101.959903
20
80.197269
11
102.953000
21
78.748201
0
LINE
8
0
10
102.953000
20
78.748201
11
104.217783
21
77.585588
0
LINE
8
0
10
104.217783
20
77.585588
11
105.699754
21
76.772471
0
LINE
8
0
10
105.699754
20
76.772471
11
106.301627
21
76.430460
0
LINE
8
0
10
106.301627
20
76.430460
11
105.964982
21
75.399684
0
LINE
8
0
10
105.964982
20
75.399684
11
105.280057
21
74.212520
0
LINE
8
0
10
105.280057
20
74.212520
11
105.042827
21
73.857515
0
LINE
8
0
10
105.042827
20
73.857515
11
105.118971
21
73.742179
0
LINE
8
0
10
105.118971
20
73.742179
11
105.983078
21
73.347144
0
LINE
8
0
10
105.983078
20
73.347144
11
106.711681
21
72.803126
0
LINE
8
0
10
106.711681
20
72.803126
11
107.558579
21
71.710490
0
LINE
8
0
10
107.558579
20
71.710490
11
107.950311
21
70.387566
0
LINE
8
0
10
107.950311
20
70.387566
11
108.007310
21
69.962042
0
LINE
8
0
10
108.007310
20
69.962042
11
108.407129
21
70.505159
0
LINE
8
0
10
108.407129
20
70.505159
11
109.269609
21
71.482099
0
LINE
8
0
10
109.269609
20
71.482099
11
110.144989
21
72.146999
0
LINE
8
0
10
110.144989
20
72.146999
11
110.578421
21
72.382901
0
LINE
8
0
10
110.578421
20
72.382901
11
110.981270
21
72.146816
0
LINE
8
0
10
110.981270
20
72.146816
11
111.384116
21
71.846805
0
LINE
8
0
10
111.384116
20
71.846805
11
111.117340
21
71.585643
0
LINE
8
0
10
111.117340
20
71.585643
11
110.629394
21
70.951973
0
LINE
8
0
10
110.629394
20
70.951973
11
110.504891
21
70.004203
0
LINE
8
0
10
110.504891
20
70.004203
11
110.493950
21
69.428921
0
LINE
8
0
10
110.493950
20
69.428921
11
110.339892
21
69.145800
0
LINE
8
0
10
110.339892
20
69.145800
11
109.927650
21
68.427989
0
LINE
8
0
10
109.927650
20
68.427989
11
109.903407
21
67.610295
0
LINE
8
0
10
109.903407
20
67.610295
11
110.257067
21
66.744321
0
LINE
8
0
10
110.257067
20
66.744321
11
110.978532
21
65.881670
0
LINE
8
0
10
110.978532
20
65.881670
11
111.978182
21
65.200239
0
LINE
8
0
10
111.978182
20
65.200239
11
112.721618
21
64.880914
0
LINE
8
0
10
112.721618
20
64.880914
11
114.195228
21
64.155807
0
LINE
8
0
10
114.195228
20
64.155807
11
115.252378
21
64.040051
0
LINE
8
0
10
115.252378
20
64.040051
11
116.045512
21
64.008527
0
LINE
8
0
10
116.045512
20
64.008527
11
116.382398
21
63.794846
0
LINE
8
0
10
116.382398
20
63.794846
11
116.701151
21
63.595888
0
LINE
8
0
10
116.701151
20
63.595888
11
117.103470
21
63.531515
0
LINE
8
0
10
117.103470
20
63.531515
11
118.030998
21
63.805694
0
LINE
8
0
10
118.030998
20
63.805694
11
118.031000
21
63.805700
0
LINE
8
0
10
116.661190
20
64.044020
11
116.517273
21
64.367642
0
LINE
8
0
10
116.517273
20
64.367642
11
116.518001
21
64.511944
0
LINE
8
0
10
116.518001
20
64.511944
11
116.275666
21
64.494586
0
LINE
8
0
10
116.275666
20
64.494586
11
115.196002
21
64.369826
0
LINE
8
0
10
115.196002
20
64.369826
11
114.358296
21
64.514932
0
LINE
8
0
10
114.358296
20
64.514932
11
113.533874
21
64.870680
0
LINE
8
0
10
113.533874
20
64.870680
11
113.320710
21
65.036952
0
LINE
8
0
10
113.320710
20
65.036952
11
113.593760
21
65.198250
0
LINE
8
0
10
113.593760
20
65.198250
11
113.972735
21
65.557461
0
LINE
8
0
10
113.972735
20
65.557461
11
114.036828
21
66.070437
0
LINE
8
0
10
114.036828
20
66.070437
11
113.929989
21
66.717751
0
LINE
8
0
10
113.929989
20
66.717751
11
113.947642
21
66.895074
0
LINE
8
0
10
113.947642
20
66.895074
11
114.237090
21
67.047257
0
LINE
8
0
10
114.237090
20
67.047257
11
114.593570
21
67.146120
0
LINE
8
0
10
114.593570
20
67.146120
11
114.889771
21
67.018971
0
LINE
8
0
10
114.889771
20
67.018971
11
115.370370
21
66.845508
0
LINE
8
0
10
115.370370
20
66.845508
11
115.895520
21
66.622258
0
LINE
8
0
10
115.895520
20
66.622258
11
116.351550
21
66.410016
0
LINE
8
0
10
116.351550
20
66.410016
11
116.555787
21
66.488511
0
LINE
8
0
10
116.555787
20
66.488511
11
116.488911
21
66.579660
0
LINE
8
0
10
116.488911
20
66.579660
11
116.219730
21
66.737351
0
LINE
8
0
10
116.219730
20
66.737351
11
116.017422
21
66.893063
0
LINE
8
0
10
116.017422
20
66.893063
11
116.582899
21
67.472611
0
LINE
8
0
10
116.582899
20
67.472611
11
117.219728
21
68.365752
0
LINE
8
0
10
117.219728
20
68.365752
11
117.306033
21
69.198101
0
LINE
8
0
10
117.306033
20
69.198101
11
117.236466
21
69.371846
0
LINE
8
0
10
117.236466
20
69.371846
11
117.121301
21
68.992427
0
LINE
8
0
10
117.121301
20
68.992427
11
116.823648
21
68.241063
0
LINE
8
0
10
116.823648
20
68.241063
11
116.331889
21
67.658767
0
LINE
8
0
10
116.331889
20
67.658767
11
115.898434
21
67.369590
0
LINE
8
0
10
115.898434
20
67.369590
11
115.471190
21
67.257146
0
LINE
8
0
10
115.471190
20
67.257146
11
115.071200
21
67.322629
0
LINE
8
0
10
115.071200
20
67.322629
11
114.719509
21
67.567234
0
LINE
8
0
10
114.719509
20
67.567234
11
114.432000
21
68.237369
0
LINE
8
0
10
114.432000
20
68.237369
11
114.483428
21
69.154401
0
LINE
8
0
10
114.483428
20
69.154401
11
114.837452
21
70.147152
0
LINE
8
0
10
114.837452
20
70.147152
11
115.457730
21
71.044444
0
LINE
8
0
10
115.457730
20
71.044444
11
116.244333
21
71.624100
0
LINE
8
0
10
116.244333
20
71.624100
11
117.013260
21
71.667219
0
LINE
8
0
10
117.013260
20
71.667219
11
117.746376
21
71.231016
0
LINE
8
0
10
117.746376
20
71.231016
11
118.336896
21
70.458833
0
LINE
8
0
10
118.336896
20
70.458833
11
118.730813
21
69.448461
0
LINE
8
0
10
118.730813
20
69.448461
11
118.874120
21
68.297689
0
LINE
8
0
10
118.874120
20
68.297689
11
118.919914
21
67.647675
0
LINE
8
0
10
118.919914
20
67.647675
11
119.135589
21
67.753770
0
LINE
8
0
10
119.135589
20
67.753770
11
119.395176
21
67.777634
0
LINE
8
0
10
119.395176
20
67.777634
11
119.592411
21
67.547786
0
LINE
8
0
10
119.592411
20
67.547786
11
119.666239
21
66.613900
0
LINE
8
0
10
119.666239
20
66.613900
11
119.336985
21
65.702429
0
LINE
8
0
10
119.336985
20
65.702429
11
118.647409
21
64.825050
0
LINE
8
0
10
118.647409
20
64.825050
11
117.525797
21
64.006847
0
LINE
8
0
10
117.525797
20
64.006847
11
117.052666
21
63.915085
0
LINE
8
0
10
117.052666
20
63.915085
11
116.661189
21
64.044004
0
LINE
8
0
10
116.661189
20
64.044004
11
116.661190
21
64.044020
0
LINE
8
0
10
111.984530
20
65.608980
11
111.153264
21
66.270825
0
LINE
8
0
10
111.153264
20
66.270825
11
110.510330
21
67.118560
0
LINE
8
0
10
110.510330
20
67.118560
11
110.314118
21
67.903194
0
LINE
8
0
10
110.314118
20
67.903194
11
110.440494
21
68.511291
0
LINE
8
0
10
110.440494
20
68.511291
11
110.700494
21
68.806867
0
LINE
8
0
10
110.700494
20
68.806867
11
111.092003
21
68.413575
0
LINE
8
0
10
111.092003
20
68.413575
11
112.149244
21
67.419917
0
LINE
8
0
10
112.149244
20
67.419917
11
112.747448
21
67.072942
0
LINE
8
0
10
112.747448
20
67.072942
11
113.232033
21
66.936325
0
LINE
8
0
10
113.232033
20
66.936325
11
113.490284
21
66.798909
0
LINE
8
0
10
113.490284
20
66.798909
11
113.651309
21
66.469750
0
LINE
8
0
10
113.651309
20
66.469750
11
113.684477
21
66.064665
0
LINE
8
0
10
113.684477
20
66.064665
11
113.559155
21
65.699475
0
LINE
8
0
10
113.559155
20
65.699475
11
113.289283
21
65.461028
0
LINE
8
0
10
113.289283
20
65.461028
11
112.925212
21
65.365794
0
LINE
8
0
10
112.925212
20
65.365794
11
111.984525
21
65.608990
0
LINE
8
0
10
111.984525
20
65.608990
11
111.984530
21
65.608980
0
LINE
8
0
10
112.766201
20
67.501610
11
111.832591
21
68.160318
0
LINE
8
0
10
111.832591
20
68.160318
11
111.168421
21
69.011710
0
LINE
8
0
10
111.168421
20
69.011710
11
110.923315
21
69.684979
0
LINE
8
0
10
110.923315
20
69.684979
11
110.877680
21
70.281638
0
LINE
8
0
10
110.877680
20
70.281638
11
111.031616
21
70.802738
0
LINE
8
0
10
111.031616
20
70.802738
11
111.385226
21
71.249330
0
LINE
8
0
10
111.385226
20
71.249330
11
111.923535
21
71.555526
0
LINE
8
0
10
111.923535
20
71.555526
11
112.454116
21
71.437274
0
LINE
8
0
10
112.454116
20
71.437274
11
112.749166
21
71.306684
0
LINE
8
0
10
112.749166
20
71.306684
11
112.642065
21
71.493407
0
LINE
8
0
10
112.642065
20
71.493407
11
111.694216
21
72.146227
0
LINE
8
0
10
111.694216
20
72.146227
11
110.278426
21
73.177337
0
LINE
8
0
10
110.278426
20
73.177337
11
109.619927
21
73.952636
0
LINE
8
0
10
109.619927
20
73.952636
11
109.249483
21
74.753099
0
LINE
8
0
10
109.249483
20
74.753099
11
109.192916
21
75.486005
0
LINE
8
0
10
109.192916
20
75.486005
11
109.476049
21
76.058637
0
LINE
8
0
10
109.476049
20
76.058637
11
109.882308
21
76.304123
0
LINE
8
0
10
109.882308
20
76.304123
11
110.439012
21
76.262673
0
LINE
8
0
10
110.439012
20
76.262673
11
111.354821
21
75.638812
0
LINE
8
0
10
111.354821
20
75.638812
11
112.923972
21
73.987063
0
LINE
8
0
10
112.923972
20
73.987063
11
114.531222
21
72.180693
0
LINE
8
0
10
114.531222
20
72.180693
11
115.229015
21
71.408288
0
LINE
8
0
10
115.229015
20
71.408288
11
114.898008
21
70.976944
0
LINE
8
0
10
114.898008
20
70.976944
11
114.398166
21
70.166899
0
LINE
8
0
10
114.398166
20
70.166899
11
114.229328
21
69.788201
0
LINE
8
0
10
114.229328
20
69.788201
11
113.868080
21
69.972496
0
LINE
8
0
10
113.868080
20
69.972496
11
113.454391
21
70.104351
0
LINE
8
0
10
113.454391
20
70.104351
11
113.722628
21
69.719171
0
LINE
8
0
10
113.722628
20
69.719171
11
113.999018
21
69.340910
0
LINE
8
0
10
113.999018
20
69.340910
11
114.037077
21
68.717681
0
LINE
8
0
10
114.037077
20
68.717681
11
114.187138
21
67.747307
0
LINE
8
0
10
114.187138
20
67.747307
11
114.290363
21
67.489045
0
LINE
8
0
10
114.290363
20
67.489045
11
114.223560
21
67.369715
0
LINE
8
0
10
114.223560
20
67.369715
11
113.576446
21
67.299345
0
LINE
8
0
10
113.576446
20
67.299345
11
112.766200
21
67.501602
0
LINE
8
0
10
112.766200
20
67.501602
11
112.766201
21
67.501610
0
LINE
8
0
10
108.174121
20
71.172310
11
107.894825
21
71.861879
0
LINE
8
0
10
107.894825
20
71.861879
11
107.106976
21
72.900822
0
LINE
8
0
10
107.106976
20
72.900822
11
106.050685
21
73.661349
0
LINE
8
0
10
106.050685
20
73.661349
11
105.519722
21
73.973427
0
LINE
8
0
10
105.519722
20
73.973427
11
105.964743
21
74.870181
0
LINE
8
0
10
105.964743
20
74.870181
11
106.352442
21
75.824994
0
LINE
8
0
10
106.352442
20
75.824994
11
106.586665
21
76.805104
0
LINE
8
0
10
106.586665
20
76.805104
11
106.661986
21
77.776292
0
LINE
8
0
10
106.661986
20
77.776292
11
106.572977
21
78.704341
0
LINE
8
0
10
106.572977
20
78.704341
11
106.527143
21
79.137612
0
LINE
8
0
10
106.527143
20
79.137612
11
106.825804
21
78.979545
0
LINE
8
0
10
106.825804
20
78.979545
11
107.690374
21
78.509799
0
LINE
8
0
10
107.690374
20
78.509799
11
108.737786
21
78.216102
0
LINE
8
0
10
108.737786
20
78.216102
11
109.883786
21
78.221179
0
LINE
8
0
10
109.883786
20
78.221179
11
111.007857
21
78.509457
0
LINE
8
0
10
111.007857
20
78.509457
11
111.989484
21
79.065362
0
LINE
8
0
10
111.989484
20
79.065362
11
112.224886
21
79.250530
0
LINE
8
0
10
112.224886
20
79.250530
11
112.331227
21
78.643061
0
LINE
8
0
10
112.331227
20
78.643061
11
112.838361
21
77.103046
0
LINE
8
0
10
112.838361
20
77.103046
11
113.771417
21
75.940101
0
LINE
8
0
10
113.771417
20
75.940101
11
114.216086
21
75.557072
0
LINE
8
0
10
114.216086
20
75.557072
11
113.910829
21
75.157165
0
LINE
8
0
10
113.910829
20
75.157165
11
113.468933
21
74.493022
0
LINE
8
0
10
113.468933
20
74.493022
11
113.332292
21
74.228783
0
LINE
8
0
10
113.332292
20
74.228783
11
112.345003
21
75.268543
0
LINE
8
0
10
112.345003
20
75.268543
11
111.006748
21
76.492083
0
LINE
8
0
10
111.006748
20
76.492083
11
110.508345
21
76.752241
0
LINE
8
0
10
110.508345
20
76.752241
11
110.046613
21
76.830413
0
LINE
8
0
10
110.046613
20
76.830413
11
109.317431
21
76.604720
0
LINE
8
0
10
109.317431
20
76.604720
11
108.850702
21
76.014103
0
LINE
8
0
10
108.850702
20
76.014103
11
108.703247
21
75.189449
0
LINE
8
0
10
108.703247
20
75.189449
11
108.931883
21
74.261643
0
LINE
8
0
10
108.931883
20
74.261643
11
109.690159
21
73.227363
0
LINE
8
0
10
109.690159
20
73.227363
11
110.227408
21
72.667873
0
LINE
8
0
10
110.227408
20
72.667873
11
109.711111
21
72.349199
0
LINE
8
0
10
109.711111
20
72.349199
11
108.751336
21
71.542882
0
LINE
8
0
10
108.751336
20
71.542882
11
108.285307
21
71.081322
0
LINE
8
0
10
108.285307
20
71.081322
11
108.174111
21
71.172299
0
LINE
8
0
10
108.174111
20
71.172299
11
108.174121
21
71.172310
0
LINE
8
0
10
126.720821
20
75.726710
11
128.060924
21
76.213633
0
LINE
8
0
10
128.060924
20
76.213633
11
129.211341
21
77.017220
0
LINE
8
0
10
129.211341
20
77.017220
11
129.892782
21
77.914698
0
LINE
8
0
10
129.892782
20
77.914698
11
130.400091
21
78.965410
0
LINE
8
0
10
130.400091
20
78.965410
11
130.576992
21
80.277891
0
LINE
8
0
10
130.576992
20
80.277891
11
130.624561
21
85.815380
0
LINE
8
0
10
130.624561
20
85.815380
11
130.649882
21
92.079330
0
LINE
8
0
10
130.649882
20
92.079330
11
129.535000
21
92.079300
0
LINE
8
0
10
129.535000
20
92.079300
11
128.421000
21
92.079300
0
LINE
8
0
10
128.421000
20
92.079300
11
128.395732
21
86.038260
0
LINE
8
0
10
128.395732
20
86.038260
11
128.370491
21
79.997220
0
LINE
8
0
10
128.370491
20
79.997220
11
128.160735
21
79.533395
0
LINE
8
0
10
128.160735
20
79.533395
11
127.650502
21
78.770859
0
LINE
8
0
10
127.650502
20
78.770859
11
126.952967
21
78.234032
0
LINE
8
0
10
126.952967
20
78.234032
11
126.129582
21
77.921467
0
LINE
8
0
10
126.129582
20
77.921467
11
125.241801
21
77.831717
0
LINE
8
0
10
125.241801
20
77.831717
11
124.351077
21
77.963337
0
LINE
8
0
10
124.351077
20
77.963337
11
123.518863
21
78.314879
0
LINE
8
0
10
123.518863
20
78.314879
11
122.806611
21
78.884897
0
LINE
8
0
10
122.806611
20
78.884897
11
122.275775
21
79.671944
0
LINE
8
0
10
122.275775
20
79.671944
11
122.039666
21
80.175551
0
LINE
8
0
10
122.039666
20
80.175551
11
122.014954
21
86.127421
0
LINE
8
0
10
122.014954
20
86.127421
11
121.990242
21
92.079291
0
LINE
8
0
10
121.990242
20
92.079291
11
120.878000
21
92.079300
0
LINE
8
0
10
120.878000
20
92.079300
11
119.766000
21
92.079300
0
LINE
8
0
10
119.766000
20
92.079300
11
119.766000
21
84.098900
0
LINE
8
0
10
119.766000
20
84.098900
11
119.766000
21
76.118500
0
LINE
8
0
10
119.766000
20
76.118500
11
120.643000
21
76.118500
0
LINE
8
0
10
120.643000
20
76.118500
11
121.521000
21
76.118500
0
LINE
8
0
10
121.521000
20
76.118500
11
121.623981
21
76.452875
0
LINE
8
0
10
121.623981
20
76.452875
11
121.847129
21
76.947340
0
LINE
8
0
10
121.847129
20
76.947340
11
122.178124
21
76.796952
0
LINE
8
0
10
122.178124
20
76.796952
11
122.933183
21
76.320981
0
LINE
8
0
10
122.933183
20
76.320981
11
123.912144
21
75.919785
0
LINE
8
0
10
123.912144
20
75.919785
11
125.318594
21
75.724580
0
LINE
8
0
10
125.318594
20
75.724580
11
126.720894
21
75.726700
0
LINE
8
0
10
126.720894
20
75.726700
11
126.720821
21
75.726710
0
LINE
8
0
10
92.744121
20
75.774136
11
94.604237
21
76.355208
0
LINE
8
0
10
94.604237
20
76.355208
11
96.295215
21
77.406019
0
LINE
8
0
10
96.295215
20
77.406019
11
97.704633
21
78.836594
0
LINE
8
0
10
97.704633
20
78.836594
11
98.720071
21
80.556956
0
LINE
8
0
10
98.720071
20
80.556956
11
99.241874
21
82.218944
0
LINE
8
0
10
99.241874
20
82.218944
11
99.378396
21
84.143507
0
LINE
8
0
10
99.378396
20
84.143507
11
99.333897
21
85.432739
0
LINE
8
0
10
99.333897
20
85.432739
11
99.145190
21
86.383466
0
LINE
8
0
10
99.145190
20
86.383466
11
98.506165
21
88.085218
0
LINE
8
0
10
98.506165
20
88.085218
11
97.565083
21
89.550703
0
LINE
8
0
10
97.565083
20
89.550703
11
96.338689
21
90.759262
0
LINE
8
0
10
96.338689
20
90.759262
11
94.843730
21
91.690236
0
LINE
8
0
10
94.843730
20
91.690236
11
93.275476
21
92.268388
0
LINE
8
0
10
93.275476
20
92.268388
11
91.544570
21
92.497254
0
LINE
8
0
10
91.544570
20
92.497254
11
89.766919
21
92.405668
0
LINE
8
0
10
89.766919
20
92.405668
11
88.115950
21
91.970005
0
LINE
8
0
10
88.115950
20
91.970005
11
86.613369
21
91.198574
0
LINE
8
0
10
86.613369
20
91.198574
11
85.280880
21
90.099684
0
LINE
8
0
10
85.280880
20
90.099684
11
84.723859
21
89.533831
0
LINE
8
0
10
84.723859
20
89.533831
11
85.519865
21
88.741511
0
LINE
8
0
10
85.519865
20
88.741511
11
86.315874
21
87.949193
0
LINE
8
0
10
86.315874
20
87.949193
11
86.567307
21
88.250855
0
LINE
8
0
10
86.567307
20
88.250855
11
87.487574
21
89.151096
0
LINE
8
0
10
87.487574
20
89.151096
11
88.565957
21
89.793855
0
LINE
8
0
10
88.565957
20
89.793855
11
89.827230
21
90.231527
0
LINE
8
0
10
89.827230
20
90.231527
11
91.277067
21
90.338324
0
LINE
8
0
10
91.277067
20
90.338324
11
92.324711
21
90.277250
0
LINE
8
0
10
92.324711
20
90.277250
11
93.218996
21
90.081668
0
LINE
8
0
10
93.218996
20
90.081668
11
94.039306
21
89.726014
0
LINE
8
0
10
94.039306
20
89.726014
11
94.865027
21
89.184725
0
LINE
8
0
10
94.865027
20
89.184725
11
95.821086
21
88.236909
0
LINE
8
0
10
95.821086
20
88.236909
11
96.528246
21
87.037807
0
LINE
8
0
10
96.528246
20
87.037807
11
96.966911
21
85.631963
0
LINE
8
0
10
96.966911
20
85.631963
11
97.117487
21
84.063924
0
LINE
8
0
10
97.117487
20
84.063924
11
96.841365
21
81.978937
0
LINE
8
0
10
96.841365
20
81.978937
11
96.503626
21
81.064678
0
LINE
8
0
10
96.503626
20
81.064678
11
96.039357
21
80.245544
0
LINE
8
0
10
96.039357
20
80.245544
11
95.453500
21
79.528766
0
LINE
8
0
10
95.453500
20
79.528766
11
94.750996
21
78.921569
0
LINE
8
0
10
94.750996
20
78.921569
11
93.936788
21
78.431183
0
LINE
8
0
10
93.936788
20
78.431183
11
93.015817
21
78.064835
0
LINE
8
0
10
93.015817
20
78.064835
11
92.262479
21
77.897257
0
LINE
8
0
10
92.262479
20
77.897257
11
91.232487
21
77.860495
0
LINE
8
0
10
91.232487
20
77.860495
11
89.669100
21
77.995696
0
LINE
8
0
10
89.669100
20
77.995696
11
88.289987
21
78.508041
0
LINE
8
0
10
88.289987
20
78.508041
11
86.981201
21
79.469774
0
LINE
8
0
10
86.981201
20
79.469774
11
85.987897
21
80.727181
0
LINE
8
0
10
85.987897
20
80.727181
11
85.347490
21
82.775690
0
LINE
8
0
10
85.347490
20
82.775690
11
89.404570
21
82.895173
0
LINE
8
0
10
89.404570
20
82.895173
11
93.461400
21
82.895100
0
LINE
8
0
10
93.461400
20
82.895100
11
93.461400
21
83.965100
0
LINE
8
0
10
93.461400
20
83.965100
11
93.461400
21
85.035100
0
LINE
8
0
10
93.461400
20
85.035100
11
89.291400
21
85.035100
0
LINE
8
0
10
89.291400
20
85.035100
11
85.121400
21
85.035100
0
LINE
8
0
10
85.121400
20
85.035100
11
84.102850
21
84.013660
0
LINE
8
0
10
84.102850
20
84.013660
11
83.084300
21
82.992210
0
LINE
8
0
10
83.084300
20
82.992210
11
83.224211
21
82.208028
0
LINE
8
0
10
83.224211
20
82.208028
11
83.524383
21
81.051726
0
LINE
8
0
10
83.524383
20
81.051726
11
83.991304
21
79.969278
0
LINE
8
0
10
83.991304
20
79.969278
11
84.610641
21
78.975245
0
LINE
8
0
10
84.610641
20
78.975245
11
85.368060
21
78.084185
0
LINE
8
0
10
85.368060
20
78.084185
11
86.249229
21
77.310662
0
LINE
8
0
10
86.249229
20
77.310662
11
87.239812
21
76.669234
0
LINE
8
0
10
87.239812
20
76.669234
11
88.325477
21
76.174462
0
LINE
8
0
10
88.325477
20
76.174462
11
89.491891
21
75.840908
0
LINE
8
0
10
89.491891
20
75.840908
11
91.118757
21
75.686726
0
LINE
8
0
10
91.118757
20
75.686726
11
92.743851
21
75.774061
0
LINE
8
0
10
92.743851
20
75.774061
11
92.744121
21
75.774136
0
LINE
8
0
10
145.802421
20
84.101366
11
145.802000
21
92.084200
0
LINE
8
0
10
145.802000
20
92.084200
11
144.536130
21
92.059435
0
LINE
8
0
10
144.536130
20
92.059435
11
143.270260
21
92.034670
0
LINE
8
0
10
143.270260
20
92.034670
11
139.926560
21
86.216550
0
LINE
8
0
10
139.926560
20
86.216550
11
136.511190
21
80.398430
0
LINE
8
0
10
136.511190
20
80.398430
11
136.439520
21
86.238840
0
LINE
8
0
10
136.439520
20
86.238840
11
136.440000
21
92.079200
0
LINE
8
0
10
136.440000
20
92.079200
11
135.325000
21
92.079200
0
LINE
8
0
10
135.325000
20
92.079200
11
134.211000
21
92.079200
0
LINE
8
0
10
134.211000
20
92.079200
11
134.211000
21
84.098800
0
LINE
8
0
10
134.211000
20
84.098800
11
134.211000
21
76.118400
0
LINE
8
0
10
134.211000
20
76.118400
11
135.481620
21
76.118929
0
LINE
8
0
10
135.481620
20
76.118929
11
136.752250
21
76.119458
0
LINE
8
0
10
136.752250
20
76.119458
11
140.044360
21
81.962978
0
LINE
8
0
10
140.044360
20
81.962978
11
143.452140
21
87.958728
0
LINE
8
0
10
143.452140
20
87.958728
11
143.546202
21
86.933415
0
LINE
8
0
10
143.546202
20
86.933415
11
143.570647
21
82.114518
0
LINE
8
0
10
143.570647
20
82.114518
11
143.573452
21
76.118038
0
LINE
8
0
10
143.573452
20
76.118038
11
144.688000
21
76.118100
0
LINE
8
0
10
144.688000
20
76.118100
11
145.802000
21
76.118100
0
LINE
8
0
10
145.802000
20
76.118100
11
145.802421
21
84.101366
0
LINE
8
0
10
80.889121
20
84.098985
11
80.888900
21
92.079400
0
LINE
8
0
10
80.888900
20
92.079400
11
76.073900
21
92.079400
0
LINE
8
0
10
76.073900
20
92.079400
11
71.259000
21
92.079400
0
LINE
8
0
10
71.259000
20
92.079400
11
71.259000
21
91.010400
0
LINE
8
0
10
71.259000
20
91.010400
11
71.259000
21
89.941300
0
LINE
8
0
10
71.259000
20
89.941300
11
74.937120
21
89.918017
0
LINE
8
0
10
74.937120
20
89.918017
11
78.615240
21
89.894733
0
LINE
8
0
10
78.615240
20
89.894733
11
78.615200
21
87.621000
0
LINE
8
0
10
78.615200
20
87.621000
11
78.615200
21
85.347300
0
LINE
8
0
10
78.615200
20
85.347300
11
75.070830
21
85.323990
0
LINE
8
0
10
75.070830
20
85.323990
11
71.526460
21
85.300680
0
LINE
8
0
10
71.526460
20
85.300680
11
71.526500
21
84.232700
0
LINE
8
0
10
71.526500
20
84.232700
11
71.526500
21
83.164800
0
LINE
8
0
10
71.526500
20
83.164800
11
75.070870
21
83.141490
0
LINE
8
0
10
75.070870
20
83.141490
11
78.615240
21
83.118180
0
LINE
8
0
10
78.615240
20
83.118180
11
78.615200
21
80.710600
0
LINE
8
0
10
78.615200
20
80.710600
11
78.615200
21
78.303100
0
LINE
8
0
10
78.615200
20
78.303100
11
74.937080
21
78.279817
0
LINE
8
0
10
74.937080
20
78.279817
11
71.258960
21
78.256533
0
LINE
8
0
10
71.258960
20
78.256533
11
71.259000
21
77.187600
0
LINE
8
0
10
71.259000
20
77.187600
11
71.259000
21
76.118600
0
LINE
8
0
10
71.259000
20
76.118600
11
76.073900
21
76.118600
0
LINE
8
0
10
76.073900
20
76.118600
11
80.888900
21
76.118600
0
LINE
8
0
10
80.888900
20
76.118600
11
80.889121
21
84.098985
0
LINE
8
0
10
139.021521
20
94.588385
11
140.881639
21
95.169458
0
LINE
8
0
10
140.881639
20
95.169458
11
142.572619
21
96.220269
0
LINE
8
0
10
142.572619
20
96.220269
11
143.982037
21
97.650843
0
LINE
8
0
10
143.982037
20
97.650843
11
144.997471
21
99.371205
0
LINE
8
0
10
144.997471
20
99.371205
11
145.519277
21
101.033191
0
LINE
8
0
10
145.519277
20
101.033191
11
145.655798
21
102.957745
0
LINE
8
0
10
145.655798
20
102.957745
11
145.611298
21
104.246978
0
LINE
8
0
10
145.611298
20
104.246978
11
145.422589
21
105.197705
0
LINE
8
0
10
145.422589
20
105.197705
11
144.783564
21
106.899456
0
LINE
8
0
10
144.783564
20
106.899456
11
143.842482
21
108.364942
0
LINE
8
0
10
143.842482
20
108.364942
11
142.616088
21
109.573501
0
LINE
8
0
10
142.616088
20
109.573501
11
141.121129
21
110.504475
0
LINE
8
0
10
141.121129
20
110.504475
11
139.552875
21
111.082628
0
LINE
8
0
10
139.552875
20
111.082628
11
137.821969
21
111.311490
0
LINE
8
0
10
137.821969
20
111.311490
11
136.044316
21
111.219906
0
LINE
8
0
10
136.044316
20
111.219906
11
134.393345
21
110.784243
0
LINE
8
0
10
134.393345
20
110.784243
11
132.890764
21
110.012811
0
LINE
8
0
10
132.890764
20
110.012811
11
131.558279
21
108.913920
0
LINE
8
0
10
131.558279
20
108.913920
11
131.001255
21
108.348072
0
LINE
8
0
10
131.001255
20
108.348072
11
131.797261
21
107.555749
0
LINE
8
0
10
131.797261
20
107.555749
11
132.593267
21
106.763431
0
LINE
8
0
10
132.593267
20
106.763431
11
132.844700
21
107.065095
0
LINE
8
0
10
132.844700
20
107.065095
11
133.764962
21
107.965335
0
LINE
8
0
10
133.764962
20
107.965335
11
134.843350
21
108.608095
0
LINE
8
0
10
134.843350
20
108.608095
11
136.104622
21
109.045767
0
LINE
8
0
10
136.104622
20
109.045767
11
137.554460
21
109.152567
0
LINE
8
0
10
137.554460
20
109.152567
11
138.602105
21
109.091493
0
LINE
8
0
10
138.602105
20
109.091493
11
139.496391
21
108.895911
0
LINE
8
0
10
139.496391
20
108.895911
11
140.316699
21
108.540257
0
LINE
8
0
10
140.316699
20
108.540257
11
141.142410
21
107.998967
0
LINE
8
0
10
141.142410
20
107.998967
11
142.098469
21
107.051152
0
LINE
8
0
10
142.098469
20
107.051152
11
142.805629
21
105.852050
0
LINE
8
0
10
142.805629
20
105.852050
11
143.244294
21
104.446206
0
LINE
8
0
10
143.244294
20
104.446206
11
143.394870
21
102.878167
0
LINE
8
0
10
143.394870
20
102.878167
11
143.118747
21
100.793184
0
LINE
8
0
10
143.118747
20
100.793184
11
142.781007
21
99.878925
0
LINE
8
0
10
142.781007
20
99.878925
11
142.316736
21
99.059791
0
LINE
8
0
10
142.316736
20
99.059791
11
141.730878
21
98.343011
0
LINE
8
0
10
141.730878
20
98.343011
11
141.028375
21
97.735813
0
LINE
8
0
10
141.028375
20
97.735813
11
140.214168
21
97.245426
0
LINE
8
0
10
140.214168
20
97.245426
11
139.293200
21
96.879077
0
LINE
8
0
10
139.293200
20
96.879077
11
138.539862
21
96.711499
0
LINE
8
0
10
138.539862
20
96.711499
11
137.509870
21
96.674737
0
LINE
8
0
10
137.509870
20
96.674737
11
135.946486
21
96.809939
0
LINE
8
0
10
135.946486
20
96.809939
11
134.567370
21
97.322283
0
LINE
8
0
10
134.567370
20
97.322283
11
133.258587
21
98.284017
0
LINE
8
0
10
133.258587
20
98.284017
11
132.265280
21
99.541423
0
LINE
8
0
10
132.265280
20
99.541423
11
131.624875
21
101.589933
0
LINE
8
0
10
131.624875
20
101.589933
11
135.681955
21
101.709419
0
LINE
8
0
10
135.681955
20
101.709419
11
139.739000
21
101.709000
0
LINE
8
0
10
139.739000
20
101.709000
11
139.739000
21
102.779000
0
LINE
8
0
10
139.739000
20
102.779000
11
139.739000
21
103.849000
0
LINE
8
0
10
139.739000
20
103.849000
11
135.569000
21
103.849000
0
LINE
8
0
10
135.569000
20
103.849000
11
131.399000
21
103.849000
0
LINE
8
0
10
131.399000
20
103.849000
11
130.380450
21
102.827560
0
LINE
8
0
10
130.380450
20
102.827560
11
129.361900
21
101.806110
0
LINE
8
0
10
129.361900
20
101.806110
11
129.501809
21
101.021931
0
LINE
8
0
10
129.501809
20
101.021931
11
129.801983
21
99.865629
0
LINE
8
0
10
129.801983
20
99.865629
11
130.268905
21
98.783181
0
LINE
8
0
10
130.268905
20
98.783181
11
130.888243
21
97.789148
0
LINE
8
0
10
130.888243
20
97.789148
11
131.645661
21
96.898089
0
LINE
8
0
10
131.645661
20
96.898089
11
132.526829
21
96.124565
0
LINE
8
0
10
132.526829
20
96.124565
11
133.517411
21
95.483137
0
LINE
8
0
10
133.517411
20
95.483137
11
134.603076
21
94.988365
0
LINE
8
0
10
134.603076
20
94.988365
11
135.769489
21
94.654811
0
LINE
8
0
10
135.769489
20
94.654811
11
137.396355
21
94.500631
0
LINE
8
0
10
137.396355
20
94.500631
11
139.021449
21
94.587967
0
LINE
8
0
10
139.021449
20
94.587967
11
139.021521
21
94.588385
0
LINE
8
0
10
86.494821
20
94.577379
11
87.235158
21
94.837695
0
LINE
8
0
10
87.235158
20
94.837695
11
87.904656
21
95.271251
0
LINE
8
0
10
87.904656
20
95.271251
11
88.453899
21
95.837509
0
LINE
8
0
10
88.453899
20
95.837509
11
88.833471
21
96.495929
0
LINE
8
0
10
88.833471
20
96.495929
11
89.047810
21
97.028169
0
LINE
8
0
10
89.047810
20
97.028169
11
89.072654
21
102.732699
0
LINE
8
0
10
89.072654
20
102.732699
11
89.069230
21
107.737919
0
LINE
8
0
10
89.069230
20
107.737919
11
88.915801
21
109.035469
0
LINE
8
0
10
88.915801
20
109.035469
11
88.417446
21
110.048529
0
LINE
8
0
10
88.417446
20
110.048529
11
88.170913
21
110.438627
0
LINE
8
0
10
88.170913
20
110.438627
11
88.160880
21
110.745332
0
LINE
8
0
10
88.160880
20
110.745332
11
88.529278
21
111.646688
0
LINE
8
0
10
88.529278
20
111.646688
11
89.206960
21
112.556132
0
LINE
8
0
10
89.206960
20
112.556132
11
89.607204
21
113.018237
0
LINE
8
0
10
89.607204
20
113.018237
11
89.517340
21
113.076133
0
LINE
8
0
10
89.517340
20
113.076133
11
88.481766
21
113.119161
0
LINE
8
0
10
88.481766
20
113.119161
11
87.277820
21
113.354892
0
LINE
8
0
10
87.277820
20
113.354892
11
87.006468
21
113.456139
0
LINE
8
0
10
87.006468
20
113.456139
11
86.916638
21
113.606316
0
LINE
8
0
10
86.916638
20
113.606316
11
87.284514
21
114.611682
0
LINE
8
0
10
87.284514
20
114.611682
11
87.951264
21
115.928827
0
LINE
8
0
10
87.951264
20
115.928827
11
88.549844
21
116.632712
0
LINE
8
0
10
88.549844
20
116.632712
11
88.831630
21
116.798939
0
LINE
8
0
10
88.831630
20
116.798939
11
89.118044
21
116.461897
0
LINE
8
0
10
89.118044
20
116.461897
11
90.658055
21
114.953954
0
LINE
8
0
10
90.658055
20
114.953954
11
91.299854
21
114.641340
0
LINE
8
0
10
91.299854
20
114.641340
11
91.965724
21
114.549397
0
LINE
8
0
10
91.965724
20
114.549397
11
92.725939
21
114.659509
0
LINE
8
0
10
92.725939
20
114.659509
11
93.310429
21
114.971290
0
LINE
8
0
10
93.310429
20
114.971290
11
93.685692
21
115.456905
0
LINE
8
0
10
93.685692
20
115.456905
11
93.818224
21
116.088517
0
LINE
8
0
10
93.818224
20
116.088517
11
93.758890
21
116.473540
0
LINE
8
0
10
93.758890
20
116.473540
11
93.551304
21
116.799332
0
LINE
8
0
10
93.551304
20
116.799332
11
92.513884
21
117.459837
0
LINE
8
0
10
92.513884
20
117.459837
11
91.786036
21
117.864379
0
LINE
8
0
10
91.786036
20
117.864379
11
91.308080
21
118.283718
0
LINE
8
0
10
91.308080
20
118.283718
11
90.982347
21
118.835924
0
LINE
8
0
10
90.982347
20
118.835924
11
90.711164
21
119.639067
0
LINE
8
0
10
90.711164
20
119.639067
11
90.425920
21
120.637746
0
LINE
8
0
10
90.425920
20
120.637746
11
90.615658
21
120.770643
0
LINE
8
0
10
90.615658
20
120.770643
11
90.887141
21
121.101767
0
LINE
8
0
10
90.887141
20
121.101767
11
91.027066
21
121.575073
0
LINE
8
0
10
91.027066
20
121.575073
11
91.024680
21
122.111603
0
LINE
8
0
10
91.024680
20
122.111603
11
90.869229
21
122.632403
0
LINE
8
0
10
90.869229
20
122.632403
11
90.367331
21
123.287905
0
LINE
8
0
10
90.367331
20
123.287905
11
89.581721
21
123.918818
0
LINE
8
0
10
89.581721
20
123.918818
11
88.675313
21
124.416478
0
LINE
8
0
10
88.675313
20
124.416478
11
87.811019
21
124.672223
0
LINE
8
0
10
87.811019
20
124.672223
11
87.163821
21
124.660518
0
LINE
8
0
10
87.163821
20
124.660518
11
86.635883
21
124.473883
0
LINE
8
0
10
86.635883
20
124.473883
11
86.280233
21
124.143356
0
LINE
8
0
10
86.280233
20
124.143356
11
86.149899
21
123.699973
0
LINE
8
0
10
86.149899
20
123.699973
11
86.078694
21
123.437019
0
LINE
8
0
10
86.078694
20
123.437019
11
85.627250
21
123.304620
0
LINE
8
0
10
85.627250
20
123.304620
11
84.722910
21
122.990843
0
LINE
8
0
10
84.722910
20
122.990843
11
83.833854
21
122.444806
0
LINE
8
0
10
83.833854
20
122.444806
11
83.011194
21
121.704906
0
LINE
8
0
10
83.011194
20
121.704906
11
82.306040
21
120.809540
0
LINE
8
0
10
82.306040
20
120.809540
11
81.693394
21
119.642826
0
LINE
8
0
10
81.693394
20
119.642826
11
81.513233
21
118.579250
0
LINE
8
0
10
81.513233
20
118.579250
11
81.556227
21
118.030287
0
LINE
8
0
10
81.556227
20
118.030287
11
81.738708
21
117.647315
0
LINE
8
0
10
81.738708
20
117.647315
11
82.218889
21
117.183784
0
LINE
8
0
10
82.218889
20
117.183784
11
82.441335
21
116.974699
0
LINE
8
0
10
82.441335
20
116.974699
11
82.512380
21
116.402608
0
LINE
8
0
10
82.512380
20
116.402608
11
82.455741
21
115.681998
0
LINE
8
0
10
82.455741
20
115.681998
11
81.567811
21
115.667366
0
LINE
8
0
10
81.567811
20
115.667366
11
80.752679
21
115.631413
0
LINE
8
0
10
80.752679
20
115.631413
11
80.642396
21
115.432048
0
LINE
8
0
10
80.642396
20
115.432048
11
80.621871
21
115.039820
0
LINE
8
0
10
80.621871
20
115.039820
11
80.484158
21
114.069750
0
LINE
8
0
10
80.484158
20
114.069750
11
80.103907
21
113.130626
0
LINE
8
0
10
80.103907
20
113.130626
11
79.514850
21
112.284542
0
LINE
8
0
10
79.514850
20
112.284542
11
78.750721
21
111.593590
0
LINE
8
0
10
78.750721
20
111.593590
11
78.215774
21
111.216332
0
LINE
8
0
10
78.215774
20
111.216332
11
78.905960
21
110.983084
0
LINE
8
0
10
78.905960
20
110.983084
11
80.287651
21
110.283228
0
LINE
8
0
10
80.287651
20
110.283228
11
81.334460
21
109.155484
0
LINE
8
0
10
81.334460
20
109.155484
11
81.529787
21
108.843366
0
LINE
8
0
10
81.529787
20
108.843366
11
81.495171
21
108.550629
0
LINE
8
0
10
81.495171
20
108.550629
11
80.272700
21
107.146454
0
LINE
8
0
10
80.272700
20
107.146454
11
79.150330
21
105.940574
0
LINE
8
0
10
79.150330
20
105.940574
11
79.092868
21
107.324784
0
LINE
8
0
10
79.092868
20
107.324784
11
78.948715
21
108.979034
0
LINE
8
0
10
78.948715
20
108.979034
11
78.547620
21
109.833952
0
LINE
8
0
10
78.547620
20
109.833952
11
77.957742
21
110.507608
0
LINE
8
0
10
77.957742
20
110.507608
11
77.192106
21
110.988901
0
LINE
8
0
10
77.192106
20
110.988901
11
76.263735
21
111.266734
0
LINE
8
0
10
76.263735
20
111.266734
11
75.140657
21
111.286294
0
LINE
8
0
10
75.140657
20
111.286294
11
74.114114
21
110.973133
0
LINE
8
0
10
74.114114
20
110.973133
11
73.251864
21
110.360466
0
LINE
8
0
10
73.251864
20
110.360466
11
72.621665
21
109.481504
0
LINE
8
0
10
72.621665
20
109.481504
11
72.373663
21
108.976494
0
LINE
8
0
10
72.373663
20
108.976494
11
72.373500
21
102.913000
0
LINE
8
0
10
72.373500
20
102.913000
11
72.373500
21
96.849700
0
LINE
8
0
10
72.373500
20
96.849700
11
72.621502
21
96.344690
0
LINE
8
0
10
72.621502
20
96.344690
11
73.241600
21
95.467584
0
LINE
8
0
10
73.241600
20
95.467584
11
74.371641
21
94.744545
0
LINE
8
0
10
74.371641
20
94.744545
11
75.697241
21
94.509148
0
LINE
8
0
10
75.697241
20
94.509148
11
77.023331
21
94.760236
0
LINE
8
0
10
77.023331
20
94.760236
11
78.154840
21
95.496654
0
LINE
8
0
10
78.154840
20
95.496654
11
80.398500
21
97.910844
0
LINE
8
0
10
80.398500
20
97.910844
11
82.271000
21
99.950234
0
LINE
8
0
10
82.271000
20
99.950234
11
82.315585
21
98.442254
0
LINE
8
0
10
82.315585
20
98.442254
11
82.392674
21
97.054145
0
LINE
8
0
10
82.392674
20
97.054145
11
82.652688
21
96.340504
0
LINE
8
0
10
82.652688
20
96.340504
11
83.370125
21
95.372576
0
LINE
8
0
10
83.370125
20
95.372576
11
84.334398
21
94.757244
0
LINE
8
0
10
84.334398
20
94.757244
11
85.417052
21
94.542520
0
LINE
8
0
10
85.417052
20
94.542520
11
86.494678
21
94.577246
0
LINE
8
0
10
86.494678
20
94.577246
11
86.494821
21
94.577379
0
LINE
8
0
10
82.106031
20
108.238679
11
81.632854
21
109.187283
0
LINE
8
0
10
81.632854
20
109.187283
11
80.990780
21
109.994310
0
LINE
8
0
10
80.990780
20
109.994310
11
80.197999
21
110.641326
0
LINE
8
0
10
80.197999
20
110.641326
11
79.272701
21
111.109899
0
LINE
8
0
10
79.272701
20
111.109899
11
78.860073
21
111.266162
0
LINE
8
0
10
78.860073
20
111.266162
11
79.544613
21
111.949257
0
LINE
8
0
10
79.544613
20
111.949257
11
80.134501
21
112.613783
0
LINE
8
0
10
80.134501
20
112.613783
11
80.548712
21
113.285784
0
LINE
8
0
10
80.548712
20
113.285784
11
81.023643
21
115.011507
0
LINE
8
0
10
81.023643
20
115.011507
11
81.073213
21
115.339831
0
LINE
8
0
10
81.073213
20
115.339831
11
81.924120
21
115.368181
0
LINE
8
0
10
81.924120
20
115.368181
11
82.775027
21
115.396531
0
LINE
8
0
10
82.775027
20
115.396531
11
82.990223
21
115.113985
0
LINE
8
0
10
82.990223
20
115.113985
11
83.648950
21
114.623570
0
LINE
8
0
10
83.648950
20
114.623570
11
84.046055
21
114.281946
0
LINE
8
0
10
84.046055
20
114.281946
11
83.319481
21
112.992336
0
LINE
8
0
10
83.319481
20
112.992336
11
82.762451
21
111.969013
0
LINE
8
0
10
82.762451
20
111.969013
11
82.600762
21
111.371296
0
LINE
8
0
10
82.600762
20
111.371296
11
82.607461
21
110.946584
0
LINE
8
0
10
82.607461
20
110.946584
11
82.749892
21
110.642510
0
LINE
8
0
10
82.749892
20
110.642510
11
83.273282
21
110.251913
0
LINE
8
0
10
83.273282
20
110.251913
11
83.983552
21
110.091119
0
LINE
8
0
10
83.983552
20
110.091119
11
84.717707
21
110.290224
0
LINE
8
0
10
84.717707
20
110.290224
11
85.437136
21
110.852949
0
LINE
8
0
10
85.437136
20
110.852949
11
86.092210
21
111.727403
0
LINE
8
0
10
86.092210
20
111.727403
11
86.633302
21
112.861699
0
LINE
8
0
10
86.633302
20
112.861699
11
86.786167
21
113.269358
0
LINE
8
0
10
86.786167
20
113.269358
11
87.279889
21
113.102679
0
LINE
8
0
10
87.279889
20
113.102679
11
88.343849
21
112.882747
0
LINE
8
0
10
88.343849
20
112.882747
11
88.914070
21
112.799617
0
LINE
8
0
10
88.914070
20
112.799617
11
88.556695
21
112.299804
0
LINE
8
0
10
88.556695
20
112.299804
11
88.137110
21
111.615535
0
LINE
8
0
10
88.137110
20
111.615535
11
87.852134
21
110.850498
0
LINE
8
0
10
87.852134
20
110.850498
11
87.704325
21
109.145894
0
LINE
8
0
10
87.704325
20
109.145894
11
87.762043
21
108.423582
0
LINE
8
0
10
87.762043
20
108.423582
11
86.921151
21
108.373415
0
LINE
8
0
10
86.921151
20
108.373415
11
85.838636
21
108.214537
0
LINE
8
0
10
85.838636
20
108.214537
11
84.809576
21
107.875140
0
LINE
8
0
10
84.809576
20
107.875140
11
83.853800
21
107.363723
0
LINE
8
0
10
83.853800
20
107.363723
11
82.991131
21
106.688785
0
LINE
8
0
10
82.991131
20
106.688785
11
82.449493
21
106.184365
0
LINE
8
0
10
82.449493
20
106.184365
11
82.390997
21
106.911698
0
LINE
8
0
10
82.390997
20
106.911698
11
82.106038
21
108.238678
0
LINE
8
0
10
82.106038
20
108.238678
11
82.106031
21
108.238679
0
LINE
8
0
10
83.200541
20
110.886749
11
82.939898
21
111.292304
0
LINE
8
0
10
82.939898
20
111.292304
11
83.983018
21
113.308004
0
LINE
8
0
10
83.983018
20
113.308004
11
84.974850
21
115.188314
0
LINE
8
0
10
84.974850
20
115.188314
11
85.256048
21
116.444234
0
LINE
8
0
10
85.256048
20
116.444234
11
85.163735
21
116.654162
0
LINE
8
0
10
85.163735
20
116.654162
11
84.908219
21
116.042983
0
LINE
8
0
10
84.908219
20
116.042983
11
84.641794
21
115.310185
0
LINE
8
0
10
84.641794
20
115.310185
11
84.395275
21
114.954899
0
LINE
8
0
10
84.395275
20
114.954899
11
84.097511
21
114.927035
0
LINE
8
0
10
84.097511
20
114.927035
11
83.677349
21
115.176503
0
LINE
8
0
10
83.677349
20
115.176503
11
83.216900
21
115.680738
0
LINE
8
0
10
83.216900
20
115.680738
11
82.953288
21
116.341779
0
LINE
8
0
10
82.953288
20
116.341779
11
82.898411
21
117.106369
0
LINE
8
0
10
82.898411
20
117.106369
11
83.064167
21
117.921253
0
LINE
8
0
10
83.064167
20
117.921253
11
83.178443
21
118.442275
0
LINE
8
0
10
83.178443
20
118.442275
11
82.867476
21
118.027396
0
LINE
8
0
10
82.867476
20
118.027396
11
82.603615
21
117.565400
0
LINE
8
0
10
82.603615
20
117.565400
11
82.321189
21
117.818460
0
LINE
8
0
10
82.321189
20
117.818460
11
81.972083
21
118.403089
0
LINE
8
0
10
81.972083
20
118.403089
11
81.980499
21
119.177534
0
LINE
8
0
10
81.980499
20
119.177534
11
82.337367
21
120.099674
0
LINE
8
0
10
82.337367
20
120.099674
11
83.033618
21
121.127390
0
LINE
8
0
10
83.033618
20
121.127390
11
83.949844
21
122.001694
0
LINE
8
0
10
83.949844
20
122.001694
11
84.952338
21
122.627350
0
LINE
8
0
10
84.952338
20
122.627350
11
85.921953
21
122.931464
0
LINE
8
0
10
85.921953
20
122.931464
11
86.468166
21
123.109361
0
LINE
8
0
10
86.468166
20
123.109361
11
86.526806
21
123.381422
0
LINE
8
0
10
86.526806
20
123.381422
11
86.658541
21
123.888998
0
LINE
8
0
10
86.658541
20
123.888998
11
87.138649
21
124.181566
0
LINE
8
0
10
87.138649
20
124.181566
11
87.653123
21
124.223441
0
LINE
8
0
10
87.653123
20
124.223441
11
88.225974
21
124.112622
0
LINE
8
0
10
88.225974
20
124.112622
11
89.390260
21
123.540172
0
LINE
8
0
10
89.390260
20
123.540172
11
90.318426
21
122.678759
0
LINE
8
0
10
90.318426
20
122.678759
11
90.596126
21
122.206736
0
LINE
8
0
10
90.596126
20
122.206736
11
90.697389
21
121.742926
0
LINE
8
0
10
90.697389
20
121.742926
11
90.513875
21
121.205655
0
LINE
8
0
10
90.513875
20
121.205655
11
90.153430
21
121.016863
0
LINE
8
0
10
90.153430
20
121.016863
11
90.031573
21
121.027305
0
LINE
8
0
10
90.031573
20
121.027305
11
89.992952
21
120.901565
0
LINE
8
0
10
89.992952
20
120.901565
11
90.170390
21
119.920173
0
LINE
8
0
10
90.170390
20
119.920173
11
90.455326
21
118.866168
0
LINE
8
0
10
90.455326
20
118.866168
11
90.834735
21
118.126893
0
LINE
8
0
10
90.834735
20
118.126893
11
91.403818
21
117.572492
0
LINE
8
0
10
91.403818
20
117.572492
11
92.257780
21
117.073113
0
LINE
8
0
10
92.257780
20
117.073113
11
93.134762
21
116.508128
0
LINE
8
0
10
93.134762
20
116.508128
11
93.461530
21
116.007393
0
LINE
8
0
10
93.461530
20
116.007393
11
93.305369
21
115.508339
0
LINE
8
0
10
93.305369
20
115.508339
11
92.886904
21
115.170659
0
LINE
8
0
10
92.886904
20
115.170659
11
92.281162
21
115.029434
0
LINE
8
0
10
92.281162
20
115.029434
11
91.563170
21
115.119743
0
LINE
8
0
10
91.563170
20
115.119743
11
90.661814
21
115.593187
0
LINE
8
0
10
90.661814
20
115.593187
11
89.759440
21
116.513203
0
LINE
8
0
10
89.759440
20
116.513203
11
89.044725
21
117.188588
0
LINE
8
0
10
89.044725
20
117.188588
11
88.429879
21
117.110014
0
LINE
8
0
10
88.429879
20
117.110014
11
87.813034
21
116.521431
0
LINE
8
0
10
87.813034
20
116.521431
11
87.152679
21
115.366161
0
LINE
8
0
10
87.152679
20
115.366161
11
86.407305
21
113.587528
0
LINE
8
0
10
86.407305
20
113.587528
11
85.805505
21
112.193861
0
LINE
8
0
10
85.805505
20
112.193861
11
85.220341
21
111.285344
0
LINE
8
0
10
85.220341
20
111.285344
11
84.588576
21
110.788976
0
LINE
8
0
10
84.588576
20
110.788976
11
83.846975
21
110.631758
0
LINE
8
0
10
83.846975
20
110.631758
11
83.485812
21
110.678558
0
LINE
8
0
10
83.485812
20
110.678558
11
83.200517
21
110.886747
0
LINE
8
0
10
83.200517
20
110.886747
11
83.200541
21
110.886749
0
LINE
8
0
10
127.166541
20
102.913129
11
127.166000
21
110.893000
0
LINE
8
0
10
127.166000
20
110.893000
11
123.926000
21
110.893000
0
LINE
8
0
10
123.926000
20
110.893000
11
121.094190
21
110.864751
0
LINE
8
0
10
121.094190
20
110.864751
11
119.996020
21
110.716616
0
LINE
8
0
10
119.996020
20
110.716616
11
118.853279
21
110.285091
0
LINE
8
0
10
118.853279
20
110.285091
11
117.875570
21
109.568406
0
LINE
8
0
10
117.875570
20
109.568406
11
117.078749
21
108.522057
0
LINE
8
0
10
117.078749
20
108.522057
11
116.651677
21
107.263696
0
LINE
8
0
10
116.651677
20
107.263696
11
116.615907
21
105.914735
0
LINE
8
0
10
116.615907
20
105.914735
11
116.992990
21
104.596586
0
LINE
8
0
10
116.992990
20
104.596586
11
117.699914
21
103.586424
0
LINE
8
0
10
117.699914
20
103.586424
11
118.725589
21
102.754349
0
LINE
8
0
10
118.725589
20
102.754349
11
119.929181
21
102.188661
0
LINE
8
0
10
119.929181
20
102.188661
11
121.169860
21
101.977666
0
LINE
8
0
10
121.169860
20
101.977666
11
121.548817
21
101.886917
0
LINE
8
0
10
121.548817
20
101.886917
11
118.940697
21
98.623777
0
LINE
8
0
10
118.940697
20
98.623777
11
116.304627
21
95.191127
0
LINE
8
0
10
116.304627
20
95.191127
11
116.276687
21
94.932182
0
LINE
8
0
10
116.276687
20
94.932182
11
117.576000
21
94.932600
0
LINE
8
0
10
117.576000
20
94.932600
11
118.875000
21
94.932600
0
LINE
8
0
10
118.875000
20
94.932600
11
121.686350
21
98.460450
0
LINE
8
0
10
121.686350
20
98.460450
11
124.008304
21
101.322564
0
LINE
8
0
10
124.008304
20
101.322564
11
124.695010
21
101.960230
0
LINE
8
0
10
124.695010
20
101.960230
11
124.892315
21
101.932163
0
LINE
8
0
10
124.892315
20
101.932163
11
124.915625
21
98.432373
0
LINE
8
0
10
124.915625
20
98.432373
11
124.938935
21
94.932593
0
LINE
8
0
10
124.938935
20
94.932593
11
126.053000
21
94.932600
0
LINE
8
0
10
126.053000
20
94.932600
11
127.166000
21
94.932600
0
LINE
8
0
10
127.166000
20
94.932600
11
127.166541
21
102.913129
0
LINE
8
0
10
120.466991
20
104.269859
11
119.556904
21
104.850307
0
LINE
8
0
10
119.556904
20
104.850307
11
118.982481
21
105.687649
0
LINE
8
0
10
118.982481
20
105.687649
11
118.877906
21
106.553228
0
LINE
8
0
10
118.877906
20
106.553228
11
119.068114
21
107.348205
0
LINE
8
0
10
119.068114
20
107.348205
11
119.527503
21
108.014971
0
LINE
8
0
10
119.527503
20
108.014971
11
120.230471
21
108.495919
0
LINE
8
0
10
120.230471
20
108.495919
11
120.927377
21
108.679392
0
LINE
8
0
10
120.927377
20
108.679392
11
122.797371
21
108.708964
0
LINE
8
0
10
122.797371
20
108.708964
11
124.893000
21
108.709000
0
LINE
8
0
10
124.893000
20
108.709000
11
124.916918
21
106.526110
0
LINE
8
0
10
124.916918
20
106.526110
11
124.897419
21
104.230070
0
LINE
8
0
10
124.897419
20
104.230070
11
122.899778
21
104.116926
0
LINE
8
0
10
122.899778
20
104.116926
11
121.230093
21
104.146421
0
LINE
8
0
10
121.230093
20
104.146421
11
120.467188
21
104.269900
0
LINE
8
0
10
120.467188
20
104.269900
11
120.466991
21
104.269859
0
LINE
8
0
10
113.791551
20
102.913129
11
113.791000
21
110.893000
0
LINE
8
0
10
113.791000
20
110.893000
11
108.976000
21
110.893000
0
LINE
8
0
10
108.976000
20
110.893000
11
104.161000
21
110.893000
0
LINE
8
0
10
104.161000
20
110.893000
11
104.161000
21
109.824000
0
LINE
8
0
10
104.161000
20
109.824000
11
104.161000
21
108.755000
0
LINE
8
0
10
104.161000
20
108.755000
11
107.839120
21
108.731717
0
LINE
8
0
10
107.839120
20
108.731717
11
111.517240
21
108.708433
0
LINE
8
0
10
111.517240
20
108.708433
11
111.518000
21
106.435000
0
LINE
8
0
10
111.518000
20
106.435000
11
111.518000
21
104.161000
0
LINE
8
0
10
111.518000
20
104.161000
11
107.973630
21
104.137690
0
LINE
8
0
10
107.973630
20
104.137690
11
104.429260
21
104.114380
0
LINE
8
0
10
104.429260
20
104.114380
11
104.429000
21
103.047000
0
LINE
8
0
10
104.429000
20
103.047000
11
104.429000
21
101.979000
0
LINE
8
0
10
104.429000
20
101.979000
11
107.973370
21
101.955690
0
LINE
8
0
10
107.973370
20
101.955690
11
111.517740
21
101.932380
0
LINE
8
0
10
111.517740
20
101.932380
11
111.518000
21
99.524700
0
LINE
8
0
10
111.518000
20
99.524700
11
111.518000
21
97.117200
0
LINE
8
0
10
111.518000
20
97.117200
11
107.839880
21
97.093917
0
LINE
8
0
10
107.839880
20
97.093917
11
104.161760
21
97.070633
0
LINE
8
0
10
104.161760
20
97.070633
11
104.161000
21
96.001700
0
LINE
8
0
10
104.161000
20
96.001700
11
104.161000
21
94.932600
0
LINE
8
0
10
104.161000
20
94.932600
11
108.976000
21
94.932600
0
LINE
8
0
10
108.976000
20
94.932600
11
113.791000
21
94.932600
0
LINE
8
0
10
113.791000
20
94.932600
11
113.791551
21
102.913129
0
LINE
8
0
10
101.219051
20
102.913129
11
101.219000
21
110.893000
0
LINE
8
0
10
101.219000
20
110.893000
11
96.403900
21
110.893000
0
LINE
8
0
10
96.403900
20
110.893000
11
91.588900
21
110.893000
0
LINE
8
0
10
91.588900
20
110.893000
11
91.588900
21
109.824000
0
LINE
8
0
10
91.588900
20
109.824000
11
91.588900
21
108.755000
0
LINE
8
0
10
91.588900
20
108.755000
11
95.267020
21
108.731717
0
LINE
8
0
10
95.267020
20
108.731717
11
98.945140
21
108.708433
0
LINE
8
0
10
98.945140
20
108.708433
11
98.945200
21
106.435000
0
LINE
8
0
10
98.945200
20
106.435000
11
98.945200
21
104.161000
0
LINE
8
0
10
98.945200
20
104.161000
11
95.400830
21
104.137690
0
LINE
8
0
10
95.400830
20
104.137690
11
91.856460
21
104.114380
0
LINE
8
0
10
91.856460
20
104.114380
11
91.856400
21
103.047000
0
LINE
8
0
10
91.856400
20
103.047000
11
91.856400
21
101.979000
0
LINE
8
0
10
91.856400
20
101.979000
11
95.400770
21
101.955690
0
LINE
8
0
10
95.400770
20
101.955690
11
98.945140
21
101.932380
0
LINE
8
0
10
98.945140
20
101.932380
11
98.945200
21
99.524700
0
LINE
8
0
10
98.945200
20
99.524700
11
98.945200
21
97.117200
0
LINE
8
0
10
98.945200
20
97.117200
11
95.267080
21
97.093917
0
LINE
8
0
10
95.267080
20
97.093917
11
91.588960
21
97.070633
0
LINE
8
0
10
91.588960
20
97.070633
11
91.588900
21
96.001700
0
LINE
8
0
10
91.588900
20
96.001700
11
91.588900
21
94.932600
0
LINE
8
0
10
91.588900
20
94.932600
11
96.403900
21
94.932600
0
LINE
8
0
10
96.403900
20
94.932600
11
101.219000
21
94.932600
0
LINE
8
0
10
101.219000
20
94.932600
11
101.219051
21
102.913129
 0 
ENDSEC
 0 
EOF