999
"DXF R12 Output" (www.mydxf.blogspot.com)
 0 
SECTION
 2 
HEADER
 9 
$ACADVER
 1 
AC1009
 9 
$EXTMIN
 10 
 0 
 20 
 0 
 9 
$EXTMAX
 10 
 8.5 
 20 
 11 
 0 
ENDSEC
 0 
SECTION
 2 
ENTITIES
0
LINE
8
Layer 1
10
0.793749
20
297.794000
11
-0.793749
21
296.206000
0
LINE
8
Layer 1
10
0.000000
20
298.323000
11
0.000000
21
295.677000
0
LINE
8
Layer 1
10
2.116660
20
295.942000
11
1.058330
21
294.883670
0
LINE
8
Layer 1
10
1.587500
20
296.471000
11
0.529170
21
295.412670
0
LINE
8
Layer 1
10
1.058330
20
297.000000
11
0.000000
21
295.941670
0
LINE
8
0
10
79.567500
20
75.703000
11
79.567500
21
72.703000
0
LINE
8
0
10
79.567500
20
72.703000
11
76.567500
21
72.703000
0
LINE
8
0
10
76.567500
20
72.703000
11
76.567500
21
75.703000
0
LINE
8
0
10
76.567500
20
75.703000
11
79.567500
21
75.703000
0
LINE
8
0
10
149.567000
20
72.703000
11
149.567000
21
75.703000
0
LINE
8
0
10
149.567000
20
75.703000
11
152.567000
21
75.703000
0
LINE
8
0
10
152.567000
20
75.703000
11
152.567000
21
72.703000
0
LINE
8
0
10
152.567000
20
72.703000
11
149.567000
21
72.703000
0
LINE
8
0
10
125.767000
20
82.003000
11
138.067000
21
82.003000
0
LINE
8
0
10
138.067000
20
82.003000
11
138.067000
21
69.703000
0
LINE
8
0
10
138.067000
20
69.703000
11
125.767000
21
69.703000
0
LINE
8
0
10
125.767000
20
69.703000
11
125.767000
21
82.003000
0
LINE
8
0
10
153.567000
20
92.003000
11
153.567000
21
79.703000
0
LINE
8
0
10
153.567000
20
79.703000
11
141.267000
21
79.703000
0
LINE
8
0
10
141.267000
20
79.703000
11
141.267000
21
92.003000
0
LINE
8
0
10
141.267000
20
92.003000
11
153.567000
21
92.003000
0
LINE
8
0
10
76.567500
20
128.703000
11
79.567500
21
128.703000
0
LINE
8
0
10
79.567500
20
128.703000
11
79.567500
21
125.703000
0
LINE
8
0
10
79.567500
20
125.703000
11
76.567500
21
125.703000
0
LINE
8
0
10
76.567500
20
125.703000
11
76.567500
21
128.703000
0
LINE
8
0
10
78.317500
20
89.253000
11
90.617400
21
89.253000
0
LINE
8
0
10
90.617400
20
89.253000
11
90.617400
21
76.953000
0
LINE
8
0
10
90.617400
20
76.953000
11
78.317500
21
76.953000
0
LINE
8
0
10
78.317500
20
76.953000
11
78.317500
21
89.253000
0
LINE
8
0
10
81.567500
20
100.203000
11
81.567500
21
127.303000
0
LINE
8
0
10
81.567500
20
127.303000
11
155.817000
21
127.303000
0
LINE
8
0
10
155.817000
20
127.303000
11
155.817000
21
100.203000
0
LINE
8
0
10
155.817000
20
100.203000
11
81.567500
21
100.203000
0
LINE
8
0
10
149.567000
20
128.703000
11
149.567000
21
131.703000
0
LINE
8
0
10
149.567000
20
131.703000
11
152.567000
21
131.703000
0
LINE
8
0
10
152.567000
20
131.703000
11
152.567000
21
128.703000
0
LINE
8
0
10
152.567000
20
128.703000
11
149.567000
21
128.703000
0
LINE
8
0
10
159.567000
20
92.903000
11
163.567000
21
92.903000
0
LINE
8
0
10
163.567000
20
92.903000
11
163.567000
21
108.503000
0
LINE
8
0
10
163.567000
20
108.503000
11
159.567000
21
108.503000
0
LINE
8
0
10
159.567000
20
108.503000
11
159.567000
21
124.103000
0
LINE
8
0
10
159.567000
20
124.103000
11
163.567000
21
124.103000
0
LINE
8
0
10
163.567000
20
124.103000
11
163.567000
21
139.703000
0
LINE
8
0
10
163.567000
20
139.703000
11
141.567000
21
139.703000
0
LINE
8
0
10
141.567000
20
139.703000
11
141.567000
21
135.703000
0
LINE
8
0
10
141.567000
20
135.703000
11
123.567000
21
135.703000
0
LINE
8
0
10
123.567000
20
135.703000
11
123.567000
21
139.703000
0
LINE
8
0
10
123.567000
20
139.703000
11
105.567000
21
139.703000
0
LINE
8
0
10
105.567000
20
139.703000
11
105.567000
21
135.703000
0
LINE
8
0
10
105.567000
20
135.703000
11
87.567500
21
135.703000
0
LINE
8
0
10
87.567500
20
135.703000
11
87.567500
21
139.703000
0
LINE
8
0
10
87.567500
20
139.703000
11
65.567500
21
139.703000
0
LINE
8
0
10
65.567500
20
139.703000
11
65.567500
21
124.103000
0
LINE
8
0
10
65.567500
20
124.103000
11
69.567500
21
124.103000
0
LINE
8
0
10
69.567500
20
124.103000
11
69.567500
21
108.503000
0
LINE
8
0
10
69.567500
20
108.503000
11
65.567500
21
108.503000
0
LINE
8
0
10
65.567500
20
108.503000
11
65.567500
21
92.903000
0
LINE
8
0
10
65.567500
20
92.903000
11
69.567500
21
92.903000
0
LINE
8
0
10
69.567500
20
92.903000
11
69.567500
21
77.303000
0
LINE
8
0
10
69.567500
20
77.303000
11
65.567500
21
77.303000
0
LINE
8
0
10
65.567500
20
77.303000
11
65.567500
21
61.703000
0
LINE
8
0
10
65.567500
20
61.703000
11
87.567500
21
61.703000
0
LINE
8
0
10
87.567500
20
61.703000
11
87.567500
21
65.703000
0
LINE
8
0
10
87.567500
20
65.703000
11
105.567000
21
65.703000
0
LINE
8
0
10
105.567000
20
65.703000
11
105.567000
21
61.703000
0
LINE
8
0
10
105.567000
20
61.703000
11
123.567000
21
61.703000
0
LINE
8
0
10
123.567000
20
61.703000
11
123.567000
21
65.703000
0
LINE
8
0
10
123.567000
20
65.703000
11
141.567000
21
65.703000
0
LINE
8
0
10
141.567000
20
65.703000
11
141.567000
21
61.703000
0
LINE
8
0
10
141.567000
20
61.703000
11
163.567000
21
61.703000
0
LINE
8
0
10
163.567000
20
61.703000
11
163.567000
21
77.303000
0
LINE
8
0
10
163.567000
20
77.303000
11
159.567000
21
77.303000
0
LINE
8
0
10
159.567000
20
77.303000
11
159.567000
21
92.903000
0
LINE
8
0
10
73.067500
20
134.753000
11
72.292500
21
134.545339
0
LINE
8
0
10
72.292500
20
134.545339
11
71.725161
21
133.978000
0
LINE
8
0
10
71.725161
20
133.978000
11
71.517500
21
133.203000
0
LINE
8
0
10
71.517500
20
133.203000
11
71.725161
21
132.428000
0
LINE
8
0
10
71.725161
20
132.428000
11
72.292500
21
131.860661
0
LINE
8
0
10
72.292500
20
131.860661
11
73.067500
21
131.653000
0
LINE
8
0
10
73.067500
20
131.653000
11
73.842500
21
131.860661
0
LINE
8
0
10
73.842500
20
131.860661
11
74.409839
21
132.428000
0
LINE
8
0
10
74.409839
20
132.428000
11
74.617500
21
133.203000
0
LINE
8
0
10
74.617500
20
133.203000
11
74.409839
21
133.978000
0
LINE
8
0
10
74.409839
20
133.978000
11
73.842500
21
134.545339
0
LINE
8
0
10
73.842500
20
134.545339
11
73.067500
21
134.753000
0
LINE
8
0
10
73.067500
20
134.753000
11
73.067500
21
134.753000
0
LINE
8
0
10
156.067000
20
69.753000
11
155.463670
21
69.631193
0
LINE
8
0
10
155.463670
20
69.631193
11
154.970985
21
69.299015
0
LINE
8
0
10
154.970985
20
69.299015
11
154.638807
21
68.806330
0
LINE
8
0
10
154.638807
20
68.806330
11
154.517000
21
68.203000
0
LINE
8
0
10
154.517000
20
68.203000
11
154.638807
21
67.599670
0
LINE
8
0
10
154.638807
20
67.599670
11
154.970985
21
67.106985
0
LINE
8
0
10
154.970985
20
67.106985
11
155.463670
21
66.774807
0
LINE
8
0
10
155.463670
20
66.774807
11
156.067000
21
66.653000
0
LINE
8
0
10
156.067000
20
66.653000
11
156.670330
21
66.774807
0
LINE
8
0
10
156.670330
20
66.774807
11
157.163015
21
67.106985
0
LINE
8
0
10
157.163015
20
67.106985
11
157.495193
21
67.599670
0
LINE
8
0
10
157.495193
20
67.599670
11
157.617000
21
68.203000
0
LINE
8
0
10
157.617000
20
68.203000
11
157.495193
21
68.806330
0
LINE
8
0
10
157.495193
20
68.806330
11
157.163015
21
69.299015
0
LINE
8
0
10
157.163015
20
69.299015
11
156.670330
21
69.631193
0
LINE
8
0
10
156.670330
20
69.631193
11
156.067000
21
69.753000
0
LINE
8
0
10
156.067000
20
69.753000
11
156.067000
21
69.753000
0
LINE
8
0
10
73.067500
20
69.753000
11
72.464170
21
69.631193
0
LINE
8
0
10
72.464170
20
69.631193
11
71.971485
21
69.299015
0
LINE
8
0
10
71.971485
20
69.299015
11
71.639307
21
68.806330
0
LINE
8
0
10
71.639307
20
68.806330
11
71.517500
21
68.203000
0
LINE
8
0
10
71.517500
20
68.203000
11
71.639307
21
67.599670
0
LINE
8
0
10
71.639307
20
67.599670
11
71.971485
21
67.106985
0
LINE
8
0
10
71.971485
20
67.106985
11
72.464170
21
66.774807
0
LINE
8
0
10
72.464170
20
66.774807
11
73.067500
21
66.653000
0
LINE
8
0
10
73.067500
20
66.653000
11
73.670830
21
66.774807
0
LINE
8
0
10
73.670830
20
66.774807
11
74.163515
21
67.106985
0
LINE
8
0
10
74.163515
20
67.106985
11
74.495693
21
67.599670
0
LINE
8
0
10
74.495693
20
67.599670
11
74.617500
21
68.203000
0
LINE
8
0
10
74.617500
20
68.203000
11
74.495693
21
68.806330
0
LINE
8
0
10
74.495693
20
68.806330
11
74.163515
21
69.299015
0
LINE
8
0
10
74.163515
20
69.299015
11
73.670830
21
69.631193
0
LINE
8
0
10
73.670830
20
69.631193
11
73.067500
21
69.753000
0
LINE
8
0
10
73.067500
20
69.753000
11
73.067500
21
69.753000
0
LINE
8
0
10
156.067000
20
134.753000
11
155.292000
21
134.545339
0
LINE
8
0
10
155.292000
20
134.545339
11
154.724661
21
133.978000
0
LINE
8
0
10
154.724661
20
133.978000
11
154.517000
21
133.203000
0
LINE
8
0
10
154.517000
20
133.203000
11
154.724661
21
132.428000
0
LINE
8
0
10
154.724661
20
132.428000
11
155.292000
21
131.860661
0
LINE
8
0
10
155.292000
20
131.860661
11
156.067000
21
131.653000
0
LINE
8
0
10
156.067000
20
131.653000
11
156.842000
21
131.860661
0
LINE
8
0
10
156.842000
20
131.860661
11
157.409339
21
132.428000
0
LINE
8
0
10
157.409339
20
132.428000
11
157.617000
21
133.203000
0
LINE
8
0
10
157.617000
20
133.203000
11
157.409339
21
133.978000
0
LINE
8
0
10
157.409339
20
133.978000
11
156.842000
21
134.545339
0
LINE
8
0
10
156.842000
20
134.545339
11
156.067000
21
134.753000
0
LINE
8
0
10
156.067000
20
134.753000
11
156.067000
21
134.753000
0
LINE
8
0
10
83.019500
20
92.756400
11
83.402580
21
92.662026
0
LINE
8
0
10
83.402580
20
92.662026
11
83.554601
21
92.907067
0
LINE
8
0
10
83.554601
20
92.907067
11
83.814281
21
93.421731
0
LINE
8
0
10
83.814281
20
93.421731
11
84.784800
21
94.699795
0
LINE
8
0
10
84.784800
20
94.699795
11
86.015161
21
95.531931
0
LINE
8
0
10
86.015161
20
95.531931
11
87.073421
21
95.887237
0
LINE
8
0
10
87.073421
20
95.887237
11
88.158261
21
95.967694
0
LINE
8
0
10
88.158261
20
95.967694
11
88.578707
21
95.934763
0
LINE
8
0
10
88.578707
20
95.934763
11
88.405686
21
95.880173
0
LINE
8
0
10
88.405686
20
95.880173
11
87.607815
21
95.651481
0
LINE
8
0
10
87.607815
20
95.651481
11
86.921620
21
95.273095
0
LINE
8
0
10
86.921620
20
95.273095
11
86.329908
21
94.732653
0
LINE
8
0
10
86.329908
20
94.732653
11
85.815486
21
94.017793
0
LINE
8
0
10
85.815486
20
94.017793
11
85.124824
21
92.261063
0
LINE
8
0
10
85.124824
20
92.261063
11
85.071952
21
92.009402
0
LINE
8
0
10
85.071952
20
92.009402
11
85.445448
21
91.873459
0
LINE
8
0
10
85.445448
20
91.873459
11
85.764347
21
91.691018
0
LINE
8
0
10
85.764347
20
91.691018
11
83.528437
21
90.359468
0
LINE
8
0
10
83.528437
20
90.359468
11
83.401768
21
90.675367
0
LINE
8
0
10
83.401768
20
90.675367
11
83.013487
21
91.809127
0
LINE
8
0
10
83.013487
20
91.809127
11
82.686309
21
92.765587
0
LINE
8
0
10
82.686309
20
92.765587
11
82.646061
21
92.892341
0
LINE
8
0
10
82.646061
20
92.892341
11
83.019500
21
92.756400
0
LINE
8
0
10
133.887000
20
84.923300
11
133.603718
21
84.853512
0
LINE
8
0
10
133.603718
20
84.853512
11
133.491303
21
85.034716
0
LINE
8
0
10
133.491303
20
85.034716
11
133.299274
21
85.415297
0
LINE
8
0
10
133.299274
20
85.415297
11
132.581595
21
86.360402
0
LINE
8
0
10
132.581595
20
86.360402
11
131.671764
21
86.975747
0
LINE
8
0
10
131.671764
20
86.975747
11
130.889203
21
87.238489
0
LINE
8
0
10
130.889203
20
87.238489
11
130.086984
21
87.297985
0
LINE
8
0
10
130.086984
20
87.297985
11
129.776072
21
87.273633
0
LINE
8
0
10
129.776072
20
87.273633
11
129.904017
21
87.233265
0
LINE
8
0
10
129.904017
20
87.233265
11
131.001454
21
86.784343
0
LINE
8
0
10
131.001454
20
86.784343
11
131.819417
21
85.856075
0
LINE
8
0
10
131.819417
20
85.856075
11
132.330150
21
84.557005
0
LINE
8
0
10
132.330150
20
84.557005
11
132.369247
21
84.370908
0
LINE
8
0
10
132.369247
20
84.370908
11
132.093054
21
84.270380
0
LINE
8
0
10
132.093054
20
84.270380
11
131.857234
21
84.135469
0
LINE
8
0
10
131.857234
20
84.135469
11
133.510644
21
83.150818
0
LINE
8
0
10
133.510644
20
83.150818
11
133.604312
21
83.384418
0
LINE
8
0
10
133.604312
20
83.384418
11
133.891437
21
84.222810
0
LINE
8
0
10
133.891437
20
84.222810
11
134.133380
21
84.930093
0
LINE
8
0
10
134.133380
20
84.930093
11
134.163143
21
85.023825
0
LINE
8
0
10
134.163143
20
85.023825
11
133.887000
21
84.923300
0
LINE
8
0
10
143.618000
20
95.209300
11
143.328316
21
95.015083
0
LINE
8
0
10
143.328316
20
95.015083
11
143.127950
21
95.172674
0
LINE
8
0
10
143.127950
20
95.172674
11
142.756632
21
95.521680
0
LINE
8
0
10
142.756632
20
95.521680
11
141.564025
21
96.289915
0
LINE
8
0
10
141.564025
20
96.289915
11
140.290402
21
96.609160
0
LINE
8
0
10
140.290402
20
96.609160
11
139.303900
21
96.584347
0
LINE
8
0
10
139.303900
20
96.584347
11
138.378412
21
96.323185
0
LINE
8
0
10
138.378412
20
96.323185
11
138.039113
21
96.168711
0
LINE
8
0
10
138.039113
20
96.168711
11
138.199342
21
96.175675
0
LINE
8
0
10
138.199342
20
96.175675
11
138.931261
21
96.226936
0
LINE
8
0
10
138.931261
20
96.226936
11
139.615673
21
96.120086
0
LINE
8
0
10
139.615673
20
96.120086
11
140.270598
21
95.850052
0
LINE
8
0
10
140.270598
20
95.850052
11
140.914052
21
95.411763
0
LINE
8
0
10
140.914052
20
95.411763
11
142.018912
21
94.161293
0
LINE
8
0
10
142.018912
20
94.161293
11
142.138919
21
93.968229
0
LINE
8
0
10
142.138919
20
93.968229
11
141.869764
21
93.742381
0
LINE
8
0
10
141.869764
20
93.742381
11
141.660021
21
93.494414
0
LINE
8
0
10
141.660021
20
93.494414
11
143.919931
21
93.064334
0
LINE
8
0
10
143.919931
20
93.064334
11
143.929641
21
93.365043
0
LINE
8
0
10
143.929641
20
93.365043
11
143.909374
21
94.424233
0
LINE
8
0
10
143.909374
20
94.424233
11
143.891964
21
95.317666
0
LINE
8
0
10
143.891964
20
95.317666
11
143.887070
21
95.435128
0
LINE
8
0
10
143.887070
20
95.435128
11
143.618000
21
95.209300
0
LINE
8
Layer 1
10
89.677600
20
96.728200
11
89.677600
21
94.929400
0
LINE
8
Layer 1
10
89.677600
20
94.929400
11
89.997500
21
94.929400
0
LINE
8
Layer 1
10
89.997500
20
94.929400
11
89.997500
21
96.193400
0
LINE
8
Layer 1
10
89.997500
20
96.193400
11
90.373703
21
95.394484
0
LINE
8
Layer 1
10
90.373703
20
95.394484
11
90.577300
21
95.394500
0
LINE
8
Layer 1
10
90.577300
20
95.394500
11
90.957122
21
96.194967
0
LINE
8
Layer 1
10
90.957122
20
96.194967
11
90.957100
21
94.929400
0
LINE
8
Layer 1
10
90.957100
20
94.929400
11
91.292000
21
94.929400
0
LINE
8
Layer 1
10
91.292000
20
94.929400
11
91.292000
21
94.984700
0
LINE
8
Layer 1
10
91.292000
20
94.984700
11
91.292000
21
96.728200
0
LINE
8
Layer 1
10
91.292000
20
96.728200
11
90.889400
21
96.728200
0
LINE
8
Layer 1
10
90.889400
20
96.728200
11
90.488393
21
95.862103
0
LINE
8
Layer 1
10
90.488393
20
95.862103
11
90.073432
21
96.728200
0
LINE
8
Layer 1
10
90.073432
20
96.728200
11
89.677600
21
96.728200
0
LINE
8
Layer 1
10
89.787672
20
96.618128
11
90.004200
21
96.618200
0
LINE
8
Layer 1
10
90.004200
20
96.618200
11
90.489959
21
95.603790
0
LINE
8
Layer 1
10
90.489959
20
95.603790
11
90.960213
21
96.618200
0
LINE
8
Layer 1
10
90.960213
20
96.618200
11
91.181900
21
96.618200
0
LINE
8
Layer 1
10
91.181900
20
96.618200
11
91.181900
21
95.039500
0
LINE
8
Layer 1
10
91.181900
20
95.039500
11
91.067200
21
95.039500
0
LINE
8
Layer 1
10
91.067200
20
95.039500
11
91.067200
21
96.439900
0
LINE
8
Layer 1
10
91.067200
20
96.439900
11
90.962295
21
96.463157
0
LINE
8
Layer 1
10
90.962295
20
96.463157
11
90.507543
21
95.504562
0
LINE
8
Layer 1
10
90.507543
20
95.504562
11
90.443500
21
95.504500
0
LINE
8
Layer 1
10
90.443500
20
95.504500
11
89.992367
21
96.463095
0
LINE
8
Layer 1
10
89.992367
20
96.463095
11
89.887462
21
96.439838
0
LINE
8
Layer 1
10
89.887462
20
96.439838
11
89.887400
21
95.039500
0
LINE
8
Layer 1
10
89.887400
20
95.039500
11
89.787700
21
95.039500
0
LINE
8
Layer 1
10
89.787700
20
95.039500
11
89.787672
21
96.618128
0
LINE
8
Layer 1
10
92.377700
20
96.763400
11
92.034052
21
96.700871
0
LINE
8
Layer 1
10
92.034052
20
96.700871
11
91.766368
21
96.516388
0
LINE
8
Layer 1
10
91.766368
20
96.516388
11
91.766400
21
96.515800
0
LINE
8
Layer 1
10
91.766400
20
96.515800
11
91.596387
21
96.215562
0
LINE
8
Layer 1
10
91.596387
20
96.215562
11
91.539025
21
95.828506
0
LINE
8
Layer 1
10
91.539025
20
95.828506
11
91.596387
21
95.437831
0
LINE
8
Layer 1
10
91.596387
20
95.437831
11
91.596400
21
95.437300
0
LINE
8
Layer 1
10
91.596400
20
95.437300
11
91.765381
21
95.142229
0
LINE
8
Layer 1
10
91.765381
20
95.142229
11
92.032546
21
94.957227
0
LINE
8
Layer 1
10
92.032546
20
94.957227
11
92.033000
21
94.957300
0
LINE
8
Layer 1
10
92.033000
20
94.957300
11
92.377680
21
94.894255
0
LINE
8
Layer 1
10
92.377680
20
94.894255
11
92.722879
21
94.956266
0
LINE
8
Layer 1
10
92.722879
20
94.956266
11
92.990044
21
95.142302
0
LINE
8
Layer 1
10
92.990044
20
95.142302
11
93.157993
21
95.436338
0
LINE
8
Layer 1
10
93.157993
20
95.436338
11
93.217937
21
95.828564
0
LINE
8
Layer 1
10
93.217937
20
95.828564
11
93.159543
21
96.218721
0
LINE
8
Layer 1
10
93.159543
20
96.218721
11
93.159600
21
96.219200
0
LINE
8
Layer 1
10
93.159600
20
96.219200
11
92.990100
21
96.516340
0
LINE
8
Layer 1
10
92.990100
20
96.516340
11
92.990100
21
96.516900
0
LINE
8
Layer 1
10
92.990100
20
96.516900
11
92.724485
21
96.699317
0
LINE
8
Layer 1
10
92.724485
20
96.699317
11
92.723900
21
96.699300
0
LINE
8
Layer 1
10
92.723900
20
96.699300
11
92.377669
21
96.763379
0
LINE
8
Layer 1
10
92.377669
20
96.763379
11
92.377700
21
96.763400
0
LINE
8
Layer 1
10
92.377700
20
96.653328
11
92.682074
21
96.597520
0
LINE
8
Layer 1
10
92.682074
20
96.597520
11
92.682600
21
96.597500
0
LINE
8
Layer 1
10
92.682600
20
96.597500
11
92.908943
21
96.441954
0
LINE
8
Layer 1
10
92.908943
20
96.441954
11
93.054670
21
96.184089
0
LINE
8
Layer 1
10
93.054670
20
96.184089
11
93.055200
21
96.184100
0
LINE
8
Layer 1
10
93.055200
20
96.184100
11
93.107910
21
95.828567
0
LINE
8
Layer 1
10
93.107910
20
95.828567
11
93.054166
21
95.471999
0
LINE
8
Layer 1
10
93.054166
20
95.471999
11
93.053636
21
95.471470
0
LINE
8
Layer 1
10
93.053636
20
95.471470
11
92.908941
21
95.216706
0
LINE
8
Layer 1
10
92.908941
20
95.216706
11
92.681566
21
95.058059
0
LINE
8
Layer 1
10
92.681566
20
95.058059
11
92.377708
21
95.004314
0
LINE
8
Layer 1
10
92.377708
20
95.004314
11
92.074369
21
95.059091
0
LINE
8
Layer 1
10
92.074369
20
95.059091
11
92.073800
21
95.059100
0
LINE
8
Layer 1
10
92.073800
20
95.059100
11
91.846941
21
95.216715
0
LINE
8
Layer 1
10
91.846941
20
95.216715
11
91.700698
21
95.472511
0
LINE
8
Layer 1
10
91.700698
20
95.472511
11
91.700700
21
95.473000
0
LINE
8
Layer 1
10
91.700700
20
95.473000
11
91.649022
21
95.828533
0
LINE
8
Layer 1
10
91.649022
20
95.828533
11
91.700700
21
96.180447
0
LINE
8
Layer 1
10
91.700700
20
96.180447
11
91.700700
21
96.181000
0
LINE
8
Layer 1
10
91.700700
20
96.181000
11
91.848493
21
96.442482
0
LINE
8
Layer 1
10
91.848493
20
96.442482
11
92.074836
21
96.598544
0
LINE
8
Layer 1
10
92.074836
20
96.598544
11
92.377659
21
96.653321
0
LINE
8
Layer 1
10
92.377659
20
96.653321
11
92.377700
21
96.653328
0
LINE
8
Layer 1
10
92.378758
20
96.569614
11
91.931756
21
96.370142
0
LINE
8
Layer 1
10
91.931756
20
96.370142
11
91.931200
21
96.370100
0
LINE
8
Layer 1
10
91.931200
20
96.370100
11
91.772553
21
95.828533
0
LINE
8
Layer 1
10
91.772553
20
95.828533
11
91.935335
21
95.283346
0
LINE
8
Layer 1
10
91.935335
20
95.283346
11
92.378718
21
95.088010
0
LINE
8
Layer 1
10
92.378718
20
95.088010
11
92.821585
21
95.283346
0
LINE
8
Layer 1
10
92.821585
20
95.283346
11
92.984364
21
95.828533
0
LINE
8
Layer 1
10
92.984364
20
95.828533
11
92.824167
21
96.370100
0
LINE
8
Layer 1
10
92.824167
20
96.370100
11
92.378718
21
96.569572
0
LINE
8
Layer 1
10
92.378718
20
96.569572
11
92.378758
21
96.569614
0
LINE
8
Layer 1
10
92.378758
20
96.459542
11
92.738943
21
96.300379
0
LINE
8
Layer 1
10
92.738943
20
96.300379
11
92.739500
21
96.300400
0
LINE
8
Layer 1
10
92.739500
20
96.300400
11
92.873858
21
95.828596
0
LINE
8
Layer 1
10
92.873858
20
95.828596
11
92.737434
21
95.354723
0
LINE
8
Layer 1
10
92.737434
20
95.354723
11
92.378800
21
95.198143
0
LINE
8
Layer 1
10
92.378800
20
95.198143
11
92.019650
21
95.354723
0
LINE
8
Layer 1
10
92.019650
20
95.354723
11
91.882707
21
95.828596
0
LINE
8
Layer 1
10
91.882707
20
95.828596
11
92.016549
21
96.300400
0
LINE
8
Layer 1
10
92.016549
20
96.300400
11
92.378800
21
96.459563
0
LINE
8
Layer 1
10
92.378800
20
96.459563
11
92.378758
21
96.459542
0
LINE
8
Layer 1
10
93.463900
20
96.728200
11
93.463900
21
94.929400
0
LINE
8
Layer 1
10
93.463900
20
94.929400
11
93.945600
21
94.929400
0
LINE
8
Layer 1
10
93.945600
20
94.929400
11
94.331624
21
94.962473
0
LINE
8
Layer 1
10
94.331624
20
94.962473
11
94.607576
21
95.072542
0
LINE
8
Layer 1
10
94.607576
20
95.072542
11
94.893344
21
95.383636
0
LINE
8
Layer 1
10
94.893344
20
95.383636
11
95.000831
21
95.827019
0
LINE
8
Layer 1
10
95.000831
20
95.827019
11
94.897996
21
96.278670
0
LINE
8
Layer 1
10
94.897996
20
96.278670
11
94.609643
21
96.586145
0
LINE
8
Layer 1
10
94.609643
20
96.586145
11
94.346610
21
96.690531
0
LINE
8
Layer 1
10
94.346610
20
96.690531
11
94.346000
21
96.690500
0
LINE
8
Layer 1
10
94.346000
20
96.690500
11
93.940857
21
96.728224
0
LINE
8
Layer 1
10
93.940857
20
96.728224
11
93.463900
21
96.728200
0
LINE
8
Layer 1
10
93.573972
20
96.618128
11
93.940900
21
96.618200
0
LINE
8
Layer 1
10
93.940900
20
96.618200
11
94.320206
21
96.583577
0
LINE
8
Layer 1
10
94.320206
20
96.583577
11
94.551198
21
96.492626
0
LINE
8
Layer 1
10
94.551198
20
96.492626
11
94.800795
21
96.226493
0
LINE
8
Layer 1
10
94.800795
20
96.226493
11
94.890713
21
95.827036
0
LINE
8
Layer 1
10
94.890713
20
95.827036
11
94.796662
21
95.435845
0
LINE
8
Layer 1
10
94.796662
20
95.435845
11
94.796100
21
95.435800
0
LINE
8
Layer 1
10
94.796100
20
95.435800
11
94.549085
21
95.166050
0
LINE
8
Layer 1
10
94.549085
20
95.166050
11
94.307756
21
95.069932
0
LINE
8
Layer 1
10
94.307756
20
95.069932
11
93.945505
21
95.039442
0
LINE
8
Layer 1
10
93.945505
20
95.039442
11
93.574000
21
95.039500
0
LINE
8
Layer 1
10
93.574000
20
95.039500
11
93.573972
21
96.618128
0
LINE
8
Layer 1
10
93.688177
20
96.535446
11
93.688200
21
95.122100
0
LINE
8
Layer 1
10
93.688200
20
95.122100
11
93.954400
21
95.122100
0
LINE
8
Layer 1
10
93.954400
20
95.122100
11
94.247405
21
95.146891
0
LINE
8
Layer 1
10
94.247405
20
95.146891
11
94.488734
21
95.243012
0
LINE
8
Layer 1
10
94.488734
20
95.243012
11
94.696990
21
95.477620
0
LINE
8
Layer 1
10
94.696990
20
95.477620
11
94.766234
21
95.830571
0
LINE
8
Layer 1
10
94.766234
20
95.830571
11
94.690788
21
96.190237
0
LINE
8
Layer 1
10
94.690788
20
96.190237
11
94.462895
21
96.427433
0
LINE
8
Layer 1
10
94.462895
20
96.427433
11
94.234486
21
96.511665
0
LINE
8
Layer 1
10
94.234486
20
96.511665
11
94.233900
21
96.511700
0
LINE
8
Layer 1
10
94.233900
20
96.511700
11
93.954331
21
96.535460
0
LINE
8
Layer 1
10
93.954331
20
96.535460
11
93.688177
21
96.535446
0
LINE
8
Layer 1
10
93.798762
20
96.425377
11
93.954400
21
96.425400
0
LINE
8
Layer 1
10
93.954400
20
96.425400
11
94.212263
21
96.403704
0
LINE
8
Layer 1
10
94.212263
20
96.403704
11
94.212700
21
96.403700
0
LINE
8
Layer 1
10
94.212700
20
96.403700
11
94.408036
21
96.331871
0
LINE
8
Layer 1
10
94.408036
20
96.331871
11
94.592519
21
96.140152
0
LINE
8
Layer 1
10
94.592519
20
96.140152
11
94.656082
21
95.830611
0
LINE
8
Layer 1
10
94.656082
20
95.830611
11
94.597689
21
95.525719
0
LINE
8
Layer 1
10
94.597689
20
95.525719
11
94.597700
21
95.525200
0
LINE
8
Layer 1
10
94.597700
20
95.525200
11
94.429751
21
95.336065
0
LINE
8
Layer 1
10
94.429751
20
95.336065
11
94.226146
21
95.254933
0
LINE
8
Layer 1
10
94.226146
20
95.254933
11
93.954329
21
95.232206
0
LINE
8
Layer 1
10
93.954329
20
95.232206
11
93.798800
21
95.232200
0
LINE
8
Layer 1
10
93.798800
20
95.232200
11
93.798762
21
96.425377
0
LINE
8
Layer 1
10
95.253500
20
96.728200
11
95.253500
21
94.929400
0
LINE
8
Layer 1
10
95.253500
20
94.929400
11
96.476700
21
94.929400
0
LINE
8
Layer 1
10
96.476700
20
94.929400
11
96.476700
21
94.984700
0
LINE
8
Layer 1
10
96.476700
20
94.984700
11
96.476700
21
95.238900
0
LINE
8
Layer 1
10
96.476700
20
95.238900
11
95.588400
21
95.238900
0
LINE
8
Layer 1
10
95.588400
20
95.238900
11
95.588400
21
95.756200
0
LINE
8
Layer 1
10
95.588400
20
95.756200
11
96.476700
21
95.756200
0
LINE
8
Layer 1
10
96.476700
20
95.756200
11
96.476700
21
96.066300
0
LINE
8
Layer 1
10
96.476700
20
96.066300
11
95.588400
21
96.066300
0
LINE
8
Layer 1
10
95.588400
20
96.066300
11
95.588400
21
96.418700
0
LINE
8
Layer 1
10
95.588400
20
96.418700
11
96.476700
21
96.418700
0
LINE
8
Layer 1
10
96.476700
20
96.418700
11
96.476700
21
96.728200
0
LINE
8
Layer 1
10
96.476700
20
96.728200
11
95.253500
21
96.728200
0
LINE
8
Layer 1
10
95.364088
20
96.618128
11
96.366600
21
96.618200
0
LINE
8
Layer 1
10
96.366600
20
96.618200
11
96.366600
21
96.528800
0
LINE
8
Layer 1
10
96.366600
20
96.528800
11
95.478300
21
96.528800
0
LINE
8
Layer 1
10
95.478300
20
96.528800
11
95.478300
21
95.955700
0
LINE
8
Layer 1
10
95.478300
20
95.955700
11
96.366600
21
95.955700
0
LINE
8
Layer 1
10
96.366600
20
95.955700
11
96.366600
21
95.866300
0
LINE
8
Layer 1
10
96.366600
20
95.866300
11
95.478300
21
95.866300
0
LINE
8
Layer 1
10
95.478300
20
95.866300
11
95.478300
21
95.128900
0
LINE
8
Layer 1
10
95.478300
20
95.128900
11
96.366600
21
95.128900
0
LINE
8
Layer 1
10
96.366600
20
95.128900
11
96.366600
21
95.039500
0
LINE
8
Layer 1
10
96.366600
20
95.039500
11
95.364100
21
95.039500
0
LINE
8
Layer 1
10
95.364100
20
95.039500
11
95.364088
21
96.618128
0
LINE
8
Layer 1
10
127.616000
20
88.405200
11
127.616000
21
86.605900
0
LINE
8
Layer 1
10
127.616000
20
86.605900
11
128.270000
21
86.605900
0
LINE
8
Layer 1
10
128.270000
20
86.605900
11
128.574374
21
86.640007
0
LINE
8
Layer 1
10
128.574374
20
86.640007
11
128.802783
21
86.755762
0
LINE
8
Layer 1
10
128.802783
20
86.755762
11
128.803312
21
86.756292
0
LINE
8
Layer 1
10
128.803312
20
86.756292
11
128.946970
21
86.934060
0
LINE
8
Layer 1
10
128.946970
20
86.934060
11
129.000199
21
87.180556
0
LINE
8
Layer 1
10
129.000199
20
87.180556
11
128.888577
21
87.506633
0
LINE
8
Layer 1
10
128.888577
20
87.506633
11
128.663269
21
87.633241
0
LINE
8
Layer 1
10
128.663269
20
87.633241
11
128.784191
21
87.733491
0
LINE
8
Layer 1
10
128.784191
20
87.733491
11
128.785000
21
87.733500
0
LINE
8
Layer 1
10
128.785000
20
87.733500
11
128.856313
21
87.971212
0
LINE
8
Layer 1
10
128.856313
20
87.971212
11
128.807738
21
88.179984
0
LINE
8
Layer 1
10
128.807738
20
88.179984
11
128.650126
21
88.328296
0
LINE
8
Layer 1
10
128.650126
20
88.328296
11
128.649597
21
88.328825
0
LINE
8
Layer 1
10
128.649597
20
88.328825
11
128.456846
21
88.390838
0
LINE
8
Layer 1
10
128.456846
20
88.390838
11
128.171591
21
88.405311
0
LINE
8
Layer 1
10
128.171591
20
88.405311
11
127.616000
21
88.405200
0
LINE
8
Layer 1
10
127.726069
20
88.295128
11
128.171000
21
88.295200
0
LINE
8
Layer 1
10
128.171000
20
88.295200
11
128.439718
21
88.281759
0
LINE
8
Layer 1
10
128.439718
20
88.281759
11
128.598881
21
88.230599
0
LINE
8
Layer 1
10
128.598881
20
88.230599
11
128.710503
21
88.127764
0
LINE
8
Layer 1
10
128.710503
20
88.127764
11
128.711000
21
88.127200
0
LINE
8
Layer 1
10
128.711000
20
88.127200
11
128.746139
21
87.971138
0
LINE
8
Layer 1
10
128.746139
20
87.971138
11
128.695496
21
87.798540
0
LINE
8
Layer 1
10
128.695496
20
87.798540
11
128.551835
21
87.680200
0
LINE
8
Layer 1
10
128.551835
20
87.680200
11
128.521347
21
87.664695
0
LINE
8
Layer 1
10
128.521347
20
87.664695
11
128.521000
21
87.576900
0
LINE
8
Layer 1
10
128.521000
20
87.576900
11
128.565442
21
87.568116
0
LINE
8
Layer 1
10
128.565442
20
87.568116
11
128.804186
21
87.435309
0
LINE
8
Layer 1
10
128.804186
20
87.435309
11
128.805000
21
87.435300
0
LINE
8
Layer 1
10
128.805000
20
87.435300
11
128.890265
21
87.180536
0
LINE
8
Layer 1
10
128.890265
20
87.180536
11
128.848408
21
86.982615
0
LINE
8
Layer 1
10
128.848408
20
86.982615
11
128.735754
21
86.843090
0
LINE
8
Layer 1
10
128.735754
20
86.843090
11
128.735224
21
86.842561
0
LINE
8
Layer 1
10
128.735224
20
86.842561
11
128.545055
21
86.745925
0
LINE
8
Layer 1
10
128.545055
20
86.745925
11
128.544000
21
86.745900
0
LINE
8
Layer 1
10
128.544000
20
86.745900
11
128.269598
21
86.715928
0
LINE
8
Layer 1
10
128.269598
20
86.715928
11
127.726000
21
86.715900
0
LINE
8
Layer 1
10
127.726000
20
86.715900
11
127.726069
21
88.295128
0
LINE
8
Layer 1
10
127.840274
20
88.213480
11
127.841000
21
87.615600
0
LINE
8
Layer 1
10
127.841000
20
87.615600
11
128.186000
21
87.615600
0
LINE
8
Layer 1
10
128.186000
20
87.615600
11
128.362734
21
87.626448
0
LINE
8
Layer 1
10
128.362734
20
87.626448
11
128.364000
21
87.626500
0
LINE
8
Layer 1
10
128.364000
20
87.626500
11
128.364000
21
87.626500
0
LINE
8
Layer 1
10
128.364000
20
87.626500
11
128.499392
21
87.679726
0
LINE
8
Layer 1
10
128.499392
20
87.679726
11
128.595510
21
87.792380
0
LINE
8
Layer 1
10
128.595510
20
87.792380
11
128.596000
21
87.792900
0
LINE
8
Layer 1
10
128.596000
20
87.792900
11
128.613066
21
87.886435
0
LINE
8
Layer 1
10
128.613066
20
87.886435
11
128.623000
21
87.886400
0
LINE
8
Layer 1
10
128.623000
20
87.886400
11
128.623000
21
87.941700
0
LINE
8
Layer 1
10
128.623000
20
87.941700
11
128.597177
21
88.068824
0
LINE
8
Layer 1
10
128.597177
20
88.068824
11
128.509325
21
88.160809
0
LINE
8
Layer 1
10
128.509325
20
88.160809
11
128.358431
21
88.205251
0
LINE
8
Layer 1
10
128.358431
20
88.205251
11
128.357000
21
88.205300
0
LINE
8
Layer 1
10
128.357000
20
88.205300
11
128.163730
21
88.213555
0
LINE
8
Layer 1
10
128.163730
20
88.213555
11
127.840274
21
88.213480
0
LINE
8
Layer 1
10
127.950862
20
88.103408
11
128.164000
21
88.103500
0
LINE
8
Layer 1
10
128.164000
20
88.103500
11
128.346417
21
88.095748
0
LINE
8
Layer 1
10
128.346417
20
88.095748
11
128.347000
21
88.095700
0
LINE
8
Layer 1
10
128.347000
20
88.095700
11
128.347000
21
88.095700
0
LINE
8
Layer 1
10
128.347000
20
88.095700
11
128.453968
21
88.065212
0
LINE
8
Layer 1
10
128.453968
20
88.065212
11
128.497378
21
88.020770
0
LINE
8
Layer 1
10
128.497378
20
88.020770
11
128.512353
21
87.941705
0
LINE
8
Layer 1
10
128.512353
20
87.941705
11
128.493753
21
87.834737
0
LINE
8
Layer 1
10
128.493753
20
87.834737
11
128.494000
21
87.834200
0
LINE
8
Layer 1
10
128.494000
20
87.834200
11
128.440258
21
87.772706
0
LINE
8
Layer 1
10
128.440258
20
87.772706
11
128.344656
21
87.734981
0
LINE
8
Layer 1
10
128.344656
20
87.734981
11
128.186525
21
87.725668
0
LINE
8
Layer 1
10
128.186525
20
87.725668
11
127.951000
21
87.725700
0
LINE
8
Layer 1
10
127.951000
20
87.725700
11
127.950862
21
88.103408
0
LINE
8
Layer 1
10
127.840274
20
87.536002
11
127.841000
21
86.797600
0
LINE
8
Layer 1
10
127.841000
20
86.797600
11
128.193000
21
86.797600
0
LINE
8
Layer 1
10
128.193000
20
86.797600
11
128.443113
21
86.813105
0
LINE
8
Layer 1
10
128.443113
20
86.813105
11
128.444000
21
86.813100
0
LINE
8
Layer 1
10
128.444000
20
86.813100
11
128.620218
21
86.878727
0
LINE
8
Layer 1
10
128.620218
20
86.878727
11
128.620000
21
86.878700
0
LINE
8
Layer 1
10
128.620000
20
86.878700
11
128.620000
21
86.879300
0
LINE
8
Layer 1
10
128.620000
20
86.879300
11
128.730588
21
86.999706
0
LINE
8
Layer 1
10
128.730588
20
86.999706
11
128.766243
21
87.171788
0
LINE
8
Layer 1
10
128.766243
20
87.171788
11
128.729554
21
87.358856
0
LINE
8
Layer 1
10
128.729554
20
87.358856
11
128.594680
21
87.484946
0
LINE
8
Layer 1
10
128.594680
20
87.484946
11
128.443267
21
87.526803
0
LINE
8
Layer 1
10
128.443267
20
87.526803
11
128.443000
21
87.526800
0
LINE
8
Layer 1
10
128.443000
20
87.526800
11
128.249214
21
87.536113
0
LINE
8
Layer 1
10
128.249214
20
87.536113
11
127.840274
21
87.536002
0
LINE
8
Layer 1
10
127.950862
20
87.425930
11
128.249000
21
87.426000
0
LINE
8
Layer 1
10
128.249000
20
87.426000
11
128.430901
21
87.417216
0
LINE
8
Layer 1
10
128.430901
20
87.417216
11
128.431000
21
87.417200
0
LINE
8
Layer 1
10
128.431000
20
87.417200
11
128.544170
21
87.386712
0
LINE
8
Layer 1
10
128.544170
20
87.386712
11
128.631504
21
87.308679
0
LINE
8
Layer 1
10
128.631504
20
87.308679
11
128.656295
21
87.171739
0
LINE
8
Layer 1
10
128.656295
20
87.171739
11
128.633038
21
87.050814
0
LINE
8
Layer 1
10
128.633038
20
87.050814
11
128.557074
21
86.969682
0
LINE
8
Layer 1
10
128.557074
20
86.969682
11
128.425814
21
86.922142
0
LINE
8
Layer 1
10
128.425814
20
86.922142
11
128.192756
21
86.907669
0
LINE
8
Layer 1
10
128.192756
20
86.907669
11
127.951000
21
86.907700
0
LINE
8
Layer 1
10
127.951000
20
86.907700
11
127.950862
21
87.425930
0
LINE
8
Layer 1
10
136.354000
20
96.725700
11
135.699260
21
94.926330
0
LINE
8
Layer 1
10
135.699260
20
94.926330
11
136.045000
21
94.926300
0
LINE
8
Layer 1
10
136.045000
20
94.926300
11
136.210880
21
95.397073
0
LINE
8
Layer 1
10
136.210880
20
95.397073
11
136.863000
21
95.397100
0
LINE
8
Layer 1
10
136.863000
20
95.397100
11
137.028883
21
94.926327
0
LINE
8
Layer 1
10
137.028883
20
94.926327
11
137.386000
21
94.926300
0
LINE
8
Layer 1
10
137.386000
20
94.926300
11
137.359126
21
95.000198
0
LINE
8
Layer 1
10
137.359126
20
95.000198
11
136.731260
21
96.725668
0
LINE
8
Layer 1
10
136.731260
20
96.725668
11
136.354000
21
96.725700
0
LINE
8
Layer 1
10
136.430996
20
96.615631
11
136.529000
21
96.615600
0
LINE
8
Layer 1
10
136.529000
20
96.615600
11
136.161582
21
95.589820
0
LINE
8
Layer 1
10
136.161582
20
95.589820
11
136.911000
21
95.589800
0
LINE
8
Layer 1
10
136.911000
20
95.589800
11
136.884647
21
95.663698
0
LINE
8
Layer 1
10
136.884647
20
95.663698
11
136.544619
21
96.615578
0
LINE
8
Layer 1
10
136.544619
20
96.615578
11
136.654000
21
96.615600
0
LINE
8
Layer 1
10
136.654000
20
96.615600
11
137.228640
21
95.036370
0
LINE
8
Layer 1
10
137.228640
20
95.036370
11
137.107000
21
95.036400
0
LINE
8
Layer 1
10
137.107000
20
95.036400
11
136.941120
21
95.507170
0
LINE
8
Layer 1
10
136.941120
20
95.507170
11
136.133000
21
95.507100
0
LINE
8
Layer 1
10
136.133000
20
95.507100
11
135.967117
21
95.036330
0
LINE
8
Layer 1
10
135.967117
20
95.036330
11
135.857000
21
95.036400
0
LINE
8
Layer 1
10
135.857000
20
95.036400
11
136.430996
21
96.615631
0
LINE
8
Layer 1
10
136.536416
20
96.310739
11
136.754491
21
95.700441
0
LINE
8
Layer 1
10
136.754491
20
95.700441
11
136.318000
21
95.700400
0
LINE
8
Layer 1
10
136.318000
20
95.700400
11
136.536416
21
96.310739
 0 
ENDSEC
 0 
EOF