<?xml version="1.0" encoding="utf-8"?>
<!-- Generator: Adobe Illustrator 26.1.0, SVG Export Plug-In . SVG Version: 6.00 Build 0)  -->
<svg version="1.1" id="_0" xmlns="http://www.w3.org/2000/svg" xmlns:xlink="http://www.w3.org/1999/xlink" x="0px" y="0px"
	 viewBox="0 0 1080.7 1080.7" style="enable-background:new 0 0 1080.7 1080.7;" xml:space="preserve">
<style type="text/css">
	.st0{fill:none;stroke:#000000;stroke-width:0.71;stroke-linecap:round;stroke-linejoin:round;}
</style>
<g id="POLYLINE">
	<path class="st0" d="M12,406.5H0.3v267.6H12v11.6H0.3v380c0,8,6.5,14.5,14.6,14.5h1050.9c8,0,14.5-6.5,14.5-14.5c0,0,0,0,0,0V14.9
		c0-8-6.5-14.5-14.5-14.5H14.9c-8,0-14.5,6.5-14.5,14.5v380H12V406.5z"/>
</g>
<g id="POLYLINE-2">
	<polyline class="st0" points="40.8,970.5 46.4,970.5 46.4,1019.7 56.1,1019.7 56.1,1025.2 29.5,1025.2 29.5,1019.7 39.4,1019.7 
		39.4,983.1 29.5,983.1 29.5,978.1 	"/>
</g>
<g id="POLYLINE-3">
	<polygon class="st0" points="26,21.2 42.9,21.2 62.7,51.7 82.9,21.2 98.6,21.2 70.4,61.6 98.6,103.1 81.7,103.1 61.8,72.3 
		41.4,103.1 25.8,103.1 54.1,62.5 	"/>
</g>
<g id="POLYLINE-4">
	<polyline class="st0" points="169.1,34.8 174.7,34.8 174.7,84 184.4,84 184.4,89.5 157.8,89.5 157.8,84 167.7,84 167.7,47.4 
		157.8,47.4 157.8,42.4 	"/>
</g>
<g id="POLYLINE-5">
	<polyline class="st0" points="247.1,45.4 246.6,45.4 246.6,37.6 	"/>
</g>
<g id="POLYLINE-6">
	<polyline class="st0" points="252.4,83.7 279.1,83.7 279.1,90 245.5,90 245.5,82.3 	"/>
</g>
<g id="POLYLINE-7">
	<polyline class="st0" points="339,44.8 338.6,44.8 338.6,37.1 	"/>
</g>
<g id="POLYLINE-8">
	<polyline class="st0" points="337.1,87.2 337.1,79.5 337.6,79.5 	"/>
</g>
<g id="POLYLINE-9">
	<polyline class="st0" points="351.3,62.9 348.2,62.9 348.2,56.8 350.6,56.8 	"/>
</g>
<g id="POLYLINE-10">
	<polyline class="st0" points="524.3,62.4 524.3,34.3 554.3,34.3 554.3,40.7 531.4,40.7 531.4,55.3 	"/>
</g>
<g id="POLYLINE-11">
	<polyline class="st0" points="522.1,86.9 522.1,79.2 522.6,79.2 	"/>
</g>
<g id="POLYLINE-12">
	<polygon class="st0" points="739.8,43.1 716.2,89.4 708.4,89.4 733.3,41.3 705.2,41.3 705.2,34.9 739.8,34.9 	"/>
</g>
<g id="POLYLINE-13">
	<polyline class="st0" points="61.2,142.6 66.9,142.6 66.9,191.8 76.6,191.8 76.6,197.4 50,197.4 50,191.8 59.9,191.8 59.9,155.2 
		50,155.2 50,150.2 	"/>
</g>
<g id="POLYLINE-14">
	<polyline class="st0" points="52.5,283.5 79.3,283.5 79.3,289.8 45.7,289.8 45.7,282.1 	"/>
</g>
<g id="POLYLINE-15">
	<polyline class="st0" points="47.2,245.2 46.8,245.2 46.8,237.4 	"/>
</g>
<g id="POLYLINE-16">
	<polyline class="st0" points="45.2,379 45.2,371.3 45.8,371.3 	"/>
</g>
<g id="POLYLINE-17">
	<polyline class="st0" points="59.5,354.7 56.4,354.7 56.4,348.6 58.8,348.6 	"/>
</g>
<g id="POLYLINE-18">
	<polyline class="st0" points="47.2,336.7 46.8,336.7 46.8,328.9 	"/>
</g>
<g id="POLYLINE-19">
	<polyline class="st0" points="46.3,562.7 46.3,555 46.8,555 	"/>
</g>
<g id="POLYLINE-20">
	<polyline class="st0" points="48.5,538.3 48.5,510.1 78.4,510.1 78.4,516.5 55.5,516.5 55.5,531.1 	"/>
</g>
<g id="POLYLINE-21">
	<polygon class="st0" points="73.5,701.1 45.3,701.1 45.3,694.7 79.9,694.7 79.9,702.9 56.3,749.3 48.6,749.3 	"/>
</g>
<g id="POLYLINE-22">
	<polygon class="st0" points="80.8,454.5 74.3,454.5 74.3,473.3 67.3,473.3 67.3,454.5 43.2,454.5 43.2,446.8 67.6,418.7 
		74.3,418.7 74.3,448.6 80.8,448.6 	"/>
</g>
<g id="POLYLINE-23">
	<polygon class="st0" points="48.9,448.6 67.3,448.6 67.3,427.3 	"/>
</g>
<g id="POLYLINE-24">
	<polygon class="st0" points="427,70.7 427,63 451.4,34.9 458.1,34.9 458.1,64.8 464.6,64.8 464.6,70.7 458.1,70.7 458.1,89.4 
		451.1,89.4 451.1,70.7 	"/>
</g>
<g id="POLYLINE-25">
	<polygon class="st0" points="451.1,64.8 451.1,43.5 432.7,64.8 	"/>
</g>
<g id="SPLINE">
	<path class="st0" d="M29.5,978.1c3.7,0,6.5-0.5,8.3-1.6c1.8-1.1,2.8-3.1,3-6"/>
</g>
<g id="SPLINE-2">
	<path class="st0" d="M157.8,42.4c3.7,0,6.5-0.5,8.3-1.6c1.8-1.1,2.8-3.1,3-6"/>
</g>
<g id="SPLINE-3">
	<path class="st0" d="M246.6,37.6c2-0.9,4.1-1.7,6.3-2.2c2.5-0.7,5.1-1.1,7.7-1.1"/>
</g>
<g id="SPLINE-4">
	<path class="st0" d="M260.6,34.3c5.1,0,9.1,1.3,12,4s4.3,6.3,4.3,10.9"/>
</g>
<g id="SPLINE-5">
	<path class="st0" d="M276.9,49.3c0.1,3.8-0.9,7.6-2.8,10.9"/>
</g>
<g id="SPLINE-6">
	<path class="st0" d="M274.1,60.2c-0.9,1.7-2,3.3-3.2,4.8c-1.3,1.6-2.6,3.1-4,4.6"/>
</g>
<g id="SPLINE-7">
	<path class="st0" d="M266.8,69.6c-2.3,2.5-4.8,5.1-7.7,7.8s-5.1,4.8-6.8,6.4"/>
</g>
<g id="SPLINE-8">
	<path class="st0" d="M245.5,82.3c2.4-2.3,4.7-4.4,6.9-6.6c2.2-2.1,4.3-4.3,6.3-6.6"/>
</g>
<g id="SPLINE-9">
	<path class="st0" d="M258.7,69.2c4.1-4.6,7-8.2,8.5-11c1.5-2.6,2.3-5.5,2.3-8.5"/>
</g>
<g id="SPLINE-10">
	<path class="st0" d="M269.5,49.7c0-1.4-0.2-2.7-0.7-4c-0.4-1.1-1.1-2.1-2-2.8"/>
</g>
<g id="SPLINE-11">
	<path class="st0" d="M266.8,42.9c-0.9-0.8-1.9-1.3-3-1.7c-1.2-0.4-2.5-0.6-3.7-0.5"/>
</g>
<g id="SPLINE-12">
	<path class="st0" d="M260.1,40.7c-1.3,0-2.6,0.2-3.9,0.5c-1.3,0.3-2.6,0.7-3.8,1.2"/>
</g>
<g id="SPLINE-13">
	<path class="st0" d="M252.4,42.4c-1,0.4-2,0.9-3,1.5c-1,0.6-1.7,1.1-2.3,1.5"/>
</g>
<g id="SPLINE-14">
	<path class="st0" d="M352.2,40.1c-1.3,0-2.7,0.2-4,0.5c-1.3,0.3-2.6,0.7-3.9,1.2"/>
</g>
<g id="SPLINE-15">
	<path class="st0" d="M344.4,41.8c-1.1,0.4-2.1,1-3.1,1.5c-0.9,0.5-1.6,1-2.3,1.5"/>
</g>
<g id="SPLINE-16">
	<path class="st0" d="M338.6,37.1c2-1,4.2-1.8,6.4-2.3c2.5-0.7,5.1-1,7.8-1"/>
</g>
<g id="SPLINE-17">
	<path class="st0" d="M352.8,33.8c2.2,0,4.4,0.2,6.5,0.8c1.8,0.5,3.5,1.3,5,2.3"/>
</g>
<g id="SPLINE-18">
	<path class="st0" d="M364.3,36.8c1.5,1.1,2.8,2.5,3.6,4.2c0.9,1.8,1.3,3.8,1.2,5.8"/>
</g>
<g id="SPLINE-19">
	<path class="st0" d="M369.1,46.9c0,2.9-1,5.7-3,7.9c-1.8,2.2-4.3,3.7-7.1,4.3"/>
</g>
<g id="LINE">
	<line class="st0" x1="359.1" y1="59.1" x2="359.1" y2="59.7"/>
</g>
<g id="SPLINE-20">
	<path class="st0" d="M359.1,59.7c1.3,0.3,2.5,0.7,3.7,1.2c1.4,0.6,2.6,1.4,3.6,2.4"/>
</g>
<g id="SPLINE-21">
	<path class="st0" d="M366.4,63.2c1.2,1.1,2.1,2.5,2.7,4c0.8,1.9,1.1,4,1.1,6.1"/>
</g>
<g id="SPLINE-22">
	<path class="st0" d="M370.2,73.3c0,2.3-0.4,4.6-1.2,6.8c-0.8,2-2,3.9-3.6,5.5"/>
</g>
<g id="SPLINE-23">
	<path class="st0" d="M365.4,85.6c-1.6,1.7-3.6,2.9-5.8,3.8c-2.4,0.9-5,1.3-7.6,1.3"/>
</g>
<g id="SPLINE-24">
	<path class="st0" d="M352,90.6c-2.7,0-5.5-0.3-8.1-1c-2.3-0.5-4.6-1.3-6.8-2.4"/>
</g>
<g id="SPLINE-25">
	<path class="st0" d="M337.6,79.5c1.9,1.3,4,2.4,6.2,3.2c2.5,1,5.1,1.5,7.7,1.5"/>
</g>
<g id="SPLINE-26">
	<path class="st0" d="M351.5,84.3c1.5,0,3-0.2,4.5-0.7c1.4-0.4,2.7-1.2,3.8-2.3"/>
</g>
<g id="SPLINE-27">
	<path class="st0" d="M359.8,81.2c0.9-1.1,1.7-2.3,2.2-3.6c0.6-1.6,0.8-3.2,0.8-4.9"/>
</g>
<g id="SPLINE-28">
	<path class="st0" d="M362.8,72.7c0.1-1.7-0.2-3.3-0.9-4.9c-0.5-1.2-1.3-2.2-2.4-3"/>
</g>
<g id="SPLINE-29">
	<path class="st0" d="M359.5,64.8c-1.1-0.8-2.3-1.3-3.6-1.5c-1.5-0.3-3-0.4-4.6-0.4"/>
</g>
<g id="SPLINE-30">
	<path class="st0" d="M350.6,56.8c2.9,0.1,5.7-0.7,8-2.3c2.1-1.6,3.3-4.2,3.1-6.8"/>
</g>
<g id="SPLINE-31">
	<path class="st0" d="M361.7,47.7c0-1.2-0.2-2.5-0.8-3.5c-0.5-0.9-1.2-1.8-2.1-2.4"/>
</g>
<g id="SPLINE-32">
	<path class="st0" d="M358.9,41.8c-0.9-0.6-2-1.1-3-1.3c-1.2-0.3-2.4-0.4-3.6-0.4"/>
</g>
<g id="SPLINE-33">
	<path class="st0" d="M544,63.6c-1.1-0.9-2.4-1.6-3.8-1.9c-1.7-0.4-3.4-0.6-5.1-0.6"/>
</g>
<g id="SPLINE-34">
	<path class="st0" d="M535.1,61.1c-2,0-4,0.2-6,0.5c-2,0.3-3.6,0.6-4.8,0.9"/>
</g>
<g id="SPLINE-35">
	<path class="st0" d="M531.4,55.3c0.9-0.1,1.8-0.2,2.6-0.2s1.6-0.1,2.3-0.1"/>
</g>
<g id="SPLINE-36">
	<path class="st0" d="M536.3,55c2.4,0,4.8,0.2,7.1,0.7c2,0.5,3.9,1.4,5.6,2.7"/>
</g>
<g id="SPLINE-37">
	<path class="st0" d="M549,58.4c1.8,1.3,3.2,3.1,4.2,5.1c1.1,2.5,1.6,5.3,1.5,8"/>
</g>
<g id="SPLINE-38">
	<path class="st0" d="M554.6,71.5c0,2.5-0.4,5-1.3,7.3c-0.8,2.2-2,4.1-3.6,5.8"/>
</g>
<g id="SPLINE-39">
	<path class="st0" d="M549.8,84.7c-1.6,1.7-3.6,3-5.8,3.9c-2.4,1-5,1.5-7.6,1.4"/>
</g>
<g id="SPLINE-40">
	<path class="st0" d="M536.4,90c-2.6,0-5.2-0.3-7.7-0.9c-2.3-0.5-4.5-1.2-6.6-2.2"/>
</g>
<g id="SPLINE-41">
	<path class="st0" d="M522.6,79.2c0.8,0.5,1.6,1,2.4,1.4c1.1,0.6,2.3,1.1,3.5,1.5"/>
</g>
<g id="SPLINE-42">
	<path class="st0" d="M528.5,82.1c1.3,0.5,2.6,0.8,4,1.2c1.3,0.3,2.7,0.4,4,0.4"/>
</g>
<g id="SPLINE-43">
	<path class="st0" d="M536.5,83.7c1.5,0,2.9-0.3,4.3-0.8c1.4-0.5,2.6-1.4,3.6-2.5"/>
</g>
<g id="SPLINE-44">
	<path class="st0" d="M544.4,80.4c0.9-1.1,1.6-2.4,2.1-3.8c0.5-1.6,0.7-3.4,0.7-5.1"/>
</g>
<g id="SPLINE-45">
	<path class="st0" d="M547.1,71.5c0.1-1.6-0.2-3.3-0.8-4.8c-0.5-1.2-1.3-2.3-2.3-3.1"/>
</g>
<g id="SPLINE-46">
	<path class="st0" d="M50,150.2c3.8,0,6.5-0.5,8.3-1.6s2.8-3.1,3-6"/>
</g>
<g id="SPLINE-47">
	<path class="st0" d="M45.7,282.1c2.4-2.3,4.7-4.5,6.8-6.6c2.2-2.1,4.3-4.3,6.3-6.5"/>
</g>
<g id="SPLINE-48">
	<path class="st0" d="M58.9,269c3.2-3.4,6.1-7,8.5-11c1.5-2.6,2.3-5.5,2.3-8.5"/>
</g>
<g id="SPLINE-49">
	<path class="st0" d="M69.6,249.5c0-1.4-0.2-2.7-0.7-4c-0.4-1.1-1.1-2.1-2-2.8"/>
</g>
<g id="SPLINE-50">
	<path class="st0" d="M67,242.7c-0.9-0.7-1.9-1.3-3-1.7c-1.2-0.4-2.5-0.6-3.7-0.6"/>
</g>
<g id="SPLINE-51">
	<path class="st0" d="M60.3,240.5c-1.3,0-2.6,0.2-3.9,0.5c-1.3,0.3-2.6,0.7-3.8,1.2"/>
</g>
<g id="SPLINE-52">
	<path class="st0" d="M52.5,242.2c-1,0.4-2,0.9-3,1.5c-1,0.6-1.7,1.1-2.3,1.5"/>
</g>
<g id="SPLINE-53">
	<path class="st0" d="M46.8,237.4c2-0.9,4.1-1.6,6.3-2.2c2.5-0.7,5.1-1.1,7.7-1.1"/>
</g>
<g id="SPLINE-54">
	<path class="st0" d="M60.8,234.1c5.1,0,9.1,1.3,12,4.1s4.3,6.3,4.3,10.9"/>
</g>
<g id="SPLINE-55">
	<path class="st0" d="M77.1,249.1c0,2-0.2,4-0.8,5.9c-0.5,1.7-1.2,3.4-2.1,5"/>
</g>
<g id="SPLINE-56">
	<path class="st0" d="M74.2,260c-0.9,1.7-2,3.3-3.2,4.7c-1.3,1.6-2.6,3.1-4,4.6"/>
</g>
<g id="SPLINE-57">
	<path class="st0" d="M67,269.4c-2.3,2.5-4.9,5.1-7.7,7.8s-5.1,4.8-6.7,6.4"/>
</g>
<g id="SPLINE-58">
	<path class="st0" d="M60.1,382.4c-2.7,0-5.5-0.3-8.1-1c-2.3-0.5-4.6-1.3-6.8-2.4"/>
</g>
<g id="SPLINE-59">
	<path class="st0" d="M45.8,371.3c1.9,1.3,4,2.4,6.2,3.2c2.5,1,5.1,1.5,7.7,1.5"/>
</g>
<g id="SPLINE-60">
	<path class="st0" d="M59.7,376.1c1.5,0,3.1-0.2,4.5-0.7c1.5-0.4,2.8-1.3,3.8-2.4"/>
</g>
<g id="SPLINE-61">
	<path class="st0" d="M68,373c1-1.1,1.7-2.3,2.2-3.6c0.6-1.6,0.8-3.2,0.8-4.9"/>
</g>
<g id="SPLINE-62">
	<path class="st0" d="M71,364.6c0.1-1.7-0.2-3.3-0.9-4.9c-0.5-1.2-1.4-2.2-2.4-3"/>
</g>
<g id="SPLINE-63">
	<path class="st0" d="M67.7,356.6c-1.1-0.8-2.3-1.3-3.7-1.5c-1.5-0.3-3-0.4-4.6-0.4"/>
</g>
<g id="SPLINE-64">
	<path class="st0" d="M58.8,348.6c2.9,0.1,5.7-0.7,8-2.3c2.1-1.6,3.3-4.2,3.1-6.8"/>
</g>
<g id="SPLINE-65">
	<path class="st0" d="M69.9,339.5c0-1.2-0.2-2.5-0.8-3.6c-0.5-0.9-1.2-1.8-2.1-2.4"/>
</g>
<g id="SPLINE-66">
	<path class="st0" d="M67,333.6c-0.9-0.6-2-1.1-3-1.3c-1.2-0.3-2.4-0.4-3.6-0.4"/>
</g>
<g id="SPLINE-67">
	<path class="st0" d="M60.4,331.9c-1.3,0-2.7,0.2-4,0.5c-1.3,0.3-2.6,0.7-3.9,1.2"/>
</g>
<g id="SPLINE-68">
	<path class="st0" d="M52.6,333.6c-1.1,0.4-2.1,1-3.1,1.5c-0.9,0.5-1.6,1-2.3,1.5"/>
</g>
<g id="SPLINE-69">
	<path class="st0" d="M46.8,328.9c2.1-1,4.2-1.8,6.5-2.3c2.5-0.7,5.1-1,7.8-1"/>
</g>
<g id="SPLINE-70">
	<path class="st0" d="M61,325.6c2.2,0,4.4,0.2,6.5,0.8c1.8,0.5,3.5,1.3,5,2.3"/>
</g>
<g id="SPLINE-71">
	<path class="st0" d="M72.5,328.7c1.5,1.1,2.8,2.5,3.6,4.2c0.9,1.8,1.3,3.8,1.2,5.9"/>
</g>
<g id="SPLINE-72">
	<path class="st0" d="M77.3,338.7c0,2.9-1,5.7-3,7.9c-1.8,2.2-4.3,3.7-7.1,4.3"/>
</g>
<g id="LINE-2">
	<line class="st0" x1="67.3" y1="350.9" x2="67.3" y2="351.5"/>
</g>
<g id="SPLINE-73">
	<path class="st0" d="M67.3,351.5c1.3,0.3,2.5,0.7,3.7,1.1c1.3,0.6,2.6,1.4,3.6,2.4"/>
</g>
<g id="SPLINE-74">
	<path class="st0" d="M74.6,355c1.2,1.1,2.1,2.5,2.7,4c0.8,1.9,1.1,4,1.1,6.1"/>
</g>
<g id="SPLINE-75">
	<path class="st0" d="M78.4,365.1c0,2.3-0.4,4.6-1.3,6.8c-0.8,2-2,3.9-3.6,5.5"/>
</g>
<g id="SPLINE-76">
	<path class="st0" d="M73.6,377.4c-1.6,1.7-3.6,3-5.8,3.8c-2.5,0.9-5.1,1.3-7.7,1.3"/>
</g>
<g id="SPLINE-77">
	<path class="st0" d="M78.8,547.4c0,2.5-0.4,5-1.3,7.3c-0.8,2.2-2,4.1-3.6,5.8"/>
</g>
<g id="SPLINE-78">
	<path class="st0" d="M73.9,560.5c-1.6,1.7-3.6,3-5.7,3.9c-2.4,1-5,1.5-7.7,1.4"/>
</g>
<g id="SPLINE-79">
	<path class="st0" d="M60.5,565.8c-2.6,0-5.2-0.3-7.7-0.9c-2.3-0.5-4.5-1.2-6.6-2.2"/>
</g>
<g id="SPLINE-80">
	<path class="st0" d="M46.8,555c0.8,0.5,1.6,1,2.4,1.4c1.1,0.6,2.3,1.1,3.5,1.5"/>
</g>
<g id="SPLINE-81">
	<path class="st0" d="M52.7,557.9c1.3,0.5,2.6,0.9,4,1.2c1.3,0.3,2.7,0.4,4,0.4"/>
</g>
<g id="SPLINE-82">
	<path class="st0" d="M60.7,559.5c1.5,0,2.9-0.3,4.3-0.8c1.4-0.5,2.6-1.4,3.6-2.5"/>
</g>
<g id="SPLINE-83">
	<path class="st0" d="M68.5,556.2c0.9-1.1,1.6-2.4,2.1-3.8c0.5-1.6,0.7-3.4,0.7-5.1"/>
</g>
<g id="SPLINE-84">
	<path class="st0" d="M71.3,547.3c0.1-1.6-0.2-3.3-0.8-4.8c-0.5-1.2-1.3-2.3-2.3-3.1"/>
</g>
<g id="SPLINE-85">
	<path class="st0" d="M68.2,539.5c-1.1-1-2.4-1.7-3.8-2c-1.7-0.4-3.4-0.6-5.1-0.6"/>
</g>
<g id="SPLINE-86">
	<path class="st0" d="M59.3,536.9c-2,0-4,0.2-6,0.5c-2,0.3-3.6,0.6-4.8,0.9"/>
</g>
<g id="SPLINE-87">
	<path class="st0" d="M55.5,531.1c0.9-0.1,1.8-0.2,2.6-0.2s1.6-0.1,2.3-0.1"/>
</g>
<g id="SPLINE-88">
	<path class="st0" d="M60.5,530.8c2.4,0,4.8,0.2,7.1,0.7c2,0.5,3.9,1.4,5.5,2.7"/>
</g>
<g id="SPLINE-89">
	<path class="st0" d="M73.1,534.2c1.8,1.3,3.2,3.1,4.2,5.1c1.1,2.5,1.6,5.3,1.5,8"/>
</g>
<g id="CIRCLE">
	
		<ellipse transform="matrix(1 -2.487528e-03 2.487528e-03 1 -2.6512 4.036168e-02)" class="st0" cx="14.9" cy="1065.8" rx="5.4" ry="5.4"/>
</g>
<g id="CIRCLE-2">
	<circle class="st0" cx="14.9" cy="14.9" r="5.4"/>
</g>
<g id="CIRCLE-3">
	<circle class="st0" cx="1065.8" cy="14.9" r="5.4"/>
</g>
<g id="CIRCLE-4">
	<circle class="st0" cx="1065.8" cy="1065.8" r="5.4"/>
</g>
<g id="CIRCLE-5">
	<circle class="st0" cx="538.5" cy="993.1" r="40"/>
</g>
<g id="CIRCLE-6">
	<circle class="st0" cx="447.6" cy="993.1" r="40"/>
</g>
<g id="CIRCLE-7">
	<circle class="st0" cx="174.9" cy="993.1" r="40"/>
</g>
<g id="CIRCLE-8">
	<circle class="st0" cx="629.5" cy="993.1" r="40"/>
</g>
<g id="CIRCLE-9">
	<circle class="st0" cx="902.2" cy="993.1" r="40"/>
</g>
<g id="CIRCLE-10">
	<circle class="st0" cx="538.5" cy="902.2" r="40"/>
</g>
<g id="CIRCLE-11">
	<circle class="st0" cx="447.6" cy="902.2" r="40"/>
</g>
<g id="CIRCLE-12">
	<circle class="st0" cx="174.9" cy="902.2" r="40"/>
</g>
<g id="CIRCLE-13">
	<circle class="st0" cx="629.5" cy="902.2" r="40"/>
</g>
<g id="CIRCLE-14">
	<circle class="st0" cx="902.2" cy="902.2" r="40"/>
</g>
<g id="CIRCLE-15">
	<circle class="st0" cx="538.5" cy="811.3" r="40"/>
</g>
<g id="CIRCLE-16">
	<circle class="st0" cx="447.6" cy="811.3" r="40"/>
</g>
<g id="CIRCLE-17">
	<circle class="st0" cx="174.9" cy="811.3" r="40"/>
</g>
<g id="CIRCLE-18">
	<circle class="st0" cx="629.5" cy="811.3" r="40"/>
</g>
<g id="CIRCLE-19">
	<circle class="st0" cx="902.2" cy="811.3" r="40"/>
</g>
<g id="CIRCLE-20">
	<circle class="st0" cx="538.5" cy="720.3" r="40"/>
</g>
<g id="CIRCLE-21">
	<circle class="st0" cx="447.6" cy="720.3" r="40"/>
</g>
<g id="CIRCLE-22">
	<circle class="st0" cx="174.9" cy="720.3" r="40"/>
</g>
<g id="CIRCLE-23">
	<circle class="st0" cx="629.5" cy="720.3" r="40"/>
</g>
<g id="CIRCLE-24">
	<circle class="st0" cx="902.2" cy="720.3" r="40"/>
</g>
<g id="CIRCLE-25">
	<circle class="st0" cx="538.5" cy="629.5" r="40"/>
</g>
<g id="CIRCLE-26">
	<circle class="st0" cx="447.6" cy="629.5" r="40"/>
</g>
<g id="CIRCLE-27">
	<circle class="st0" cx="174.9" cy="629.5" r="40"/>
</g>
<g id="CIRCLE-28">
	<circle class="st0" cx="629.5" cy="629.5" r="40"/>
</g>
<g id="CIRCLE-29">
	<circle class="st0" cx="902.2" cy="629.5" r="40"/>
</g>
<g id="CIRCLE-30">
	<circle class="st0" cx="538.5" cy="538.5" r="40"/>
</g>
<g id="CIRCLE-31">
	<circle class="st0" cx="447.6" cy="538.5" r="40"/>
</g>
<g id="CIRCLE-32">
	<circle class="st0" cx="174.9" cy="538.5" r="40"/>
</g>
<g id="CIRCLE-33">
	<circle class="st0" cx="629.5" cy="538.5" r="40"/>
</g>
<g id="CIRCLE-34">
	<circle class="st0" cx="902.2" cy="538.5" r="40"/>
</g>
<g id="CIRCLE-35">
	<circle class="st0" cx="538.5" cy="447.6" r="40"/>
</g>
<g id="CIRCLE-36">
	<circle class="st0" cx="447.6" cy="447.6" r="40"/>
</g>
<g id="CIRCLE-37">
	<circle class="st0" cx="174.9" cy="447.6" r="40"/>
</g>
<g id="CIRCLE-38">
	<circle class="st0" cx="629.5" cy="447.6" r="40"/>
</g>
<g id="CIRCLE-39">
	<circle class="st0" cx="902.2" cy="447.6" r="40"/>
</g>
<g id="CIRCLE-40">
	<circle class="st0" cx="538.5" cy="356.7" r="40"/>
</g>
<g id="CIRCLE-41">
	<circle class="st0" cx="447.6" cy="356.7" r="40"/>
</g>
<g id="CIRCLE-42">
	<circle class="st0" cx="174.9" cy="356.7" r="40"/>
</g>
<g id="CIRCLE-43">
	<circle class="st0" cx="629.5" cy="356.7" r="40"/>
</g>
<g id="CIRCLE-44">
	<circle class="st0" cx="902.2" cy="356.7" r="40"/>
</g>
<g id="CIRCLE-45">
	<circle class="st0" cx="538.5" cy="265.8" r="40"/>
</g>
<g id="CIRCLE-46">
	<circle class="st0" cx="447.6" cy="265.8" r="40"/>
</g>
<g id="CIRCLE-47">
	<circle class="st0" cx="174.9" cy="265.8" r="40"/>
</g>
<g id="CIRCLE-48">
	<circle class="st0" cx="629.5" cy="265.8" r="40"/>
</g>
<g id="CIRCLE-49">
	<circle class="st0" cx="902.2" cy="265.8" r="40"/>
</g>
<g id="CIRCLE-50">
	<ellipse transform="matrix(0.1602 -0.9871 0.9871 0.1602 661.3647 1127.141)" class="st0" cx="993.1" cy="174.9" rx="40" ry="40"/>
</g>
<g id="CIRCLE-51">
	<circle class="st0" cx="811.3" cy="174.9" r="40"/>
</g>
<g id="CIRCLE-52">
	<circle class="st0" cx="720.3" cy="174.9" r="40"/>
</g>
<g id="CIRCLE-53">
	<circle class="st0" cx="629.5" cy="174.9" r="40"/>
</g>
<g id="CIRCLE-54">
	<circle class="st0" cx="538.5" cy="174.9" r="40"/>
</g>
<g id="CIRCLE-55">
	<circle class="st0" cx="447.6" cy="174.9" r="40"/>
</g>
<g id="CIRCLE-56">
	<circle class="st0" cx="356.7" cy="174.9" r="40"/>
</g>
<g id="CIRCLE-57">
	<circle class="st0" cx="265.8" cy="174.9" r="40"/>
</g>
<g id="CIRCLE-58">
	<circle class="st0" cx="174.9" cy="174.9" r="40"/>
</g>
<g id="CIRCLE-59">
	<circle class="st0" cx="902.2" cy="174.9" r="40"/>
</g>
<g id="CIRCLE-60">
	
		<ellipse transform="matrix(0.1602 -0.9871 0.9871 0.1602 571.6286 1203.4888)" class="st0" cx="993.1" cy="265.8" rx="40" ry="40"/>
</g>
<g id="CIRCLE-61">
	<circle class="st0" cx="720.3" cy="265.8" r="40"/>
</g>
<g id="CIRCLE-62">
	<circle class="st0" cx="265.8" cy="265.8" r="40"/>
</g>
<g id="CIRCLE-63">
	<circle class="st0" cx="356.7" cy="265.8" r="40"/>
</g>
<g id="CIRCLE-64">
	<circle class="st0" cx="811.3" cy="265.8" r="40"/>
</g>
<g id="CIRCLE-65">
	
		<ellipse transform="matrix(0.1602 -0.9871 0.9871 0.1602 481.8925 1279.8367)" class="st0" cx="993.1" cy="356.7" rx="40" ry="40"/>
</g>
<g id="CIRCLE-66">
	<circle class="st0" cx="720.3" cy="356.7" r="40"/>
</g>
<g id="CIRCLE-67">
	<circle class="st0" cx="265.8" cy="356.7" r="40"/>
</g>
<g id="CIRCLE-68">
	<circle class="st0" cx="356.7" cy="356.7" r="40"/>
</g>
<g id="CIRCLE-69">
	<circle class="st0" cx="811.3" cy="356.7" r="40"/>
</g>
<g id="CIRCLE-70">
	
		<ellipse transform="matrix(0.1602 -0.9871 0.9871 0.1602 392.1563 1356.1844)" class="st0" cx="993.1" cy="447.6" rx="40" ry="40"/>
</g>
<g id="CIRCLE-71">
	<circle class="st0" cx="720.3" cy="447.6" r="40"/>
</g>
<g id="CIRCLE-72">
	<circle class="st0" cx="265.8" cy="447.6" r="40"/>
</g>
<g id="CIRCLE-73">
	<circle class="st0" cx="356.7" cy="447.6" r="40"/>
</g>
<g id="CIRCLE-74">
	<circle class="st0" cx="811.3" cy="447.6" r="40"/>
</g>
<g id="CIRCLE-75">
	
		<ellipse transform="matrix(0.1602 -0.9871 0.9871 0.1602 302.4202 1432.5323)" class="st0" cx="993.1" cy="538.5" rx="40" ry="40"/>
</g>
<g id="CIRCLE-76">
	<circle class="st0" cx="720.3" cy="538.5" r="40"/>
</g>
<g id="CIRCLE-77">
	<circle class="st0" cx="265.8" cy="538.5" r="40"/>
</g>
<g id="CIRCLE-78">
	<circle class="st0" cx="356.7" cy="538.5" r="40"/>
</g>
<g id="CIRCLE-79">
	<circle class="st0" cx="811.3" cy="538.5" r="40"/>
</g>
<g id="CIRCLE-80">
	
		<ellipse transform="matrix(0.1602 -0.9871 0.9871 0.1602 212.6841 1508.8801)" class="st0" cx="993.1" cy="629.5" rx="40" ry="40"/>
</g>
<g id="CIRCLE-81">
	<circle class="st0" cx="720.3" cy="629.5" r="40"/>
</g>
<g id="CIRCLE-82">
	<circle class="st0" cx="265.8" cy="629.5" r="40"/>
</g>
<g id="CIRCLE-83">
	<circle class="st0" cx="356.7" cy="629.5" r="40"/>
</g>
<g id="CIRCLE-84">
	<circle class="st0" cx="811.3" cy="629.5" r="40"/>
</g>
<g id="CIRCLE-85">
	
		<ellipse transform="matrix(0.1602 -0.9871 0.9871 0.1602 122.9579 1585.2196)" class="st0" cx="993.1" cy="720.3" rx="40" ry="40"/>
</g>
<g id="CIRCLE-86">
	<circle class="st0" cx="720.3" cy="720.3" r="40"/>
</g>
<g id="CIRCLE-87">
	<circle class="st0" cx="265.8" cy="720.3" r="40"/>
</g>
<g id="CIRCLE-88">
	<circle class="st0" cx="356.7" cy="720.3" r="40"/>
</g>
<g id="CIRCLE-89">
	<circle class="st0" cx="811.3" cy="720.3" r="40"/>
</g>
<g id="CIRCLE-90">
	<ellipse transform="matrix(0.1602 -0.9871 0.9871 0.1602 33.2217 1661.5675)" class="st0" cx="993.1" cy="811.3" rx="40" ry="40"/>
</g>
<g id="CIRCLE-91">
	<circle class="st0" cx="720.3" cy="811.3" r="40"/>
</g>
<g id="CIRCLE-92">
	<circle class="st0" cx="265.8" cy="811.3" r="40"/>
</g>
<g id="CIRCLE-93">
	<circle class="st0" cx="356.7" cy="811.3" r="40"/>
</g>
<g id="CIRCLE-94">
	<circle class="st0" cx="811.3" cy="811.3" r="40"/>
</g>
<g id="CIRCLE-95">
	
		<ellipse transform="matrix(0.1602 -0.9871 0.9871 0.1602 -56.5144 1737.9153)" class="st0" cx="993.1" cy="902.2" rx="40" ry="40"/>
</g>
<g id="CIRCLE-96">
	<circle class="st0" cx="720.3" cy="902.2" r="40"/>
</g>
<g id="CIRCLE-97">
	<circle class="st0" cx="265.8" cy="902.2" r="40"/>
</g>
<g id="CIRCLE-98">
	<circle class="st0" cx="356.7" cy="902.2" r="40"/>
</g>
<g id="CIRCLE-99">
	<circle class="st0" cx="811.3" cy="902.2" r="40"/>
</g>
<g id="CIRCLE-100">
	<ellipse transform="matrix(0.7071 -0.7071 0.7071 0.7071 -411.3472 993.08)" class="st0" cx="993.1" cy="993.1" rx="40" ry="40"/>
</g>
<g id="CIRCLE-101">
	<circle class="st0" cx="720.3" cy="993.1" r="40"/>
</g>
<g id="CIRCLE-102">
	<circle class="st0" cx="265.8" cy="993.1" r="40"/>
</g>
<g id="CIRCLE-103">
	<circle class="st0" cx="356.7" cy="993.1" r="40"/>
</g>
<g id="CIRCLE-104">
	<circle class="st0" cx="811.3" cy="993.1" r="40"/>
</g>
<g id="SPLINE-101">
	<path class="st0" d="M75,653.2c-3.2,3.3-7.6,5.2-12.2,5.1h0c-2.3,0-4.6-0.4-6.7-1.2c-2-0.8-3.8-2.1-5.3-3.7c-2.1-2.3-3.6-5-4.4-7.9
		c-1.1-4-1.7-8.1-1.6-12.2c0-4.3,0.4-8.6,1.5-12.8c0.9-3.6,2.4-7,4.5-10l0,0c2-2.8,4.6-5,7.6-6.4c3.4-1.6,7.1-2.4,10.8-2.3v0
		c1.1,0,2.3,0,3.4,0.2c0.9,0.1,1.9,0.3,2.8,0.6v7h-0.3c-0.9-0.4-1.9-0.8-2.9-1c-1.3-0.3-2.7-0.5-4-0.5l0,0.1
		c-4.2-0.2-8.2,1.5-11,4.6c-2.8,3.1-4.5,7.6-5,13.6l0.1,0c1.6-1.2,3.4-2.1,5.3-2.8c1.9-0.7,4-1,6-1l0,0c1.9,0,3.7,0.2,5.6,0.6
		c1.8,0.5,3.5,1.4,5,2.6c2,1.5,3.5,3.5,4.5,5.8c1,2.6,1.5,5.4,1.5,8.2c0,2.6-0.4,5.3-1.4,7.8C78,649.5,76.7,651.5,75,653.2"/>
</g>
<g id="SPLINE-108">
	<path class="st0" d="M52.2,631.4c1.5-0.9,3.1-1.7,4.8-2.2c1.6-0.5,3.3-0.8,5-0.8h0c1.2,0,2.5,0.1,3.7,0.4c1.2,0.2,2.3,0.8,3.3,1.5
		c1.3,1,2.3,2.4,2.8,3.9c0.6,1.8,0.9,3.7,0.9,5.6h0c0,4.2-0.9,7.3-2.7,9.4c-1.8,2.1-4.4,3.2-7.1,3.1c-1.2,0-2.4-0.2-3.6-0.7
		c-1.2-0.5-2.4-1.4-3.2-2.4c-1.3-1.5-2.3-3.3-2.8-5.3c-0.8-3-1.2-6-1.1-9.1l0,0c0-0.8,0-1.4,0-1.9S52.3,632,52.2,631.4"/>
</g>
<g id="SPLINE-112">
	<path class="st0" d="M82.7,1026.4c5.9,0,10.3-2.3,13.2-6.9c2.8-4.6,4.3-11.8,4.3-21.5c0-9.5-1.4-16.6-4.2-21.3
		c-2.8-4.7-7.2-7.1-13.2-7.1v0c-5.9,0-10.3,2.3-13.2,6.8s-4.3,11.8-4.3,21.6c0,9.6,1.4,16.7,4.2,21.4
		C72.3,1024.1,76.7,1026.4,82.7,1026.4"/>
</g>
<g id="SPLINE-120">
	<path class="st0" d="M90.7,981.3c-0.6-1.7-1.6-3.1-3-4.2c-1.5-1-3.2-1.5-5-1.4c-1.8-0.1-3.5,0.4-5,1.4c-1.4,1.1-2.5,2.6-3.1,4.3h0
		c-0.8,2.3-1.3,4.6-1.5,7c-0.3,2.8-0.4,6-0.4,9.6v0c0,3.8,0.1,7,0.3,9.6c0.2,2.3,0.7,4.7,1.5,6.9v0c0.6,1.7,1.6,3.2,3,4.3
		c1.5,1.1,3.3,1.6,5.2,1.5h0c1.8,0.1,3.5-0.4,5-1.4c1.4-1.1,2.5-2.6,3.1-4.3h0c0.8-2.2,1.3-4.5,1.5-6.8c0.3-3.2,0.5-6.5,0.4-9.8l0,0
		c0-3.3-0.1-6.5-0.4-9.8C92,985.9,91.5,983.6,90.7,981.3"/>
</g>
<g id="POLYLINE-27">
	<polyline class="st0" points="643.2,34.6 643.2,41.6 642.9,41.6 	"/>
</g>
<g id="SPLINE-121">
	<path class="st0" d="M648,71.7c0,2.7-0.4,5.3-1.4,7.8c-0.8,2.2-2.1,4.2-3.7,5.9"/>
</g>
<g id="SPLINE-122">
	<path class="st0" d="M642.8,85.4c-1.5,1.6-3.4,2.9-5.5,3.8c-2.1,0.9-4.4,1.3-6.7,1.3"/>
</g>
<g id="SPLINE-123">
	<path class="st0" d="M630.7,90.5c-2.3,0-4.5-0.4-6.7-1.2c-2-0.8-3.8-2.1-5.3-3.7"/>
</g>
<g id="SPLINE-124">
	<path class="st0" d="M618.6,85.6c-2.1-2.3-3.6-5-4.4-7.9c-1.1-4-1.7-8.1-1.6-12.2"/>
</g>
<g id="SPLINE-125">
	<path class="st0" d="M612.6,65.4c0-4.3,0.4-8.6,1.5-12.8c0.9-3.6,2.4-7,4.5-10"/>
</g>
<g id="SPLINE-126">
	<path class="st0" d="M618.6,42.6c2-2.8,4.6-5,7.6-6.5c3.4-1.6,7.1-2.4,10.8-2.3"/>
</g>
<g id="SPLINE-127">
	<path class="st0" d="M637.1,33.8c1.1,0,2.3,0.1,3.4,0.2c0.9,0.1,1.9,0.3,2.8,0.6"/>
</g>
<g id="SPLINE-128">
	<path class="st0" d="M642.9,41.6c-0.9-0.4-1.9-0.8-2.9-1c-1.3-0.3-2.7-0.5-4-0.5"/>
</g>
<g id="SPLINE-129">
	<path class="st0" d="M636.1,40.1c-4.2-0.2-8.2,1.5-11,4.6c-2.8,3.1-4.5,7.6-5,13.6"/>
</g>
<g id="SPLINE-130">
	<path class="st0" d="M620.1,58.3c1.7-1.2,3.5-2.1,5.3-2.8c1.9-0.7,4-1,6-1"/>
</g>
<g id="SPLINE-131">
	<path class="st0" d="M631.5,54.5c1.9,0,3.7,0.2,5.6,0.6c1.8,0.5,3.5,1.4,5,2.6"/>
</g>
<g id="SPLINE-132">
	<path class="st0" d="M642.1,57.8c2,1.5,3.5,3.5,4.5,5.8c1,2.6,1.5,5.4,1.5,8.2"/>
</g>
<g id="SPLINE-133">
	<path class="st0" d="M620,67.1c-0.1,3.1,0.3,6.2,1.1,9.1c0.5,1.9,1.5,3.8,2.8,5.3"/>
</g>
<g id="SPLINE-134">
	<path class="st0" d="M623.9,81.5c0.9,1,2,1.9,3.2,2.4c1.1,0.5,2.4,0.7,3.6,0.7"/>
</g>
<g id="SPLINE-135">
	<path class="st0" d="M630.7,84.6c2.7,0.1,5.4-1.1,7.1-3.1c1.8-2.1,2.7-5.2,2.7-9.4"/>
</g>
<g id="SPLINE-136">
	<path class="st0" d="M640.6,72c0.1-1.9-0.3-3.8-0.9-5.6c-0.6-1.5-1.6-2.9-2.8-3.9"/>
</g>
<g id="SPLINE-137">
	<path class="st0" d="M636.8,62.5c-1-0.7-2.1-1.3-3.3-1.5c-1.2-0.3-2.5-0.4-3.7-0.4"/>
</g>
<g id="SPLINE-138">
	<path class="st0" d="M629.9,60.6c-1.7,0-3.4,0.3-5,0.8c-1.7,0.5-3.3,1.3-4.8,2.2"/>
</g>
<g id="SPLINE-139">
	<path class="st0" d="M620.1,63.6c0,0.5-0.1,1-0.1,1.6s0,1.1,0,1.9"/>
</g>
<g id="POLYLINE-28">
	<polyline class="st0" points="892.7,89.8 892.7,82.8 893.1,82.8 	"/>
</g>
<g id="SPLINE-140">
	<path class="st0" d="M888,52.7c0-2.6,0.4-5.2,1.4-7.7c0.9-2.2,2.1-4.3,3.8-6"/>
</g>
<g id="SPLINE-141">
	<path class="st0" d="M893.1,38.9c1.5-1.7,3.4-2.9,5.5-3.8c2.1-0.9,4.4-1.3,6.7-1.3"/>
</g>
<g id="SPLINE-142">
	<path class="st0" d="M905.3,33.8c2.3,0,4.6,0.4,6.8,1.3c2,0.8,3.8,2.1,5.3,3.6"/>
</g>
<g id="SPLINE-143">
	<path class="st0" d="M917.4,38.7c2,2.3,3.5,5,4.4,7.9c1.1,4,1.6,8.2,1.5,12.3"/>
</g>
<g id="SPLINE-144">
	<path class="st0" d="M923.4,58.9c0,4.3-0.5,8.6-1.5,12.8c-0.8,3.6-2.4,7-4.5,10.1"/>
</g>
<g id="SPLINE-145">
	<path class="st0" d="M917.3,81.8c-2,2.7-4.6,4.9-7.6,6.5c-3.4,1.6-7.1,2.3-10.9,2.2"/>
</g>
<g id="SPLINE-146">
	<path class="st0" d="M898.9,90.5c-1,0-2,0-3.1-0.2c-1-0.1-2.1-0.3-3.1-0.6"/>
</g>
<g id="SPLINE-147">
	<path class="st0" d="M893.1,82.8c0.9,0.5,1.9,0.8,2.9,1c1.3,0.3,2.6,0.5,3.9,0.5"/>
</g>
<g id="SPLINE-148">
	<path class="st0" d="M899.9,84.2c4.8,0,8.5-1.6,11.2-4.7c2.7-3.2,4.3-7.6,4.7-13.5"/>
</g>
<g id="SPLINE-149">
	<path class="st0" d="M915.8,66c-1.7,1.2-3.6,2.2-5.6,2.9c-1.9,0.6-3.8,0.9-5.8,0.9"/>
</g>
<g id="SPLINE-150">
	<path class="st0" d="M904.4,69.8c-1.9,0-3.7-0.2-5.5-0.7c-1.8-0.5-3.5-1.4-5-2.6"/>
</g>
<g id="SPLINE-151">
	<path class="st0" d="M893.9,66.6c-1.9-1.5-3.4-3.4-4.4-5.7c-1.1-2.6-1.6-5.4-1.5-8.2"/>
</g>
<g id="SPLINE-152">
	<path class="st0" d="M899.1,61.8c0.9,0.8,2,1.3,3.2,1.5c1.2,0.3,2.5,0.4,3.8,0.4"/>
</g>
<g id="SPLINE-153">
	<path class="st0" d="M906.1,63.7c3.5-0.1,6.8-1.1,9.8-3"/>
</g>
<g id="SPLINE-154">
	<path class="st0" d="M915.8,60.7c0-0.4,0-0.8,0.1-1.4c0-0.6,0-1.3,0-2"/>
</g>
<g id="SPLINE-155">
	<path class="st0" d="M916,57.3c0.1-3-0.3-6.1-1-9c-0.5-2-1.5-3.8-2.8-5.4"/>
</g>
<g id="SPLINE-156">
	<path class="st0" d="M912.1,42.9c-0.9-1-2-1.9-3.2-2.4c-1.1-0.5-2.4-0.7-3.6-0.7"/>
</g>
<g id="SPLINE-157">
	<path class="st0" d="M905.3,39.8c-2.8-0.1-5.4,1.1-7.2,3.2c-1.8,2.2-2.7,5.3-2.7,9.3"/>
</g>
<g id="SPLINE-158">
	<path class="st0" d="M895.4,52.3c-0.1,1.9,0.2,3.9,0.9,5.7c0.6,1.5,1.6,2.8,2.8,3.8"/>
</g>
<g id="POLYLINE-29">
	<polyline class="st0" points="976.6,34.7 982.2,34.7 982.2,83.8 991.9,83.8 991.9,89.4 965.3,89.4 965.3,83.8 975.2,83.8 
		975.2,47.3 965.3,47.3 965.3,42.3 	"/>
</g>
<g id="SPLINE-159">
	<path class="st0" d="M1001,62.2c0-9.8,1.4-17,4.3-21.6s7.2-6.8,13.2-6.8"/>
</g>
<g id="SPLINE-160">
	<path class="st0" d="M1018.5,33.8c6,0,10.4,2.4,13.2,7.1s4.2,11.8,4.2,21.3"/>
</g>
<g id="SPLINE-161">
	<path class="st0" d="M1035.9,62.2c0,9.8-1.4,17-4.3,21.5s-7.2,6.9-13.2,6.9"/>
</g>
<g id="SPLINE-162">
	<path class="st0" d="M1018.5,90.6c-6,0-10.4-2.3-13.2-7c-2.8-4.7-4.2-11.8-4.3-21.4"/>
</g>
<g id="SPLINE-163">
	<path class="st0" d="M965.3,42.3c3.7,0,6.5-0.5,8.3-1.6c1.8-1.1,2.8-3.1,3-6"/>
</g>
<g id="SPLINE-164">
	<path class="st0" d="M1010.3,78.6c0.6,1.7,1.6,3.2,3,4.3c1.5,1.1,3.3,1.6,5.2,1.5"/>
</g>
<g id="SPLINE-165">
	<path class="st0" d="M1018.5,84.5c1.8,0.1,3.5-0.4,5-1.4c1.4-1.1,2.5-2.6,3.1-4.3"/>
</g>
<g id="SPLINE-166">
	<path class="st0" d="M1026.6,78.8c0.8-2.2,1.3-4.5,1.5-6.8c0.3-3.2,0.5-6.5,0.4-9.8"/>
</g>
<g id="SPLINE-167">
	<path class="st0" d="M1028.5,62.2c0-3.3-0.1-6.5-0.4-9.8c-0.2-2.4-0.7-4.7-1.6-6.9"/>
</g>
<g id="SPLINE-168">
	<path class="st0" d="M1026.5,45.5c-0.6-1.7-1.6-3.1-3-4.2c-1.5-1-3.2-1.5-5-1.4"/>
</g>
<g id="SPLINE-169">
	<path class="st0" d="M1018.5,39.8c-1.8-0.1-3.5,0.4-5,1.4c-1.4,1.1-2.5,2.6-3.1,4.3"/>
</g>
<g id="SPLINE-170">
	<path class="st0" d="M1010.4,45.6c-0.8,2.3-1.3,4.6-1.5,7c-0.3,2.8-0.4,6-0.4,9.6"/>
</g>
<g id="SPLINE-171">
	<path class="st0" d="M1008.5,62.2c0,3.8,0.1,7,0.3,9.6c0.2,2.3,0.7,4.6,1.5,6.8"/>
</g>
<g id="SPLINE-172">
	<path class="st0" d="M797.5,48c-0.1-3.9,1.6-7.7,4.6-10.3c3.3-2.8,7.5-4.3,11.8-4.1"/>
</g>
<g id="SPLINE-173">
	<path class="st0" d="M814,33.7c5,0,8.9,1.3,11.9,3.9c2.9,2.5,4.6,6.2,4.5,10"/>
</g>
<g id="SPLINE-174">
	<path class="st0" d="M830.4,47.5c0,2.6-0.8,5.1-2.1,7.2c-1.5,2.4-3.6,4.4-6.2,5.6"/>
</g>
<g id="LINE-3">
	<line class="st0" x1="822.1" y1="60.4" x2="822.1" y2="60.6"/>
</g>
<g id="SPLINE-175">
	<path class="st0" d="M822.1,60.6c2.8,1.2,5.3,3,7.2,5.4c1.7,2.4,2.6,5.3,2.5,8.2"/>
</g>
<g id="SPLINE-176">
	<path class="st0" d="M831.8,74.2c0.1,4.5-1.8,8.8-5.1,11.8c-3.5,3.2-8,4.8-12.7,4.7"/>
</g>
<g id="SPLINE-177">
	<path class="st0" d="M814,90.7c-2.5,0-5-0.4-7.4-1.2c-2.1-0.7-4.1-1.9-5.7-3.5"/>
</g>
<g id="SPLINE-178">
	<path class="st0" d="M800.9,86c-1.5-1.5-2.7-3.2-3.5-5.2c-0.8-2-1.2-4.2-1.2-6.4"/>
</g>
<g id="SPLINE-179">
	<path class="st0" d="M796.2,74.4c0-2.9,0.8-5.7,2.4-8.1c1.7-2.6,4.1-4.6,6.9-5.9"/>
</g>
<g id="LINE-4">
	<line class="st0" x1="805.5" y1="60.3" x2="805.5" y2="60.1"/>
</g>
<g id="SPLINE-180">
	<path class="st0" d="M805.5,60.1c-2.3-1.3-4.4-3-6-5.1c-1.3-2.1-2-4.5-1.9-7"/>
</g>
<g id="SPLINE-181">
	<path class="st0" d="M814.1,85.2c2.7,0.1,5.4-0.9,7.4-2.8c1.9-2,2.9-4.7,2.8-7.5"/>
</g>
<g id="SPLINE-182">
	<path class="st0" d="M824.2,75c0.1-1.9-0.4-3.7-1.3-5.3c-1.4-1.7-3.1-3.1-5.1-4"/>
</g>
<g id="SPLINE-183">
	<path class="st0" d="M817.8,65.6c-1.1-0.6-2.2-1.1-3.3-1.5c-1.4-0.5-3-1.2-4.7-1.9"/>
</g>
<g id="SPLINE-184">
	<path class="st0" d="M809.8,62.2c-4,2.5-6.3,7-6.2,11.7"/>
</g>
<g id="SPLINE-185">
	<path class="st0" d="M803.6,73.8c-0.1,3,1,5.9,3,8.2c1.9,2.1,4.6,3.3,7.5,3.2"/>
</g>
<g id="SPLINE-186">
	<path class="st0" d="M817.8,58.5c1.8-1.3,3.3-3,4.3-5c0.8-1.9,1.2-3.9,1.1-5.9"/>
</g>
<g id="SPLINE-187">
	<path class="st0" d="M823.2,47.6c0.1-2.3-0.8-4.5-2.5-6.1c-1.8-1.7-4.3-2.6-6.8-2.5"/>
</g>
<g id="SPLINE-188">
	<path class="st0" d="M814,39c-2.4-0.1-4.7,0.7-6.5,2.2c-1.7,1.5-2.6,3.7-2.5,6"/>
</g>
<g id="SPLINE-189">
	<path class="st0" d="M804.9,47.2c-0.1,1.6,0.4,3.2,1.3,4.6c1,1.4,2.4,2.6,3.9,3.4"/>
</g>
<g id="SPLINE-190">
	<path class="st0" d="M810.1,55.1c0.7,0.4,1.9,1,3.5,1.7c1.4,0.6,2.8,1.2,4.2,1.7"/>
</g>
<g id="SPLINE-202">
	<path class="st0" d="M56.1,928c-1.3,0-2.6-0.2-3.9-0.5c-1-0.2-2-0.5-2.9-1h-0.4v7v0c1,0.3,2,0.5,3.1,0.6c1.1,0.1,2.1,0.2,3.1,0.2h0
		c3.7,0.1,7.5-0.7,10.9-2.2c3-1.5,5.6-3.7,7.5-6.5h0c2.1-3,3.7-6.5,4.5-10.1c1-4.2,1.6-8.5,1.5-12.8c0.1-4.2-0.4-8.3-1.5-12.3
		c-0.9-2.9-2.3-5.6-4.4-7.9c-1.5-1.6-3.3-2.8-5.3-3.7c-2.2-0.9-4.5-1.3-6.8-1.2l0,0c-2.3,0-4.5,0.5-6.7,1.3c-2.1,0.8-4,2.1-5.5,3.8
		l0,0c-1.6,1.7-2.9,3.8-3.8,6c-0.9,2.5-1.4,5.1-1.4,7.7c-0.1,2.8,0.4,5.6,1.5,8.2c1,2.2,2.5,4.2,4.4,5.7h0c1.5,1.2,3.2,2,5,2.6
		c1.8,0.5,3.7,0.7,5.5,0.7h0c2,0,3.9-0.3,5.8-0.9c2-0.7,3.9-1.7,5.6-2.9c-0.4,5.8-2,10.3-4.7,13.5S60.8,928,56.1,928L56.1,928z"/>
</g>
<g id="SPLINE-209">
	<path class="st0" d="M72.2,901.1c0.1-3-0.3-6.1-1-9c-0.5-2-1.5-3.8-2.8-5.4l0,0c-0.9-1-2-1.9-3.2-2.4c-1.1-0.5-2.4-0.7-3.6-0.7
		c-2.8-0.1-5.4,1.1-7.2,3.2c-1.8,2.2-2.7,5.3-2.7,9.3c-0.1,1.9,0.2,3.9,0.9,5.7c0.6,1.5,1.6,2.8,2.8,3.8c0.9,0.8,2,1.3,3.2,1.5
		c1.2,0.3,2.5,0.4,3.8,0.4c3.5-0.1,6.8-1.1,9.8-3l0,0c0-0.3,0.1-0.8,0.1-1.4S72.1,901.8,72.2,901.1L72.2,901.1z"/>
</g>
<g id="SPLINE-210">
	<path class="st0" d="M62.2,842.5c-2.5,0-5-0.4-7.4-1.2c-2.1-0.7-4.1-1.9-5.7-3.5"/>
</g>
<g id="SPLINE-211">
	<path class="st0" d="M49.1,837.8c-1.5-1.5-2.7-3.2-3.5-5.2c-0.8-2-1.2-4.2-1.2-6.4"/>
</g>
<g id="SPLINE-212">
	<path class="st0" d="M44.4,826.2c0-2.9,0.8-5.7,2.4-8.1c1.7-2.6,4.1-4.6,6.9-5.9"/>
</g>
<g id="LINE-5">
	<line class="st0" x1="53.6" y1="812.1" x2="53.6" y2="811.9"/>
</g>
<g id="SPLINE-213">
	<path class="st0" d="M53.6,811.9c-2.3-1.3-4.4-3-6-5.1c-1.3-2.1-2-4.5-1.9-6.9"/>
</g>
<g id="SPLINE-214">
	<path class="st0" d="M45.7,799.8c-0.1-3.9,1.6-7.7,4.6-10.3c3.3-2.8,7.5-4.3,11.8-4.1"/>
</g>
<g id="SPLINE-215">
	<path class="st0" d="M62.2,785.5c4.9,0,8.9,1.3,11.9,3.9c2.9,2.5,4.6,6.2,4.5,10"/>
</g>
<g id="SPLINE-216">
	<path class="st0" d="M78.6,799.4c0,2.6-0.8,5.1-2.1,7.2c-1.5,2.4-3.6,4.4-6.2,5.6"/>
</g>
<g id="LINE-6">
	<line class="st0" x1="70.3" y1="812.2" x2="70.3" y2="812.4"/>
</g>
<g id="SPLINE-217">
	<path class="st0" d="M70.3,812.4c2.8,1.2,5.3,3,7.2,5.4c1.7,2.4,2.6,5.3,2.4,8.2"/>
</g>
<g id="SPLINE-218">
	<path class="st0" d="M79.9,826.1c0.1,4.5-1.8,8.7-5.1,11.7c-3.4,3.2-8,4.9-12.7,4.7"/>
</g>
<g id="SPLINE-223">
	<path class="st0" d="M53.1,799c-0.1,1.6,0.4,3.2,1.3,4.6c1,1.4,2.4,2.6,3.9,3.4c0.7,0.4,1.9,1,3.5,1.7c1.4,0.6,2.8,1.2,4.3,1.7
		c1.8-1.3,3.3-3,4.3-5c0.8-1.9,1.2-3.9,1.1-5.9l0,0c0.1-2.3-0.8-4.5-2.4-6.1c-1.8-1.7-4.3-2.6-6.8-2.5h0c-2.4-0.1-4.7,0.7-6.5,2.2
		C53.9,794.6,52.9,796.8,53.1,799"/>
</g>
<g id="SPLINE-224">
	<path class="st0" d="M51.8,825.7c-0.1,3,1,5.9,3,8.2c1.9,2.1,4.6,3.3,7.5,3.2"/>
</g>
<g id="SPLINE-225">
	<path class="st0" d="M62.3,837.1c2.7,0.1,5.4-0.9,7.4-2.8c1.9-2,2.9-4.7,2.8-7.5"/>
</g>
<g id="SPLINE-226">
	<path class="st0" d="M72.4,826.8c0.1-1.9-0.4-3.7-1.3-5.3c-1.4-1.7-3.1-3.1-5.1-4"/>
</g>
<g id="SPLINE-227">
	<path class="st0" d="M66,817.4c-1.1-0.6-2.2-1.1-3.3-1.5c-1.4-0.5-2.9-1.2-4.7-1.9"/>
</g>
<g id="SPLINE-228">
	<path class="st0" d="M58,814c-4,2.5-6.4,7-6.2,11.7"/>
</g>
</svg>
