<svg id="_0" data-name="0" xmlns="http://www.w3.org/2000/svg" viewBox="0 0 595.71 595.71"><defs><style>.cls-1{fill:none;stroke:#000;stroke-linecap:round;stroke-linejoin:round;stroke-width:0.71px;}</style></defs><g id="POLYLINE"><path class="cls-1" d="M6.77,224.13H.35V371.58H6.77V378H.35V587.34a8,8,0,0,0,8,8h579a8,8,0,0,0,8-8V8.37a8,8,0,0,0-8-8H8.37a8,8,0,0,0-8,8V217.72H6.77Z"/></g><g id="POLYLINE-2" data-name="POLYLINE"><polyline class="cls-1" points="22.63 534.84 25.74 534.84 25.74 561.92 31.07 561.92 31.07 564.99 16.41 564.99 16.41 561.92 21.87 561.92 21.87 541.78 16.41 541.78 16.41 539.03"/></g><g id="POLYLINE-3" data-name="POLYLINE"><polygon class="cls-1" points="14.49 11.86 23.79 11.86 34.7 28.66 45.86 11.86 54.48 11.86 38.94 34.12 54.48 56.96 45.17 56.96 34.22 40.01 22.97 56.96 14.35 56.96 29.98 34.61 14.49 11.86"/></g><g id="POLYLINE-4" data-name="POLYLINE"><polyline class="cls-1" points="93.3 19.34 96.42 19.34 96.42 46.42 101.75 46.42 101.75 49.49 87.09 49.49 87.09 46.42 92.55 46.42 92.55 26.28 87.09 26.28 87.09 23.53"/></g><g id="POLYLINE-5" data-name="POLYLINE"><polyline class="cls-1" points="136.27 25.16 136.05 25.16 136.05 20.87"/></g><g id="POLYLINE-6" data-name="POLYLINE"><polyline class="cls-1" points="139.19 46.27 153.94 46.27 153.94 49.75 135.41 49.75 135.41 45.49"/></g><g id="POLYLINE-7" data-name="POLYLINE"><polyline class="cls-1" points="186.93 24.87 186.68 24.87 186.68 20.6"/></g><g id="POLYLINE-8" data-name="POLYLINE"><polyline class="cls-1" points="185.85 48.22 185.85 43.96 186.15 43.96"/></g><g id="POLYLINE-9" data-name="POLYLINE"><polyline class="cls-1" points="193.7 34.8 191.99 34.8 191.99 31.46 193.33 31.46"/></g><g id="POLYLINE-10" data-name="POLYLINE"><polygon class="cls-1" points="235.4 39.11 235.4 34.87 248.84 19.39 252.54 19.39 252.54 35.87 256.12 35.87 256.12 39.11 252.54 39.11 252.54 49.44 248.67 49.44 248.67 39.11 235.4 39.11"/></g><g id="POLYLINE-11" data-name="POLYLINE"><polyline class="cls-1" points="289.03 34.56 289.03 19.07 305.51 19.07 305.51 22.6 292.9 22.6 292.9 30.61"/></g><g id="POLYLINE-12" data-name="POLYLINE"><polyline class="cls-1" points="287.79 48.05 287.79 43.79 288.08 43.79"/></g><g id="POLYLINE-13" data-name="POLYLINE"><polygon class="cls-1" points="407.71 23.89 394.71 49.44 390.42 49.44 404.16 22.92 388.64 22.92 388.64 19.39 407.71 19.39 407.71 23.89"/></g><g id="POLYLINE-14" data-name="POLYLINE"><polyline class="cls-1" points="538.19 19.28 541.31 19.28 541.31 46.36 546.64 46.36 546.64 49.42 531.98 49.42 531.98 46.36 537.44 46.36 537.44 26.22 531.98 26.22 531.98 23.46"/></g><g id="POLYLINE-15" data-name="POLYLINE"><polyline class="cls-1" points="33.9 78.74 37.02 78.74 37.02 105.82 42.35 105.82 42.35 108.89 27.69 108.89 27.69 105.82 33.15 105.82 33.15 85.68 27.69 85.68 27.69 82.93"/></g><g id="POLYLINE-16" data-name="POLYLINE"><polyline class="cls-1" points="29.1 156.36 43.86 156.36 43.86 159.84 25.33 159.84 25.33 155.58"/></g><g id="POLYLINE-17" data-name="POLYLINE"><polyline class="cls-1" points="26.18 135.24 25.96 135.24 25.96 130.96"/></g><g id="POLYLINE-18" data-name="POLYLINE"><polyline class="cls-1" points="25.09 208.99 25.09 204.73 25.38 204.73"/></g><g id="POLYLINE-19" data-name="POLYLINE"><polyline class="cls-1" points="32.93 195.57 31.22 195.57 31.22 192.24 32.56 192.24"/></g><g id="POLYLINE-20" data-name="POLYLINE"><polyline class="cls-1" points="26.16 185.64 25.91 185.64 25.91 181.37"/></g><g id="POLYLINE-21" data-name="POLYLINE"><polygon class="cls-1" points="44.66 250.57 41.08 250.57 41.08 260.89 37.21 260.89 37.21 250.57 23.94 250.57 23.94 246.33 37.38 230.84 41.08 230.84 41.08 247.33 44.66 247.33 44.66 250.57"/></g><g id="POLYLINE-22" data-name="POLYLINE"><polyline class="cls-1" points="25.64 310.19 25.64 305.93 25.94 305.93"/></g><g id="POLYLINE-23" data-name="POLYLINE"><polyline class="cls-1" points="26.89 296.7 26.89 281.21 43.37 281.21 43.37 284.74 30.76 284.74 30.76 292.75"/></g><g id="POLYLINE-24" data-name="POLYLINE"><polygon class="cls-1" points="40.65 386.43 25.13 386.43 25.13 382.9 44.2 382.9 44.2 387.4 31.2 412.95 26.91 412.95 40.65 386.43"/></g><g id="POLYLINE-25" data-name="POLYLINE"><polygon class="cls-1" points="27.11 247.33 37.21 247.33 37.21 235.59 27.11 247.33"/></g><g id="POLYLINE-26" data-name="POLYLINE"><polygon class="cls-1" points="248.67 35.87 248.67 24.14 238.56 35.87 248.67 35.87"/></g><g id="SPLINE"><path class="cls-1" d="M16.42,539a9.17,9.17,0,0,0,4.55-.87,4,4,0,0,0,1.66-3.32"/></g><g id="SPLINE-2" data-name="SPLINE"><path class="cls-1" d="M87.09,23.53a9.15,9.15,0,0,0,4.55-.88,3.92,3.92,0,0,0,1.66-3.31"/></g><g id="SPLINE-3" data-name="SPLINE"><path class="cls-1" d="M136.05,20.87a19.39,19.39,0,0,1,3.47-1.2,16.2,16.2,0,0,1,4.22-.6"/></g><g id="SPLINE-4" data-name="SPLINE"><path class="cls-1" d="M143.74,19.07a9.23,9.23,0,0,1,6.59,2.23,7.86,7.86,0,0,1,2.37,6"/></g><g id="SPLINE-5" data-name="SPLINE"><path class="cls-1" d="M152.7,27.33a12,12,0,0,1-.41,3.26,11.82,11.82,0,0,1-1.15,2.75"/></g><g id="SPLINE-6" data-name="SPLINE"><path class="cls-1" d="M151.14,33.34A16.64,16.64,0,0,1,149.35,36c-.7.86-1.44,1.7-2.22,2.53"/></g><g id="SPLINE-7" data-name="SPLINE"><path class="cls-1" d="M147.13,38.48q-1.9,2.07-4.23,4.28t-3.71,3.51"/></g><g id="SPLINE-8" data-name="SPLINE"><path class="cls-1" d="M135.41,45.49q2-1.87,3.78-3.61c1.18-1.17,2.34-2.37,3.48-3.62"/></g><g id="SPLINE-9" data-name="SPLINE"><path class="cls-1" d="M142.67,38.26a36.16,36.16,0,0,0,4.69-6,9.6,9.6,0,0,0,1.25-4.68"/></g><g id="SPLINE-10" data-name="SPLINE"><path class="cls-1" d="M148.61,27.54a5.78,5.78,0,0,0-.39-2.21,4.1,4.1,0,0,0-1.09-1.56"/></g><g id="SPLINE-11" data-name="SPLINE"><path class="cls-1" d="M147.13,23.77a4.66,4.66,0,0,0-1.63-.91,6.34,6.34,0,0,0-2.05-.31"/></g><g id="SPLINE-12" data-name="SPLINE"><path class="cls-1" d="M143.45,22.55a9.08,9.08,0,0,0-2.17.27,15,15,0,0,0-2.09.68"/></g><g id="SPLINE-13" data-name="SPLINE"><path class="cls-1" d="M139.19,23.5a11.58,11.58,0,0,0-1.65.83c-.52.32-.95.6-1.27.83"/></g><g id="SPLINE-14" data-name="SPLINE"><path class="cls-1" d="M194.21,22.24a9,9,0,0,0-2.18.26,16.51,16.51,0,0,0-2.13.69"/></g><g id="SPLINE-15" data-name="SPLINE"><path class="cls-1" d="M189.9,23.19a12.8,12.8,0,0,0-1.7.85c-.47.29-.9.57-1.27.83"/></g><g id="SPLINE-16" data-name="SPLINE"><path class="cls-1" d="M186.68,20.6a16.22,16.22,0,0,1,3.57-1.27,17,17,0,0,1,4.27-.58"/></g><g id="SPLINE-17" data-name="SPLINE"><path class="cls-1" d="M194.52,18.75a13.45,13.45,0,0,1,3.57.42,8.47,8.47,0,0,1,2.77,1.29"/></g><g id="SPLINE-18" data-name="SPLINE"><path class="cls-1" d="M200.86,20.46a6.31,6.31,0,0,1,2,2.32,7.15,7.15,0,0,1,.68,3.23"/></g><g id="SPLINE-19" data-name="SPLINE"><path class="cls-1" d="M203.53,26a6.42,6.42,0,0,1-1.63,4.36A7,7,0,0,1,198,32.73"/></g><g id="LINE"><line class="cls-1" x1="197.98" y1="32.73" x2="197.98" y2="33.02"/></g><g id="SPLINE-20" data-name="SPLINE"><path class="cls-1" d="M198,33a11.26,11.26,0,0,1,2,.64A6.35,6.35,0,0,1,202,35"/></g><g id="SPLINE-21" data-name="SPLINE"><path class="cls-1" d="M202,35a6.36,6.36,0,0,1,1.51,2.22,8.44,8.44,0,0,1,.59,3.33"/></g><g id="SPLINE-22" data-name="SPLINE"><path class="cls-1" d="M204.12,40.52a9.73,9.73,0,0,1-.7,3.74,9.14,9.14,0,0,1-2,3"/></g><g id="SPLINE-23" data-name="SPLINE"><path class="cls-1" d="M201.46,47.29a8.48,8.48,0,0,1-3.17,2.07,11.91,11.91,0,0,1-4.23.71"/></g><g id="SPLINE-24" data-name="SPLINE"><path class="cls-1" d="M194.06,50.07a18.38,18.38,0,0,1-4.48-.55,18.08,18.08,0,0,1-3.73-1.3"/></g><g id="SPLINE-25" data-name="SPLINE"><path class="cls-1" d="M186.15,44a15.89,15.89,0,0,0,3.41,1.78,11.63,11.63,0,0,0,4.26.85"/></g><g id="SPLINE-26" data-name="SPLINE"><path class="cls-1" d="M193.82,46.59a8.23,8.23,0,0,0,2.48-.39,4.62,4.62,0,0,0,2.07-1.29"/></g><g id="SPLINE-27" data-name="SPLINE"><path class="cls-1" d="M198.37,44.91a6.43,6.43,0,0,0,1.23-2,7.21,7.21,0,0,0,.43-2.7"/></g><g id="SPLINE-28" data-name="SPLINE"><path class="cls-1" d="M200,40.23a6.54,6.54,0,0,0-.48-2.69,4,4,0,0,0-1.32-1.67"/></g><g id="SPLINE-29" data-name="SPLINE"><path class="cls-1" d="M198.23,35.87a5.35,5.35,0,0,0-2-.84,13.18,13.18,0,0,0-2.52-.23"/></g><g id="SPLINE-30" data-name="SPLINE"><path class="cls-1" d="M193.33,31.46a7.13,7.13,0,0,0,4.41-1.29,4.4,4.4,0,0,0,1.7-3.75"/></g><g id="SPLINE-31" data-name="SPLINE"><path class="cls-1" d="M199.44,26.42a4.14,4.14,0,0,0-.43-2,3.82,3.82,0,0,0-1.15-1.3"/></g><g id="SPLINE-32" data-name="SPLINE"><path class="cls-1" d="M197.86,23.16a4.86,4.86,0,0,0-1.68-.72,8.89,8.89,0,0,0-2-.2"/></g><g id="SPLINE-33" data-name="SPLINE"><path class="cls-1" d="M299.89,35.22a4.91,4.91,0,0,0-2.12-1.08,11.6,11.6,0,0,0-2.8-.31"/></g><g id="SPLINE-34" data-name="SPLINE"><path class="cls-1" d="M295,33.83a21.57,21.57,0,0,0-3.3.25q-1.65.26-2.64.48"/></g><g id="SPLINE-35" data-name="SPLINE"><path class="cls-1" d="M292.9,30.61c.49-.06,1-.11,1.44-.13s.9,0,1.29,0"/></g><g id="SPLINE-36" data-name="SPLINE"><path class="cls-1" d="M295.63,30.44a17.41,17.41,0,0,1,3.91.38,8,8,0,0,1,3,1.5"/></g><g id="SPLINE-37" data-name="SPLINE"><path class="cls-1" d="M302.59,32.32a7.5,7.5,0,0,1,2.29,2.82,10.42,10.42,0,0,1,.8,4.43"/></g><g id="SPLINE-38" data-name="SPLINE"><path class="cls-1" d="M305.68,39.57a11.39,11.39,0,0,1-.69,4,9.64,9.64,0,0,1-2,3.22"/></g><g id="SPLINE-39" data-name="SPLINE"><path class="cls-1" d="M303,46.81A9,9,0,0,1,299.88,49a10.81,10.81,0,0,1-4.23.79"/></g><g id="SPLINE-40" data-name="SPLINE"><path class="cls-1" d="M295.65,49.75a18.94,18.94,0,0,1-4.24-.47,16.83,16.83,0,0,1-3.62-1.23"/></g><g id="SPLINE-41" data-name="SPLINE"><path class="cls-1" d="M288.08,43.79a12.17,12.17,0,0,0,1.32.78,19.43,19.43,0,0,0,1.92.82"/></g><g id="SPLINE-42" data-name="SPLINE"><path class="cls-1" d="M291.32,45.39a19.69,19.69,0,0,0,2.18.65,10,10,0,0,0,2.22.23"/></g><g id="SPLINE-43" data-name="SPLINE"><path class="cls-1" d="M295.72,46.27a6.64,6.64,0,0,0,2.37-.44,4.84,4.84,0,0,0,2-1.39"/></g><g id="SPLINE-44" data-name="SPLINE"><path class="cls-1" d="M300.06,44.44a6.22,6.22,0,0,0,1.14-2.09,9.06,9.06,0,0,0,.39-2.8"/></g><g id="SPLINE-45" data-name="SPLINE"><path class="cls-1" d="M301.59,39.55a6.59,6.59,0,0,0-.44-2.63,4.38,4.38,0,0,0-1.26-1.7"/></g><g id="SPLINE-46" data-name="SPLINE"><path class="cls-1" d="M532,23.47a9.22,9.22,0,0,0,4.56-.88,4,4,0,0,0,1.65-3.31"/></g><g id="SPLINE-47" data-name="SPLINE"><path class="cls-1" d="M27.69,82.93a9.15,9.15,0,0,0,4.55-.88,3.93,3.93,0,0,0,1.66-3.31"/></g><g id="SPLINE-48" data-name="SPLINE"><path class="cls-1" d="M25.33,155.58q2-1.87,3.77-3.62t3.49-3.62"/></g><g id="SPLINE-49" data-name="SPLINE"><path class="cls-1" d="M32.59,148.34a35.58,35.58,0,0,0,4.68-6,9.44,9.44,0,0,0,1.26-4.67"/></g><g id="SPLINE-50" data-name="SPLINE"><path class="cls-1" d="M38.53,137.63a5.87,5.87,0,0,0-.39-2.22,4.12,4.12,0,0,0-1.1-1.56"/></g><g id="SPLINE-51" data-name="SPLINE"><path class="cls-1" d="M37,133.85a4.73,4.73,0,0,0-1.63-.91,6.63,6.63,0,0,0-2-.3"/></g><g id="SPLINE-52" data-name="SPLINE"><path class="cls-1" d="M33.36,132.64a9.51,9.51,0,0,0-2.16.26,14.34,14.34,0,0,0-2.1.69"/></g><g id="SPLINE-53" data-name="SPLINE"><path class="cls-1" d="M29.1,133.59a10.46,10.46,0,0,0-1.64.82c-.53.33-.95.61-1.28.83"/></g><g id="SPLINE-54" data-name="SPLINE"><path class="cls-1" d="M26,131a19.88,19.88,0,0,1,3.47-1.21,16.33,16.33,0,0,1,4.23-.6"/></g><g id="SPLINE-55" data-name="SPLINE"><path class="cls-1" d="M33.66,129.15a9.25,9.25,0,0,1,6.58,2.23,7.86,7.86,0,0,1,2.38,6"/></g><g id="SPLINE-56" data-name="SPLINE"><path class="cls-1" d="M42.62,137.41a11.92,11.92,0,0,1-.42,3.26,11.62,11.62,0,0,1-1.14,2.76"/></g><g id="SPLINE-57" data-name="SPLINE"><path class="cls-1" d="M41.06,143.43a17.79,17.79,0,0,1-1.79,2.6c-.71.86-1.45,1.71-2.23,2.53"/></g><g id="SPLINE-58" data-name="SPLINE"><path class="cls-1" d="M37,148.56q-1.89,2.07-4.22,4.29t-3.72,3.51"/></g><g id="SPLINE-59" data-name="SPLINE"><path class="cls-1" d="M33.29,210.84a18.38,18.38,0,0,1-4.48-.55,18.08,18.08,0,0,1-3.73-1.3"/></g><g id="SPLINE-60" data-name="SPLINE"><path class="cls-1" d="M25.38,204.73a15.89,15.89,0,0,0,3.41,1.78,11.59,11.59,0,0,0,4.26.85"/></g><g id="SPLINE-61" data-name="SPLINE"><path class="cls-1" d="M33.05,207.36a8.23,8.23,0,0,0,2.48-.39,4.62,4.62,0,0,0,2.07-1.29"/></g><g id="SPLINE-62" data-name="SPLINE"><path class="cls-1" d="M37.6,205.68a6.5,6.5,0,0,0,1.23-2,7.3,7.3,0,0,0,.43-2.71"/></g><g id="SPLINE-63" data-name="SPLINE"><path class="cls-1" d="M39.26,201a6.54,6.54,0,0,0-.48-2.69,4,4,0,0,0-1.32-1.67"/></g><g id="SPLINE-64" data-name="SPLINE"><path class="cls-1" d="M37.46,196.64a5.35,5.35,0,0,0-2-.84,13.18,13.18,0,0,0-2.52-.23"/></g><g id="SPLINE-65" data-name="SPLINE"><path class="cls-1" d="M32.56,192.24a7.13,7.13,0,0,0,4.41-1.3,4.43,4.43,0,0,0,1.7-3.75"/></g><g id="SPLINE-66" data-name="SPLINE"><path class="cls-1" d="M38.67,187.19a4,4,0,0,0-.44-2,3.69,3.69,0,0,0-1.14-1.3"/></g><g id="SPLINE-67" data-name="SPLINE"><path class="cls-1" d="M37.09,183.93a4.86,4.86,0,0,0-1.68-.72,8.89,8.89,0,0,0-2-.2"/></g><g id="SPLINE-68" data-name="SPLINE"><path class="cls-1" d="M33.44,183a9.48,9.48,0,0,0-2.18.26,16.51,16.51,0,0,0-2.13.69"/></g><g id="SPLINE-69" data-name="SPLINE"><path class="cls-1" d="M29.13,184a12.8,12.8,0,0,0-1.7.85c-.47.29-.9.57-1.27.83"/></g><g id="SPLINE-70" data-name="SPLINE"><path class="cls-1" d="M25.91,181.37a16.22,16.22,0,0,1,3.57-1.27,17,17,0,0,1,4.27-.58"/></g><g id="SPLINE-71" data-name="SPLINE"><path class="cls-1" d="M33.75,179.52a13.45,13.45,0,0,1,3.57.42,8.47,8.47,0,0,1,2.77,1.29"/></g><g id="SPLINE-72" data-name="SPLINE"><path class="cls-1" d="M40.09,181.23a6.31,6.31,0,0,1,2,2.32,7.15,7.15,0,0,1,.68,3.23"/></g><g id="SPLINE-73" data-name="SPLINE"><path class="cls-1" d="M42.76,186.78a6.42,6.42,0,0,1-1.63,4.36,7,7,0,0,1-3.92,2.36"/></g><g id="LINE-2" data-name="LINE"><line class="cls-1" x1="37.21" y1="193.5" x2="37.21" y2="193.79"/></g><g id="SPLINE-74" data-name="SPLINE"><path class="cls-1" d="M37.21,193.79a11.26,11.26,0,0,1,2,.64,6.35,6.35,0,0,1,2,1.31"/></g><g id="SPLINE-75" data-name="SPLINE"><path class="cls-1" d="M41.25,195.74A6.36,6.36,0,0,1,42.76,198a8.44,8.44,0,0,1,.59,3.33"/></g><g id="SPLINE-76" data-name="SPLINE"><path class="cls-1" d="M43.35,201.29a9.73,9.73,0,0,1-.7,3.74,9.14,9.14,0,0,1-2,3"/></g><g id="SPLINE-77" data-name="SPLINE"><path class="cls-1" d="M40.69,208.06a8.48,8.48,0,0,1-3.17,2.07,11.91,11.91,0,0,1-4.23.71"/></g><g id="SPLINE-78" data-name="SPLINE"><path class="cls-1" d="M43.54,301.71a11.39,11.39,0,0,1-.69,4,9.64,9.64,0,0,1-2,3.22"/></g><g id="SPLINE-79" data-name="SPLINE"><path class="cls-1" d="M40.89,309a9,9,0,0,1-3.15,2.15,10.81,10.81,0,0,1-4.23.79"/></g><g id="SPLINE-80" data-name="SPLINE"><path class="cls-1" d="M33.51,311.89a18.94,18.94,0,0,1-4.24-.47,17.12,17.12,0,0,1-3.63-1.23"/></g><g id="SPLINE-81" data-name="SPLINE"><path class="cls-1" d="M25.94,305.93a12.17,12.17,0,0,0,1.32.78,17.31,17.31,0,0,0,1.92.82"/></g><g id="SPLINE-82" data-name="SPLINE"><path class="cls-1" d="M29.18,307.53a19.69,19.69,0,0,0,2.18.65,10,10,0,0,0,2.22.23"/></g><g id="SPLINE-83" data-name="SPLINE"><path class="cls-1" d="M33.58,308.41A6.43,6.43,0,0,0,36,308a4.91,4.91,0,0,0,2-1.38"/></g><g id="SPLINE-84" data-name="SPLINE"><path class="cls-1" d="M37.92,306.59a6.37,6.37,0,0,0,1.14-2.1,9,9,0,0,0,.39-2.8"/></g><g id="SPLINE-85" data-name="SPLINE"><path class="cls-1" d="M39.45,301.69a6.59,6.59,0,0,0-.44-2.63,4.38,4.38,0,0,0-1.26-1.7"/></g><g id="SPLINE-86" data-name="SPLINE"><path class="cls-1" d="M37.75,297.36a5,5,0,0,0-2.12-1.08,11.66,11.66,0,0,0-2.8-.31"/></g><g id="SPLINE-87" data-name="SPLINE"><path class="cls-1" d="M32.83,296a21.38,21.38,0,0,0-3.3.25q-1.65.25-2.64.48"/></g><g id="SPLINE-88" data-name="SPLINE"><path class="cls-1" d="M30.76,292.75c.49-.06,1-.11,1.44-.13s.9,0,1.29,0"/></g><g id="SPLINE-89" data-name="SPLINE"><path class="cls-1" d="M33.49,292.58a17.25,17.25,0,0,1,3.9.38,7.94,7.94,0,0,1,3.06,1.5"/></g><g id="SPLINE-90" data-name="SPLINE"><path class="cls-1" d="M40.45,294.46a7.5,7.5,0,0,1,2.29,2.82,10.42,10.42,0,0,1,.8,4.43"/></g><g id="CIRCLE"><circle class="cls-1" cx="8.37" cy="587.34" r="3.01"/></g><g id="CIRCLE-2" data-name="CIRCLE"><circle class="cls-1" cx="8.37" cy="8.37" r="3.01"/></g><g id="CIRCLE-3" data-name="CIRCLE"><circle class="cls-1" cx="587.34" cy="8.37" r="3.01"/></g><g id="CIRCLE-4" data-name="CIRCLE"><circle class="cls-1" cx="587.34" cy="587.34" r="3.01"/></g><g id="CIRCLE-5" data-name="CIRCLE"><circle class="cls-1" cx="296.85" cy="547.27" r="22.04"/></g><g id="CIRCLE-6" data-name="CIRCLE"><circle class="cls-1" cx="246.77" cy="547.27" r="22.04"/></g><g id="CIRCLE-7" data-name="CIRCLE"><circle class="cls-1" cx="96.52" cy="547.27" r="22.04"/></g><g id="CIRCLE-8" data-name="CIRCLE"><circle class="cls-1" cx="346.94" cy="547.27" r="22.04"/></g><g id="CIRCLE-9" data-name="CIRCLE"><circle class="cls-1" cx="497.19" cy="547.27" r="22.04"/></g><g id="CIRCLE-10" data-name="CIRCLE"><circle class="cls-1" cx="296.85" cy="497.19" r="22.04"/></g><g id="CIRCLE-11" data-name="CIRCLE"><circle class="cls-1" cx="246.77" cy="497.19" r="22.04"/></g><g id="CIRCLE-12" data-name="CIRCLE"><circle class="cls-1" cx="96.52" cy="497.19" r="22.04"/></g><g id="CIRCLE-13" data-name="CIRCLE"><circle class="cls-1" cx="346.94" cy="497.19" r="22.04"/></g><g id="CIRCLE-14" data-name="CIRCLE"><circle class="cls-1" cx="497.19" cy="497.19" r="22.04"/></g><g id="CIRCLE-15" data-name="CIRCLE"><circle class="cls-1" cx="296.85" cy="447.11" r="22.04"/></g><g id="CIRCLE-16" data-name="CIRCLE"><circle class="cls-1" cx="246.77" cy="447.11" r="22.04"/></g><g id="CIRCLE-17" data-name="CIRCLE"><circle class="cls-1" cx="96.52" cy="447.11" r="22.04"/></g><g id="CIRCLE-18" data-name="CIRCLE"><circle class="cls-1" cx="346.94" cy="447.11" r="22.04"/></g><g id="CIRCLE-19" data-name="CIRCLE"><circle class="cls-1" cx="497.19" cy="447.11" r="22.04"/></g><g id="CIRCLE-20" data-name="CIRCLE"><circle class="cls-1" cx="296.85" cy="397.02" r="22.04"/></g><g id="CIRCLE-21" data-name="CIRCLE"><circle class="cls-1" cx="246.77" cy="397.02" r="22.04"/></g><g id="CIRCLE-22" data-name="CIRCLE"><circle class="cls-1" cx="96.52" cy="397.02" r="22.04"/></g><g id="CIRCLE-23" data-name="CIRCLE"><circle class="cls-1" cx="346.94" cy="397.02" r="22.04"/></g><g id="CIRCLE-24" data-name="CIRCLE"><circle class="cls-1" cx="497.19" cy="397.02" r="22.04"/></g><g id="CIRCLE-25" data-name="CIRCLE"><circle class="cls-1" cx="296.85" cy="346.94" r="22.04"/></g><g id="CIRCLE-26" data-name="CIRCLE"><circle class="cls-1" cx="246.77" cy="346.94" r="22.04"/></g><g id="CIRCLE-27" data-name="CIRCLE"><circle class="cls-1" cx="96.52" cy="346.94" r="22.04"/></g><g id="CIRCLE-28" data-name="CIRCLE"><circle class="cls-1" cx="346.94" cy="346.94" r="22.04"/></g><g id="CIRCLE-29" data-name="CIRCLE"><circle class="cls-1" cx="497.19" cy="346.94" r="22.04"/></g><g id="CIRCLE-30" data-name="CIRCLE"><circle class="cls-1" cx="296.85" cy="296.85" r="22.04"/></g><g id="CIRCLE-31" data-name="CIRCLE"><circle class="cls-1" cx="246.77" cy="296.85" r="22.04"/></g><g id="CIRCLE-32" data-name="CIRCLE"><circle class="cls-1" cx="96.52" cy="296.85" r="22.04"/></g><g id="CIRCLE-33" data-name="CIRCLE"><circle class="cls-1" cx="346.94" cy="296.85" r="22.04"/></g><g id="CIRCLE-34" data-name="CIRCLE"><circle class="cls-1" cx="497.19" cy="296.85" r="22.04"/></g><g id="CIRCLE-35" data-name="CIRCLE"><circle class="cls-1" cx="296.85" cy="246.77" r="22.04"/></g><g id="CIRCLE-36" data-name="CIRCLE"><circle class="cls-1" cx="246.77" cy="246.77" r="22.04"/></g><g id="CIRCLE-37" data-name="CIRCLE"><circle class="cls-1" cx="96.52" cy="246.77" r="22.04"/></g><g id="CIRCLE-38" data-name="CIRCLE"><circle class="cls-1" cx="346.94" cy="246.77" r="22.04"/></g><g id="CIRCLE-39" data-name="CIRCLE"><circle class="cls-1" cx="497.19" cy="246.77" r="22.04"/></g><g id="CIRCLE-40" data-name="CIRCLE"><circle class="cls-1" cx="296.85" cy="196.68" r="22.04"/></g><g id="CIRCLE-41" data-name="CIRCLE"><circle class="cls-1" cx="246.77" cy="196.68" r="22.04"/></g><g id="CIRCLE-42" data-name="CIRCLE"><circle class="cls-1" cx="96.52" cy="196.68" r="22.04"/></g><g id="CIRCLE-43" data-name="CIRCLE"><circle class="cls-1" cx="346.94" cy="196.68" r="22.04"/></g><g id="CIRCLE-44" data-name="CIRCLE"><circle class="cls-1" cx="497.19" cy="196.68" r="22.04"/></g><g id="CIRCLE-45" data-name="CIRCLE"><circle class="cls-1" cx="296.85" cy="146.6" r="22.04"/></g><g id="CIRCLE-46" data-name="CIRCLE"><circle class="cls-1" cx="246.77" cy="146.6" r="22.04"/></g><g id="CIRCLE-47" data-name="CIRCLE"><circle class="cls-1" cx="96.52" cy="146.6" r="22.04"/></g><g id="CIRCLE-48" data-name="CIRCLE"><circle class="cls-1" cx="346.94" cy="146.6" r="22.04"/></g><g id="CIRCLE-49" data-name="CIRCLE"><circle class="cls-1" cx="497.19" cy="146.6" r="22.04"/></g><g id="CIRCLE-50" data-name="CIRCLE"><circle class="cls-1" cx="547.27" cy="96.52" r="22.04"/></g><g id="CIRCLE-51" data-name="CIRCLE"><circle class="cls-1" cx="447.11" cy="96.52" r="22.04"/></g><g id="CIRCLE-52" data-name="CIRCLE"><circle class="cls-1" cx="397.02" cy="96.52" r="22.04"/></g><g id="CIRCLE-53" data-name="CIRCLE"><circle class="cls-1" cx="346.94" cy="96.52" r="22.04"/></g><g id="CIRCLE-54" data-name="CIRCLE"><circle class="cls-1" cx="296.85" cy="96.52" r="22.04"/></g><g id="CIRCLE-55" data-name="CIRCLE"><circle class="cls-1" cx="246.77" cy="96.52" r="22.04"/></g><g id="CIRCLE-56" data-name="CIRCLE"><circle class="cls-1" cx="196.68" cy="96.52" r="22.04"/></g><g id="CIRCLE-57" data-name="CIRCLE"><circle class="cls-1" cx="146.6" cy="96.52" r="22.04"/></g><g id="CIRCLE-58" data-name="CIRCLE"><circle class="cls-1" cx="96.52" cy="96.52" r="22.04"/></g><g id="CIRCLE-59" data-name="CIRCLE"><circle class="cls-1" cx="497.19" cy="96.52" r="22.04"/></g><g id="CIRCLE-60" data-name="CIRCLE"><circle class="cls-1" cx="547.27" cy="146.6" r="22.04"/></g><g id="CIRCLE-61" data-name="CIRCLE"><circle class="cls-1" cx="397.02" cy="146.6" r="22.04"/></g><g id="CIRCLE-62" data-name="CIRCLE"><circle class="cls-1" cx="146.6" cy="146.6" r="22.04"/></g><g id="CIRCLE-63" data-name="CIRCLE"><circle class="cls-1" cx="196.68" cy="146.6" r="22.04"/></g><g id="CIRCLE-64" data-name="CIRCLE"><circle class="cls-1" cx="447.11" cy="146.6" r="22.04"/></g><g id="CIRCLE-65" data-name="CIRCLE"><circle class="cls-1" cx="547.27" cy="196.68" r="22.04"/></g><g id="CIRCLE-66" data-name="CIRCLE"><circle class="cls-1" cx="397.02" cy="196.68" r="22.04"/></g><g id="CIRCLE-67" data-name="CIRCLE"><circle class="cls-1" cx="146.6" cy="196.68" r="22.04"/></g><g id="CIRCLE-68" data-name="CIRCLE"><circle class="cls-1" cx="196.68" cy="196.68" r="22.04"/></g><g id="CIRCLE-69" data-name="CIRCLE"><circle class="cls-1" cx="447.11" cy="196.68" r="22.04"/></g><g id="CIRCLE-70" data-name="CIRCLE"><circle class="cls-1" cx="547.27" cy="246.77" r="22.04"/></g><g id="CIRCLE-71" data-name="CIRCLE"><circle class="cls-1" cx="397.02" cy="246.77" r="22.04"/></g><g id="CIRCLE-72" data-name="CIRCLE"><circle class="cls-1" cx="146.6" cy="246.77" r="22.04"/></g><g id="CIRCLE-73" data-name="CIRCLE"><circle class="cls-1" cx="196.68" cy="246.77" r="22.04"/></g><g id="CIRCLE-74" data-name="CIRCLE"><circle class="cls-1" cx="447.11" cy="246.77" r="22.04"/></g><g id="CIRCLE-75" data-name="CIRCLE"><circle class="cls-1" cx="547.27" cy="296.85" r="22.04"/></g><g id="CIRCLE-76" data-name="CIRCLE"><circle class="cls-1" cx="397.02" cy="296.85" r="22.04"/></g><g id="CIRCLE-77" data-name="CIRCLE"><circle class="cls-1" cx="146.6" cy="296.85" r="22.04"/></g><g id="CIRCLE-78" data-name="CIRCLE"><circle class="cls-1" cx="196.68" cy="296.85" r="22.04"/></g><g id="CIRCLE-79" data-name="CIRCLE"><circle class="cls-1" cx="447.11" cy="296.85" r="22.04"/></g><g id="CIRCLE-80" data-name="CIRCLE"><circle class="cls-1" cx="547.27" cy="346.94" r="22.04"/></g><g id="CIRCLE-81" data-name="CIRCLE"><circle class="cls-1" cx="397.02" cy="346.94" r="22.04"/></g><g id="CIRCLE-82" data-name="CIRCLE"><circle class="cls-1" cx="146.6" cy="346.94" r="22.04"/></g><g id="CIRCLE-83" data-name="CIRCLE"><circle class="cls-1" cx="196.68" cy="346.94" r="22.04"/></g><g id="CIRCLE-84" data-name="CIRCLE"><circle class="cls-1" cx="447.11" cy="346.94" r="22.04"/></g><g id="CIRCLE-85" data-name="CIRCLE"><circle class="cls-1" cx="547.27" cy="397.02" r="22.04"/></g><g id="CIRCLE-86" data-name="CIRCLE"><circle class="cls-1" cx="397.02" cy="397.02" r="22.04"/></g><g id="CIRCLE-87" data-name="CIRCLE"><circle class="cls-1" cx="146.6" cy="397.02" r="22.04"/></g><g id="CIRCLE-88" data-name="CIRCLE"><circle class="cls-1" cx="196.68" cy="397.02" r="22.04"/></g><g id="CIRCLE-89" data-name="CIRCLE"><circle class="cls-1" cx="447.11" cy="397.02" r="22.04"/></g><g id="CIRCLE-90" data-name="CIRCLE"><circle class="cls-1" cx="547.27" cy="447.11" r="22.04"/></g><g id="CIRCLE-91" data-name="CIRCLE"><circle class="cls-1" cx="397.02" cy="447.11" r="22.04"/></g><g id="CIRCLE-92" data-name="CIRCLE"><circle class="cls-1" cx="146.6" cy="447.11" r="22.04"/></g><g id="CIRCLE-93" data-name="CIRCLE"><circle class="cls-1" cx="196.68" cy="447.11" r="22.04"/></g><g id="CIRCLE-94" data-name="CIRCLE"><circle class="cls-1" cx="447.11" cy="447.11" r="22.04"/></g><g id="CIRCLE-95" data-name="CIRCLE"><circle class="cls-1" cx="547.27" cy="497.19" r="22.04"/></g><g id="CIRCLE-96" data-name="CIRCLE"><circle class="cls-1" cx="397.02" cy="497.19" r="22.04"/></g><g id="CIRCLE-97" data-name="CIRCLE"><circle class="cls-1" cx="146.6" cy="497.19" r="22.04"/></g><g id="CIRCLE-98" data-name="CIRCLE"><circle class="cls-1" cx="196.68" cy="497.19" r="22.04"/></g><g id="CIRCLE-99" data-name="CIRCLE"><circle class="cls-1" cx="447.11" cy="497.19" r="22.04"/></g><g id="CIRCLE-100" data-name="CIRCLE"><circle class="cls-1" cx="547.27" cy="547.27" r="22.04"/></g><g id="CIRCLE-101" data-name="CIRCLE"><circle class="cls-1" cx="397.02" cy="547.27" r="22.04"/></g><g id="CIRCLE-102" data-name="CIRCLE"><circle class="cls-1" cx="146.6" cy="547.27" r="22.04"/></g><g id="CIRCLE-103" data-name="CIRCLE"><circle class="cls-1" cx="196.68" cy="547.27" r="22.04"/></g><g id="CIRCLE-104" data-name="CIRCLE"><circle class="cls-1" cx="447.11" cy="547.27" r="22.04"/></g><g id="SPLINE-91" data-name="SPLINE"><path class="cls-1" d="M29,348c0,.29,0,.58-.05.85s0,.63,0,1.05a16.89,16.89,0,0,0,.61,5,7.62,7.62,0,0,0,1.53,2.91,4.93,4.93,0,0,0,1.78,1.32,5,5,0,0,0,2,.38,4.92,4.92,0,0,0,3.93-1.73,7.72,7.72,0,0,0,1.5-5.18,8.53,8.53,0,0,0-.49-3.11,5,5,0,0,0-1.55-2.13,4.36,4.36,0,0,0-1.81-.84,9.8,9.8,0,0,0-2-.21,8.72,8.72,0,0,0-2.74.43A11.3,11.3,0,0,0,29,348l-.85-11.57A16.25,16.25,0,0,0,25.64,342a29,29,0,0,0-.8,7.08,22.15,22.15,0,0,0,.88,6.73,11,11,0,0,0,2.43,4.37,8.37,8.37,0,0,0,2.94,2.05,9.74,9.74,0,0,0,3.69.68,9.32,9.32,0,0,0,3.7-.72,9.13,9.13,0,0,0,3-2.11,9.62,9.62,0,0,0,2.06-3.27,11.66,11.66,0,0,0,.76-4.27,11.54,11.54,0,0,0-.8-4.51,7.61,7.61,0,0,0-2.46-3.17,8.51,8.51,0,0,0-2.75-1.42,11.73,11.73,0,0,0-3.07-.35,9.74,9.74,0,0,0-3.31.54A13.27,13.27,0,0,0,29,345.13c.29-3.31,1.21-5.81,2.74-7.5a7.77,7.77,0,0,1,6.05-2.53,9,9,0,0,1,2.19.25,7.74,7.74,0,0,1,1.59.55h.17V332a7.57,7.57,0,0,0-1.54-.32,18.31,18.31,0,0,0-1.87-.09,13.31,13.31,0,0,0-6,1.27,11.32,11.32,0,0,0-4.21,3.57"/></g><g id="SPLINE-92" data-name="SPLINE"><path class="cls-1" d="M45.71,537.67a4.53,4.53,0,0,0-2.76.79,5.22,5.22,0,0,0-1.72,2.37,14.33,14.33,0,0,0-.83,3.88c-.14,1.55-.22,3.32-.22,5.28s.07,3.87.2,5.28a13.84,13.84,0,0,0,.83,3.78,5.3,5.3,0,0,0,1.66,2.4,4.52,4.52,0,0,0,2.84.84,4.58,4.58,0,0,0,2.74-.79,5.09,5.09,0,0,0,1.69-2.38,14.61,14.61,0,0,0,.83-3.77,52.45,52.45,0,0,0,.24-5.38A51.83,51.83,0,0,0,51,544.6a14.77,14.77,0,0,0-.85-3.81,5.2,5.2,0,0,0-1.67-2.33,4.45,4.45,0,0,0-2.74-.79L36.09,550q0,7.92,2.33,11.77a7.88,7.88,0,0,0,7.29,3.86A8,8,0,0,0,53,561.84Q55.3,558,55.31,550q0-7.85-2.33-11.74a7.86,7.86,0,0,0-7.27-3.9,8,8,0,0,0-7.27,3.76q-2.34,3.76-2.35,11.9"/></g><g id="SPLINE-93" data-name="SPLINE"><path class="cls-1" d="M347.16,33.55a9.06,9.06,0,0,0-2.74.42,12.34,12.34,0,0,0-2.61,1.23c0,.3,0,.58-.05.86s0,.62,0,1a17.18,17.18,0,0,0,.61,5A7.61,7.61,0,0,0,343.88,45a4.94,4.94,0,0,0,1.77,1.33,5.25,5.25,0,0,0,2,.38A5,5,0,0,0,351.56,45a7.75,7.75,0,0,0,1.5-5.19,8.47,8.47,0,0,0-.49-3.1A5.06,5.06,0,0,0,351,34.59a4.26,4.26,0,0,0-1.8-.84,10.71,10.71,0,0,0-2-.2l.91-3.34a9.56,9.56,0,0,0-3.32.55,12.42,12.42,0,0,0-2.94,1.55q.44-5,2.74-7.51a7.81,7.81,0,0,1,6.05-2.53,9,9,0,0,1,2.19.26,7.07,7.07,0,0,1,1.58.55h.17V19.2a7.64,7.64,0,0,0-1.53-.31,15.93,15.93,0,0,0-1.88-.1,13.3,13.3,0,0,0-6,1.28A11.17,11.17,0,0,0,341,23.64a16.06,16.06,0,0,0-2.48,5.49,28.46,28.46,0,0,0-.8,7.07,22.45,22.45,0,0,0,.87,6.73A11.22,11.22,0,0,0,341,47.31a8.09,8.09,0,0,0,2.93,2,9.62,9.62,0,0,0,3.69.68,9.46,9.46,0,0,0,3.7-.71,9.28,9.28,0,0,0,3-2.11,9.61,9.61,0,0,0,2.06-3.28,11.62,11.62,0,0,0,.77-4.27,11.79,11.79,0,0,0-.8-4.51A7.58,7.58,0,0,0,353.89,32a8.3,8.3,0,0,0-2.76-1.43,12.09,12.09,0,0,0-3.06-.35"/></g><g id="SPLINE-94" data-name="SPLINE"><path class="cls-1" d="M498.9,22.08A4.87,4.87,0,0,0,495,23.85,7.84,7.84,0,0,0,493.47,29a8.67,8.67,0,0,0,.49,3.13,5.09,5.09,0,0,0,1.56,2.11,4.15,4.15,0,0,0,1.74.84,9.42,9.42,0,0,0,4.86-.24,9.6,9.6,0,0,0,2.6-1.21c0-.19,0-.46,0-.79s0-.7,0-1.11a18.39,18.39,0,0,0-.56-5,7.29,7.29,0,0,0-1.56-3,5.05,5.05,0,0,0-1.79-1.34,5.38,5.38,0,0,0-2-.36l-.46,16.53a9.61,9.61,0,0,0,3.19-.5,12.9,12.9,0,0,0,3.07-1.59A12.34,12.34,0,0,1,502.13,44a7.78,7.78,0,0,1-6.2,2.6,9.39,9.39,0,0,1-2.17-.25,7,7,0,0,1-1.58-.55H492v3.87a8.58,8.58,0,0,0,1.69.33c.61.06,1.18.08,1.72.08a13.21,13.21,0,0,0,6-1.23,11.78,11.78,0,0,0,4.16-3.56A15.74,15.74,0,0,0,508,39.68a28.75,28.75,0,0,0,.84-7.06,22.71,22.71,0,0,0-.85-6.79,11.19,11.19,0,0,0-2.41-4.34,8.57,8.57,0,0,0-2.92-2,10,10,0,0,0-7.42.05,8.48,8.48,0,0,0-3.05,2.08,10,10,0,0,0-2.07,3.32,11.33,11.33,0,0,0-.76,4.23,11.34,11.34,0,0,0,.83,4.55,7.86,7.86,0,0,0,2.43,3.12,8.21,8.21,0,0,0,2.77,1.42,12,12,0,0,0,3,.36"/></g><g id="SPLINE-95" data-name="SPLINE"><path class="cls-1" d="M556.8,25.27a13.8,13.8,0,0,0-.83,3.87c-.15,1.56-.22,3.32-.22,5.28s.06,3.88.19,5.29a14.23,14.23,0,0,0,.83,3.77,5.32,5.32,0,0,0,1.67,2.4,5.18,5.18,0,0,0,5.58,0,5.18,5.18,0,0,0,1.69-2.37,14.6,14.6,0,0,0,.83-3.78,52.31,52.31,0,0,0,.24-5.38,52.11,52.11,0,0,0-.24-5.37,14.77,14.77,0,0,0-.85-3.81A5.34,5.34,0,0,0,564,22.89a4.52,4.52,0,0,0-2.74-.79,4.65,4.65,0,0,0-2.77.79,5.26,5.26,0,0,0-1.71,2.38l14.07,9.13q0-7.84-2.32-11.74a7.86,7.86,0,0,0-7.27-3.89A8,8,0,0,0,554,22.53q-2.35,3.76-2.35,11.89,0,7.92,2.32,11.78a8.82,8.82,0,0,0,14.54.07q2.36-3.78,2.35-11.87"/></g><g id="SPLINE-96" data-name="SPLINE"><path class="cls-1" d="M443.59,26.16a4.3,4.3,0,0,0,.72,2.52,6.56,6.56,0,0,0,2.15,1.86c.41.23,1,.54,1.9.94a21.31,21.31,0,0,0,2.34.93,7.35,7.35,0,0,0,2.38-2.76,8.12,8.12,0,0,0,.62-3.25A4.57,4.57,0,0,0,452.35,23a5.12,5.12,0,0,0-3.77-1.35,5.32,5.32,0,0,0-3.59,1.2,4.11,4.11,0,0,0-1.4,3.28l.32,7.23v-.12a10.12,10.12,0,0,1-3.29-2.83,6.54,6.54,0,0,1-1.07-3.82A7.22,7.22,0,0,1,442.11,21a9.43,9.43,0,0,1,6.5-2.27,9.65,9.65,0,0,1,6.56,2.15,6.94,6.94,0,0,1,2.47,5.5,7.64,7.64,0,0,1-1.18,4,8.13,8.13,0,0,1-3.4,3.1v.12a10.46,10.46,0,0,1,4,3,7.22,7.22,0,0,1,1.35,4.53,8.47,8.47,0,0,1-2.8,6.45,9.87,9.87,0,0,1-7,2.61,11.72,11.72,0,0,1-4.08-.67,8.76,8.76,0,0,1-3.13-1.91,8,8,0,0,1-1.92-2.88,9.43,9.43,0,0,1-.66-3.53,8.18,8.18,0,0,1,1.3-4.48,9.1,9.1,0,0,1,3.79-3.26l2.41,1,2.58,1a15.06,15.06,0,0,1,1.83.84,7.74,7.74,0,0,1,2.8,2.21,5.32,5.32,0,0,1,.73,3,5.55,5.55,0,0,1-1.54,4.15,5.49,5.49,0,0,1-4.06,1.52,5.39,5.39,0,0,1-4.13-1.77,6.38,6.38,0,0,1-1.65-4.51,7.4,7.4,0,0,1,3.44-6.43"/></g><g id="SPLINE-97" data-name="SPLINE"><path class="cls-1" d="M28.59,493.87a8.46,8.46,0,0,0,.49,3.13,5,5,0,0,0,1.56,2.11,4.15,4.15,0,0,0,1.74.84,9.42,9.42,0,0,0,4.86-.24,9.6,9.6,0,0,0,2.6-1.21c0-.19,0-.46,0-.79s0-.7,0-1.11a18.39,18.39,0,0,0-.56-5,7.29,7.29,0,0,0-1.56-3A5.05,5.05,0,0,0,36,487.32a5.38,5.38,0,0,0-2-.36,4.89,4.89,0,0,0-4,1.78,7.84,7.84,0,0,0-1.47,5.13l12.08,16.25a15.77,15.77,0,0,0,2.47-5.55A28.89,28.89,0,0,0,44,497.5a22.71,22.71,0,0,0-.85-6.79,11.19,11.19,0,0,0-2.41-4.34,8.41,8.41,0,0,0-2.92-2,9.92,9.92,0,0,0-7.42,0,8.38,8.38,0,0,0-3.05,2.09,10,10,0,0,0-2.07,3.31,12.52,12.52,0,0,0,.07,8.78,8,8,0,0,0,2.43,3.13,8.36,8.36,0,0,0,2.77,1.41,11.93,11.93,0,0,0,3,.36,9.61,9.61,0,0,0,3.19-.5,12.9,12.9,0,0,0,3.07-1.59,12.34,12.34,0,0,1-2.57,7.43,7.78,7.78,0,0,1-6.2,2.6,9.39,9.39,0,0,1-2.17-.25,6.51,6.51,0,0,1-1.58-.55h-.19v3.87a8.58,8.58,0,0,0,1.69.33c.61.06,1.18.08,1.72.08a13.21,13.21,0,0,0,6-1.23,11.58,11.58,0,0,0,4.16-3.56"/></g><g id="SPLINE-98" data-name="SPLINE"><path class="cls-1" d="M36.53,450.48a13.75,13.75,0,0,0-1.83-.84l-2.58-1A7.42,7.42,0,0,0,28.69,455a6.39,6.39,0,0,0,1.64,4.5,5.38,5.38,0,0,0,4.13,1.78,5.26,5.26,0,0,0,5.6-5.67,5.22,5.22,0,0,0-.73-2.95,7.85,7.85,0,0,0-2.8-2.22l2.34-2.72v-.13a8,8,0,0,0,3.4-3.09,7.76,7.76,0,0,0,1.18-4A7,7,0,0,0,41,435a9.63,9.63,0,0,0-6.56-2.14,9.43,9.43,0,0,0-6.5,2.27,7.22,7.22,0,0,0-2.56,5.65,6.54,6.54,0,0,0,1.07,3.82,10.21,10.21,0,0,0,3.29,2.82v.12a9.18,9.18,0,0,0-3.79,3.27,8.24,8.24,0,0,0-1.3,4.48,9.43,9.43,0,0,0,.66,3.53,8.14,8.14,0,0,0,1.92,2.87,8.87,8.87,0,0,0,3.13,1.92,12,12,0,0,0,4.08.66,9.86,9.86,0,0,0,7-2.6,8.45,8.45,0,0,0,2.8-6.45,7.22,7.22,0,0,0-1.35-4.53,10.42,10.42,0,0,0-4-3l-4.48-11.89a5.09,5.09,0,0,1,3.76,1.35,4.59,4.59,0,0,1,1.35,3.38,8.15,8.15,0,0,1-.62,3.25,7.31,7.31,0,0,1-2.37,2.76,21.54,21.54,0,0,1-2.34-.94c-.86-.39-1.5-.71-1.9-.93a6.64,6.64,0,0,1-2.16-1.87,4.3,4.3,0,0,1-.71-2.52,4.06,4.06,0,0,1,1.4-3.27,5.27,5.27,0,0,1,3.59-1.21"/></g></svg>