<svg id="Layer_1" data-name="Layer 1" xmlns="http://www.w3.org/2000/svg" viewBox="0 0 1000 1000"><defs><style>.cls-1{fill:#fff;}</style></defs><path class="cls-1" d="M0,0H1000V1000H0ZM265,794.22a412.63,412.63,0,0,0,88.21,13.43c43.73,1.92,87.24-1.17,130.66-6.18,37.93-4.38,75.92-7.44,114.17-4.71,37.4,2.67,74,8.93,109.16,22.46,6.19,2.38,8.48,1,9.61-5.53q5.82-33.45,11.69-66.89c1.54-8.8,3-17.61,4.46-26.16l-33.3-11.42c1.7-9.6,3.36-19,5-28.42,2.58,5.78,7.15,7.92,12.54,9.43s10.73,3.6,16,5.62c8.31,3.16,11.13,8,9.66,16.68-3.75,22-7.46,44-11.44,65.93-.74,4,.26,5.86,4,7.49a254.79,254.79,0,0,1,50.75,29.76c2,1.54,4.16,3,7.37,5.32-1.46-3.42-2.47-5.49-3.24-7.63-6.63-18.28-13.38-36.51-19.72-54.88-2.79-8.09-.41-15.61,6.28-20.61,7.94-5.93,16.64-10.88,25.13-16,2.71-1.65,5.82-2.63,9.17-4.11-1.2-1-1.82-1.54-2.47-2A292.55,292.55,0,0,0,718,668.44c-9.37-3-12.21-1-13.85,8.81-1.74,10.46-3.68,20.89-5.61,31.81-40-10.87-80.31-14.9-121.5-14.06,10.08,2.94,9.5,10.67,8.46,18.23l8.38,2.09c-.07.61-.13,1.22-.2,1.83l-8,1.71c-.17.3-.44.57-.47.87-1.07,10.27-2.23,20.53-3.11,30.81-.58,6.79-.86,13.6-1,20.41,0,1.24,1.21,2.51,1.87,3.76,1.21-.71,2.92-1.13,3.54-2.19,4.58-7.89,9.57-15.66,9.43-25.34-.08-5.28,0-10.55,0-15.73,8.36-1.45,11.66,1.24,11.35,8.88-.25,6-.93,12-.76,17.95.07,2.27,2,4.48,3.06,6.71a65,65,0,0,0,4.83-5.14,9.83,9.83,0,0,0,1.4-3.71q2.09-8.73,4-17.5c1.11-5.08,4.09-6.6,8.75-4.34,4.17,2,5.42,5.4,5,9.88-.7,8.63-1.24,17.27-1.55,25.91-.06,1.53,1.28,3.1,2,4.66,1.39-1,3.37-1.74,4.07-3.11,3.09-6.06,5.88-12.28,8.66-18.51,1.37-3.09,2.47-6.31,3.7-9.48l1.46.11c.18,1.58.71,3.2.47,4.72a22.69,22.69,0,0,1-1.94,6.69c-4.32,8.55-8.44,17.25-13.47,25.39a10,10,0,0,1-12.77,4.07c-5-2-5.77-6.49-5.82-11.19,0-3.2,0-6.39,0-9.71-9.27,12.75-15,13.31-22.81,2.17a22,22,0,0,1-1.21,2.18c-3.42,4.86-6.21,10.42-10.47,14.39-6.7,6.25-15.14,2.71-16.36-6.38-.44-3.26-.07-6.62-.07-11-6.79,10-14.35,16.23-26.08,13.76-9.06-1.9-14.16-7.6-14.84-16.93-6.74,1.27-6.65,1.31-8.92,6.74a32.67,32.67,0,0,1-3.78,7c-5.19,7-14.42,6.36-18.32-1.45-1.57-3.17-2-7-2.5-10.57-.61-4.58-.71-9.23-1.1-14.82l-11.47,6.43c.55,1.41,1,2.31,1.26,3.24,2.42,7.07,5.51,14,7,21.25,1.88,8.89-2.8,15.46-10.66,16.93-7.36,1.38-14.51-3.68-16.57-11.83-2-7.7.67-14.57,4.66-20.84,2-3.12,1.72-5.39.49-8.64-1.86-4.89-3.49-10.12-3.75-15.28-.32-6.28,5.88-11.86,11.4-12.1q1.25,11.16,2.48,22.27l2,.28c4.09-5,16.91-1.94,12.14-14.51,8.35-2.51,13.42,1.09,13.42,9,0,4.49-.27,9,0,13.49A51,51,0,0,0,506,769.32c.3,1.08,2.86,2.56,3.89,2.24,3.61-1.13,5.6-9.7,3.22-12.78-4.05-5.24-4.41-11-2.31-17,1.14-3.25,3.14-6.34,7.15-5.74s4.23,4.34,4.21,7.47c0,4.78-.52,9.56-.81,14.33l1.28.92q2.61-3.72,5.21-7.45c3.06-4.42,5.48-9.57,9.4-13,2.33-2,7.86-2.93,10.41-1.53s4.24,6.31,4.22,9.67c0,8.68-3.74,15.73-12.46,19,2.86,6.55,7.32,8.61,13.35,5.93a21.53,21.53,0,0,0,7.22-5.18c5-5.66,8.77-12,9.13-20,.4-8.91,1.38-17.79,2.13-26.91-2.39-.12-4,.11-5.3-.37a19.87,19.87,0,0,1-4-2.6,18.44,18.44,0,0,1,3.9-2.24c1.52-.44,3.22-.27,5.63-.41-.35-6.35-.68-12.38-1-18.63-2.2,0-3.86-.11-5.5,0-21.74,1.77-43.53,3.08-65.2,5.46-44.61,4.88-89.23,8.36-134.14,5.64-37.1-2.25-73.39-8.48-108.25-21.84-7.85-3-9.7-1.91-11.1,6.21-3.2,18.53-6.49,37-9.72,55.58-2.14,12.25-4.25,24.51-6.31,36.42L265,794.23l-4.08,28.7-1.32.58c-1.57-7.24-7.33-8.57-12.87-10.33-5.07-1.62-10.09-3.39-15.08-5.27-7.84-2.95-10.68-8.14-9.25-16.4,3.78-22,7.45-43.94,11.37-65.88.72-4.06-.13-6-4.19-7.81a258.32,258.32,0,0,1-52.29-31c-1.5-1.13-3.07-2.17-5.59-3.94,1.26,3,2.1,4.74,2.78,6.57,6.74,18.4,13.68,36.73,20.06,55.26,2.79,8.09.66,15.76-6.13,21.17a177.41,177.41,0,0,1-19.3,13.16c-4.6,2.77-9.76,4.6-15.17,7.09.95.74,1.47,1.15,2,1.54,3.34,2.48,6.65,5,10,7.41a294,294,0,0,0,82.5,40.66c7.08,2.22,10.92.27,12.09-6,1.83-9.8,3.58-19.62,5.12-29.47C266,798.38,265.26,796.26,265,794.22Zm469.59-507,1,.32c0,6.79-.78,13.68.15,20.33,2.33,16.46,17,22.7,30.14,12.49,5.9-4.58,10.87-10.84,14.94-17.18,9.88-15.39,15.75-32.62,20.66-50.14,1-3.61.78-7.14-3-10.21-.86,2.09-1.56,3.73-2.21,5.38-4.81,12.24-9.36,24.59-14.51,36.67a94.09,94.09,0,0,1-9.33,16.46c-1.48,2.14-5.06,4.55-7.07,4.1s-3.94-4.3-4.31-6.88a77.62,77.62,0,0,1-.57-16.41c.88-12.46,2.43-24.87,3.37-37.32,1-13.31-5-20.09-18.31-21.78-3.81-.48-6.88-.33-7.77,4.18-2.76-.73-5.15-1.47-7.58-2-13.71-3-23.35.69-30.66,12.73a17.08,17.08,0,0,1-10.44,8.19,77.8,77.8,0,0,0-11.52,4.75c-4.59,2.2-9,4.71-13.7,7.18a27.49,27.49,0,0,1-1.28-2.49c-4.66-12.67-7.38-25.57-4.83-39.16a6.24,6.24,0,0,0-.59-4.1c-.29-.46-2.49-.09-3.63.37-14.65,5.89-22,18.75-18.26,34,1.66,6.67.33,11.54-3.58,16.44-3.74,4.68-7.51,9.35-11.11,14.13a46.38,46.38,0,0,0-3.16,5.6l-2.13-1.78c0-2.08-.07-4.17,0-6.25.43-10.48,1.14-21,1.29-31.46.17-11.8-5.51-18.33-16.65-19.95-7.21-1-8.23.51-7.66,7.71.77,9.6,3,20,.28,28.75-4.43,14.28-12.12,27.6-18.95,41.06-1.17,2.29-5,4.62-7.46,4.55-4.1-.1-5.24-4.39-5.37-7.9-.27-7.45-.35-14.95.11-22.4,1.05-16.94,3.15-33.36,12.29-48.64a68.16,68.16,0,0,0,9.76-40.23c-.84-11.43-7.75-20.45-17.7-22.87-5.73-1.4-9.08-.37-11.61,4.91-2.35,4.91-4.72,10.16-5.38,15.46-2.47,19.8-4.33,39.68-6.25,59.55-.79,8.06-9.49,16.89-18,17.64-.4-3.78-.65-7.59-1.23-11.34-1.82-11.73-8.49-19.32-18.71-21.49-9.31-2-18.53,1.79-24.23,11.91-4.18,7.41-7.76,15.7-9.11,24-2.51,15.39.47,30.07,12.68,41.18s25.66,8.65,32.29-6.5c3.36-7.67,4.64-16.24,6.91-24.39.38-1.37.61-3.33,1.57-3.89,5.18-3,10.56-5.71,15.94-8.54,0,2.46.06,4.77,0,7.08-.34,11.48-1.33,23-.92,34.43.47,13.37,9.44,20,22.57,17.84a9.59,9.59,0,0,1,1.85.16,31.68,31.68,0,0,0-2.93,3.68c-4.43,7.76-10.13,15.11-12.87,23.43-7.34,22.24,5.67,42.79,27.72,43.61,18.82.7,26.94-5.46,31.42-20.15,2.08-6.81,4.18-13.82,4.75-20.87,1.43-17.74,1.88-35.56,3-53.33a13.88,13.88,0,0,1,3.21-7.25c6.63-8.1,13.56-16,20.38-23.9.69-.8,1.4-1.59,2.37-2.7a52.6,52.6,0,0,0,3,6.26c2.41,3.64,2.1,6.57-.52,10.28a78.16,78.16,0,0,0-8.2,15.37c-5,12.16-6.11,24.53.06,36.74,5.5,10.89,18.72,17,30.8,14.26,11.8-2.65,19.33-12.07,18.91-25.34a79.08,79.08,0,0,0-3.71-21.47c-3.65-11.34-8.44-22.32-13.07-34.29l23.68-13a12.52,12.52,0,0,1,.54,2.16c-.17,1.49-.45,3-.59,4.46-1.2,12.53-1.45,25,3.72,36.86S712,311,721.89,302.87c3.92-3.19,6.82-7.65,10.09-11.61A37.1,37.1,0,0,0,734.59,287.19ZM302.23,227.42c-1.91-.57-2.85-.87-3.81-1.14-18.93-5.28-31.13.45-38.83,18.72-5.89,14-5.89,28.62-2.79,43.19,1.75,8.25,4.48,16.63,14.24,18.64,10.12,2.09,16.6-4.1,22.14-11.43,2.06-2.71,3.8-5.66,6.08-9.11,0,6.74-.24,12.64.05,18.52.72,14.78,9.69,22,22.13,20,.39-.06.83.22,1.52.43-2.13,3-4.26,5.78-6.06,8.72-7.54,12.31-11.18,25.31-5.78,39.45a29.4,29.4,0,0,0,29,19c19.18-1.07,24.95-6.36,29.3-19.8a106.48,106.48,0,0,0,5.27-23.81c1.38-16.74,1.65-33.57,2.47-50.36.09-1.92.11-4.4,1.23-5.64,6-6.59,12.31-12.86,19.67-20.43,0,8.42-.28,15.69.08,22.92s1.36,14.53,6.47,20c2,2.13,5.66,3.36,8.65,3.55,1.2.08,2.64-3.75,4-5.78a7.14,7.14,0,0,1,1.11-1.07c7.09,5.45,14.38,4.19,20.87-.41a45.91,45.91,0,0,0,11.79-12c9.35-14.29,12.49-30.43,11.15-47.23a51.64,51.64,0,0,0-5-18c-3.79-7.8-12.81-9.87-20.09-5.08-3.81,2.5-6.85,6.21-10.16,9.46a51,51,0,0,0-3.5,4.35,20,20,0,0,1-.34-2.73c.75-11.47,1.68-22.92,2.25-34.4.6-12.31,1-24.63,1.25-36.95.2-8.4-3.05-15.22-11.13-18.35-4.87-1.89-10.28-2.48-15.49-3.4-3.37-.59-4.38,1-3.69,4.4,1.18,5.86,2.75,11.79,2.78,17.7.13,24.47-.93,49-.19,73.41.43,14.29-6.13,24.31-15.1,33.79-1.62,1.72-3.39,3.3-5.88,5.72,0-2.64,0-4,0-5.25.4-11.65,1.12-23.3,1.14-35s-7-18.53-18.68-18.85c-5.37-.15-5.75,1-5.52,6.48.46,10.91,1.74,22.14-.24,32.69-1.83,9.74-7.33,18.83-11.51,28.07a44.27,44.27,0,0,1-6.47,10.63c-1.85,2.14-5,3.16-7.57,4.69-1.4-2.48-3.62-4.83-4-7.46a64.76,64.76,0,0,1-.61-14.92c.93-12.78,2.48-25.52,3.42-38.3,1-13.77-5.14-20.68-19-22.1C305.52,222.66,302.22,222.06,302.23,227.42ZM273.11,564.64l-.79-.12c-.13-.75-.28-1.49-.37-2.24-3.36-27.25-6.33-54.55-10.22-81.72-1.91-13.31-5.23-26.49-12-38.41-2.15-3.78-4.67-7.87-9.75-7.43-5.29.45-6.92,5.24-7.71,9.34-2.34,12.23-5.49,24.55-5.76,36.89-1,44.13-1,88.28-1,132.42,0,7.75,1.59,15.55,3,23.21.33,1.72,3.2,2.95,4.91,4.41,1.35-1.79,2.81-3.51,4-5.4.38-.6.1-1.63.1-2.46q.63-72.48,1.23-144.95c0-2.1,0-4.2,0-6.3a6.58,6.58,0,0,1,1.94,4.13q4.24,34.2,8.46,68.41c.87,6.91,1.35,14,3.07,20.66A14.46,14.46,0,0,0,267,585.71c6.21-.21,9.07-2.32,11.23-10.59,5.15-19.79,9.93-39.69,14.65-59.59,2-8.47,3.47-17.06,5.18-25.6-.9,20.86-3,41.57-4.24,62.32-1,16.93-1.57,33.93-1.47,50.89a48,48,0,0,0,8.47,27.31c5.43,7.83,12.91,11.83,22.47,11.71,5.59-.07,7.14-2.15,5.86-7.53a36.15,36.15,0,0,1-1.26-6.36c-.9-19.28-2.71-38.59-2.29-57.85.93-43.3,3-86.57,4.53-129.86a45.39,45.39,0,0,0-.57-10.94c-2.41-11.36-19.64-19.08-30-13.54a4.34,4.34,0,0,0-1.64,3.09c-.8,9.91-.55,20-2.31,29.72-6.79,37.49-14.2,74.87-21.4,112.29A32.94,32.94,0,0,1,273.11,564.64Zm295.43-72.06.8,0c-1.22,14.24-2.66,28.46-3.59,42.72-1.34,20.44-2.78,40.89-3.24,61.35-.27,11.69,1.93,23.29,8.69,33.37,5.52,8.24,13.28,12.4,23.26,12.11,4.71-.13,6.38-2.25,5.55-6.66-.73-3.92-1.75-7.82-2.16-11.77-3.5-33.44-1.62-66.93-.48-100.39,1-28.64,2.63-57.26,3.45-85.9.48-16.88-12.92-26.53-29.3-21.73a5.11,5.11,0,0,0-2.9,3.61c-.55,6.75.07,13.67-1.07,20.29-6,34.43-12.32,68.79-18.65,103.16-1.36,7.36-3.23,14.63-4.86,21.94a3.54,3.54,0,0,1-1.27-2.61c-3.31-26.76-6.21-53.57-10.08-80.25-2-13.8-5.36-27.49-12.34-39.86-2.15-3.81-4.8-7.77-9.86-7.25s-6.62,5-7.41,9c-2.24,11.23-5.37,22.55-5.6,33.88-.91,46.63-1,93.28-1.06,139.92,0,6.57,1.58,13.2,3.05,19.67.35,1.54,3.19,2.53,4.88,3.77a36,36,0,0,0,3.57-5.13c.52-1.09.12-2.62.13-4q.76-72.24,1.55-144.46c0-1.6.21-3.21.32-4.81l1.36.06c3.25,27.93,6.4,55.86,9.87,83.76a36.14,36.14,0,0,0,4,12.65c2.78,5.06,7.89,6.9,13.66,6.49s8.38-4.13,9.8-9.17c2.12-7.53,4.54-15,6.3-22.6C559.58,533.46,564,513,568.54,492.58Zm74,51.8c-4.35-.81-8.5-1.24-12.42-2.43-3.63-1.1-4.07.45-3.94,3.34.3,6.68,4.38,11.93,11.41,13.29,3.57.7,4,2.16,3.93,5.33-.33,10.15-.92,20.35-.3,30.46.82,13.25,2.45,26.47,4.29,39.63.47,3.36,1.13,8.82,6.13,8.25,5.29-.6,4.41-5.77,4.44-9.72.15-21,.08-42,.52-62.94.22-10.61.62-10.85,11.45-11.33,8.74-.39,17.51-.08,26.41-.08,0,1.38,0,2.67,0,4-.36,11.65-1.19,23.3-1,34.94s2,22.91,8.65,32.87c4.15,6.25,9.79,10.44,17.23,11.81,10.59,2,12.68-.19,10.62-10.49-.06-.33-.08-.66-.13-1-3.64-22.82-3-45.81-2.7-68.79a9.5,9.5,0,0,1,.77-2.07l10,3.53c4.93-7.47,2.63-14.24-6.2-17.86-2.77-1.14-4.21-2.25-4-5.64,1.08-21.28,2-42.58,2.83-63.88.55-13.64,1.18-27.29,1.29-40.93.08-9.14-4.2-15.41-11.84-17.81-10-3.13-20.19-3.35-28.3,4.1-7.15,6.57-14.07,13.81-19.38,21.88-12.36,18.74-18.35,40.17-23,61.87C646.49,517.49,644.83,530.53,642.52,544.38ZM422.57,557.32c0,11.28,0,21.41,0,31.55,0,13.57.7,27.07,7.7,39.23,5.21,9,13,14.11,23.68,14.06,5.79,0,7.44-2.19,6.09-7.79A32.8,32.8,0,0,1,458.8,628q-1.21-33.16-2.25-66.35a9,9,0,0,1,.76-2.27l9.82,3.6c5.11-7.23,2.85-14.39-6-17.79-3.52-1.34-4.37-3.1-4.2-6.54q1.43-28,2.52-55.93c.64-16.31,1.34-32.63,1.5-49,.09-8.76-4.39-14.82-12-17.09-9.84-2.93-19.35-2.53-28,4-9.68,7.27-16.83,16.6-22.45,27.12-13.87,25.93-20.59,54-24.31,82.91-1.83,14.2-1.64,14.33-15.16,11.12-3-.72-3.56.4-3.54,2.89a13.67,13.67,0,0,0,11.41,13.84c3.81.75,4.16,2.4,4.14,5.72-.09,15.81-.41,31.66.44,47.43.48,8.88,2.86,17.68,4.87,26.41.4,1.73,3,2.95,4.57,4.41,1.49-1.8,3.53-3.38,4.31-5.44s.3-4.59.32-6.91c.18-22.32.29-44.65.62-67,0-1.47,1.62-4.13,2.63-4.2C400.3,558.2,411.9,557.79,422.57,557.32ZM175.86,204.74l.83-.07c.17.91.38,1.82.52,2.73,2.31,15,4.26,30,7,44.9,3.66,20,8.37,39.75,17.05,58.31,3,6.45,7,12.12,13.36,15.73,8.92,5.05,17.17,2.11,20.15-7.64a52.44,52.44,0,0,0,1.9-13.75q1.54-59.94,2.81-119.89c.26-12,.61-24,.55-35.94,0-5-2.54-9.62-7.21-11.12-5.38-1.72-11.27-2-17-2.42-2.89-.18-2.94,2.13-2.58,4.66,1.13,7.89,2.92,15.86,2.68,23.74-1.1,35.62-2.81,71.23-4.32,106.84-.14,3.36-.45,6.7-.69,10.05a6.9,6.9,0,0,1-2.13-4c-4.31-22.73-8.18-45.56-13-68.17-3.13-14.58-7.51-28.92-11.87-43.21-.76-2.47-4.43-5.93-6.39-5.71-2.86.32-6.69,3-7.8,5.68a49.65,49.65,0,0,0-4.15,17.28q-1.47,56.47-2,113c-.08,9.26,1.44,18.55,2.49,27.8.29,2.53.9,5.7,4.65,5.3s3.48-3.53,3.52-6.15q.87-56,1.66-112C175.88,208.68,175.86,206.71,175.86,204.74Zm8.19,406.07c-.09-13.62-12.39-24.24-25.55-20.71-6.62,1.77-12.62,6.27-18.54,10.1-2.91,1.88-4.64,2.69-7.57,0-4.17-3.78-9.17-6.64-15-3.68-6.15,3.14-10,8.28-10.52,15.34-.67,8.35,3.51,14.08,10.64,17.59,10.46,5.16,19.79,11.59,26.67,21.2a6.53,6.53,0,0,0,1.71,1.8c2.2,1.38,3.71,1.26,5-1.55a20.22,20.22,0,0,1,5-6.82c7-5.91,14.41-11.27,21.29-17.27A19.78,19.78,0,0,0,184.05,610.81Zm171.1,235.13c0-14.31-13-24.88-26.75-20.81-6,1.78-11.47,5.78-16.7,9.45-3.33,2.33-5.35,3.13-8.81.07-6-5.28-11.16-5.61-16.35-2.21-11.54,7.56-11.83,23.87.15,30.65,11.1,6.3,21.87,12.64,29.37,23.31a2.91,2.91,0,0,0,.71.69c2.36,1.51,4,1.67,5.25-1.58a16.8,16.8,0,0,1,4.81-6.43c6.4-5.3,13.2-10.1,19.59-15.41C351.88,859.14,355.23,853.32,355.15,845.94Zm500.45-15c-2.41-1.75-4.59-3.56-7-5-4.47-2.77-9.11-3.11-13.6-.06-11.9,8-11.55,23.62.69,31,2.27,1.37,4.9,2.24,7,3.85,6.25,4.85,12.36,9.9,18.43,15,1.51,1.27,2.57,3.07,4,4.44,2.44,2.33,4.07,2,5.53-1.34a18.12,18.12,0,0,1,4.79-6.44c6.89-5.75,14.28-10.92,21-16.85,6.11-5.41,8.77-12.56,6.9-20.76-3.46-15.16-19.57-21.83-33.42-13.75C864.92,823.88,860.38,827.55,855.6,830.9ZM133.08,269c0-13.65-12.18-24.27-25.43-20.83C101,249.87,95,254.31,89.12,258.22c-3.19,2.13-5,2.35-8-.17-8.66-7.21-17.15-5.45-22.82,4.27C53,271.48,56,282,66.06,287.23c10.5,5.4,20.17,11.63,27.13,21.42a8.63,8.63,0,0,0,1.73,1.79c2.24,1.78,3.61,1.18,5-1.35a24.93,24.93,0,0,1,5.4-7.15c6.22-5.25,12.9-9.95,19.15-15.18C129.91,282.2,133.27,276.39,133.08,269ZM240.82,374.67c-2.36-1.71-4.42-4-7-4.85-3.45-1.12-7.68-2.34-10.85-1.31-11.09,3.63-14.92,19-7.1,27.75a32.63,32.63,0,0,0,9.23,6.59c8.85,4.57,16.78,10.15,22.74,18.27a16.71,16.71,0,0,0,2.67,3c2.48,2.07,4.1,2,5.45-1.53a16.49,16.49,0,0,1,4.86-6.4c6.4-5.3,13.3-10,19.52-15.5a29.51,29.51,0,0,0,7.25-9.92c3.52-7.9,1.06-17.41-5.22-23.37a21.39,21.39,0,0,0-25-3.52C251.69,366.79,246.57,370.87,240.82,374.67ZM903.85,274c0-18.76-17.68-29-32.94-20.81a58.3,58.3,0,0,0-11,7.69c-3.16,2.81-5.3,2.63-8.38-.14-4.25-3.82-9.23-6.07-15-3.08-12.36,6.35-14,23.71-2.1,30.83,11.32,6.81,22.74,13.14,30.58,24.21a1.41,1.41,0,0,0,.35.34c2.39,1.72,3.9,1.57,5.32-1.46a20.25,20.25,0,0,1,5.21-6.73c6.73-5.67,13.9-10.83,20.58-16.56C901.26,284.15,903.76,278.56,903.85,274ZM643,374c-2-1.55-3.63-3-5.4-4.19-6.72-4.68-12.62-4.05-18.26,1.85-8.81,9.21-7,22.39,4.58,28.52,10.73,5.68,20.69,12,27.82,22.11a5.56,5.56,0,0,0,1.42,1.4c2.31,1.57,3.62,1.14,4.87-1.64a19.83,19.83,0,0,1,5.12-6.79c7-5.9,14.6-11.08,21.18-17.37a24.81,24.81,0,0,0,6.41-12c2-8.7-1.3-16.16-8.64-21.31-7.68-5.4-16-5.33-24-.91C652.89,366.57,648.23,370.41,643,374Zm161.42,79.6c-3.69-2.63-6.77-5.2-10.18-7.19-6.82-4-15.6-2-21.13,4.4-4.89,5.69-5,12.61.11,19.12a40.09,40.09,0,0,0,8.61,8.2c8.66,5.89,17.68,11.25,26.42,17,3.41,2.26,4.8,1.62,6.64-2.06,3.23-6.48,7.4-12.47,11-18.77,2.79-4.89,5.8-9.73,7.82-14.94,2.68-6.91.45-12.73-5.14-16a14.29,14.29,0,0,0-17.8,2.65C808.64,448.37,806.73,450.89,804.45,453.62Zm53.89,143.59c1.51-2.38,2.22-3.15,2.53-4.05,2.72-8,7.18-14.85,12.61-21.32,2.82-3.35,4.69-7.66,6.33-11.8,3.24-8.12,1.37-14.35-4.8-17.8-6.51-3.63-13.75-2-19.1,4.4-1.58,1.88-3.06,3.83-4.83,6.05-2.83-2.16-5.06-4.65-7.85-5.8-4-1.64-8.6-3.72-12.56-3.12-14.21,2.16-19.79,17-9.26,26.57C832.48,580.38,845.63,588.12,858.34,597.21Zm-713.09,174c.87-1.52,1.48-2.65,2.14-3.74,4-6.65,8.06-13.24,12-19.94a103.4,103.4,0,0,0,6.75-12.73c3.16-7.78,1.33-13.94-4.57-17.45-6.18-3.68-13.67-2.25-18.85,3.65-1.83,2.08-3.55,4.25-5.43,6.51-3.45-2.51-6.39-4.95-9.62-6.94-6.77-4.15-15.64-2.5-21.26,3.71-5.38,6-5.59,13.12,0,19.88a45.4,45.4,0,0,0,9.12,8.39c7.39,5.09,15.07,9.78,22.66,14.58C140.33,768.54,142.65,769.75,145.25,771.23Zm156.87-616.9c-3.9-2.72-7.25-5.5-11-7.56-6.62-3.62-15.24-1.29-20.6,5.11-4.54,5.41-4.78,12.12,0,18.3a42.43,42.43,0,0,0,9.28,8.92c8.64,5.93,17.68,11.27,26.43,17,3.39,2.24,4.51,1.09,6.18-2.19,3.29-6.46,7.42-12.48,11-18.78,2.8-4.88,5.82-9.72,7.87-14.92,2.7-6.83.45-12.82-5.05-16a14.29,14.29,0,0,0-17.81,2.6C306.3,149.08,304.4,151.61,302.12,154.33Zm67.71,262.42c-3.46-2.5-6.51-5.06-9.89-7.08-6.74-4.05-15.69-2.24-21.22,4-5.14,5.8-5.21,13.38.3,19.95a44,44,0,0,0,8.78,8c8.53,5.77,17.39,11.07,26,16.75,3.6,2.39,4.81,1.1,6.55-2.36,3.18-6.31,7.23-12.18,10.78-18.31,2.73-4.72,5.71-9.38,7.75-14.4,2.93-7.21.95-13.16-4.64-16.62-5.81-3.6-13.7-2.36-18.57,3C373.67,411.91,371.87,414.27,369.83,416.75Zm293.4-237.12c2.6-2.38,4.79-4.47,7.07-6.45,3.38-2.94,7.15-5.49,10.14-8.76,3.95-4.31,3.9-10.13.6-14.66a11.57,11.57,0,0,0-14.23-3.71,27.18,27.18,0,0,0-6.71,4.19c-2.15,1.82-3.64,1.89-6,.16-4.59-3.37-8.7-2.29-11.65,2.54-3.08,5-1.25,10.23,4.21,14,5.13,3.53,9.86,7.65,14.78,11.49C662.18,179,663,179.46,663.23,179.63Zm183.83,545c-4.76-3.88-9.73-7.71-16.55-6-7.3,1.83-11.14,7-12.46,14.07-1.53,8.23.43,15.71,7.84,20,8.19,4.75,17.05,8.33,26,12.59,1.43-9,8.26-14.69,15-20.44,2.4-2.05,5.09-3.76,7.52-5.78,5.79-4.81,7.44-13.78,3.78-19.93-3.09-5.19-9.88-6.55-17.44-2.86C856.11,718.53,851.92,721.62,847.06,724.63Zm-47.77-97.56c-5-4.11-9.91-7.88-16.74-6.29-7.08,1.65-11.48,7-12.84,15.44-1.26,7.89,2,15.64,9.22,19.47,7.94,4.21,16.27,7.68,24.88,11.68,1.43-8.66,8-14.31,14.53-20,2.38-2.08,5.07-3.79,7.52-5.78,6.27-5.06,8.08-14.48,4-20.64-3.32-5.05-10.41-6-18.08-2.17a85.52,85.52,0,0,0-8.43,5.3C802,625,800.73,626,799.29,627.07ZM632.81,880.8c2.89-4.22,5.73-9.45,9.6-13.75,3.75-4.15,8.49-7.42,12.9-10.95,6.62-5.31,8.72-14.48,4.66-20.92-3.39-5.39-10.8-6.36-18.86-2-4.08,2.18-7.8,5-11.86,7.7-1.78-1.27-3.58-2.74-5.56-3.93-7.72-4.65-16.44-2.49-21.19,5.17a19.87,19.87,0,0,0,7.92,28.55C617.88,874.34,625.6,877.55,632.81,880.8ZM489.43,136.71c-1.17-.9-2.21-1.72-3.27-2.52-5-3.74-10.4-5.35-16.33-2.55s-8.92,7.9-9.7,14.19c-1.3,10.56,3.63,17.85,13.79,22.22,6.32,2.72,12.25,6.34,18.38,9.51.38.19.94,0,2,0,1.22-9.09,7.83-14.54,14.23-20.1,2.51-2.18,5.31-4,7.87-6.13,5.91-4.91,7.72-14.25,4-20.3-3.14-5.14-10.34-6.37-18-2.52C498,130.76,494,133.81,489.43,136.71Zm-404.2,665c-4.58-3.62-9.33-7.4-16-6.08a16.93,16.93,0,0,0-13,13.57c-1.75,8.87,1.15,17.16,8.56,21.19,8,4.37,16.54,7.85,25.16,11.85,2.68-11.61,12.33-18.08,21.4-25,.66-.51,1.33-1,1.94-1.57,5.1-4.71,6.46-14.31,2.82-19.73-3.17-4.69-9.72-6-16.71-2.7C94.64,795.49,90.3,798.65,85.23,801.74Zm410.18,39.14c-1.57-1.19-3-2.36-4.49-3.38-8.72-5.84-18.9-2.92-23.28,6.65-5,11-.18,22.59,11.15,27.64,6.74,3,13.2,6.66,19.81,10,.23.12.63-.08,1.39-.2,2.42-11.53,11.67-17.75,20.25-24.55a26,26,0,0,0,4.77-4.34c3.67-4.93,4-10.45,1.93-16.1-1.57-4.37-5.31-6.19-9.46-6a27.6,27.6,0,0,0-10.43,2.78C503.05,835.33,499.51,838.19,495.41,840.88ZM155.82,514c1.68-10.42,8.48-16.08,15.16-21.81,2.65-2.26,5.64-4.13,8.24-6.45,5.27-4.71,6.52-14,2.82-19.66-2.91-4.46-9.46-5.81-16.3-2.83-3.61,1.57-6.88,4-10.25,6.07-1.36.85-2.6,1.92-3.93,2.92-1.47-1.14-2.62-2.07-3.82-3-9.1-6.72-19.76-3.89-24.27,6.44-4.82,11.05.12,22.48,11.69,27.31,5.19,2.17,10.34,4.44,15.4,6.88C152.21,510.66,153.53,512.13,155.82,514ZM924.53,388.31c.73-.93,1.35-1.37,1.48-1.93,2.36-10,9.21-16.61,16.75-22.89A34.3,34.3,0,0,0,950.7,354c2.55-4.6,1.53-9.41-1.91-13.44-3.19-3.73-7.41-3.69-11.46-2a88.29,88.29,0,0,0-12.9,6.46c-3.17,2-5.15,1.84-8.13-.71-8-6.86-18.3-3.12-20.7,7.12-1.63,7,.53,12.48,6.46,16.42C910.5,373.46,919.1,378.88,924.53,388.31Zm-770-3C156.87,373,165.61,366.18,174,359a30.43,30.43,0,0,0,5.51-6.41,12.42,12.42,0,0,0-1-14.46c-3.46-4.24-7.94-3.95-12.28-2.21a114.81,114.81,0,0,0-13.36,6.68c-2.45,1.38-4,1.67-6.42-.53-8.7-7.84-19.37-4-21.66,7.48-1.33,6.72,1.23,11.8,6.64,15.45C139.82,370.63,148.5,375.93,154.56,385.3Zm308.17,14.89c2.33-10.33,8.58-17.44,16.24-23.65a49.93,49.93,0,0,0,8-8.2,11.93,11.93,0,0,0,0-15.23c-3.11-3.87-7.06-4.75-13.08-2.22a122.56,122.56,0,0,0-13.33,6.76c-2.25,1.28-3.57,1-5.64-.6a19,19,0,0,0-8.31-4c-5.72-.94-10.27,2-12.41,7.09-2.95,7-1.66,14.16,4.16,18.46C447,385,456.53,390.27,462.73,400.19ZM652.67,192.33c-1.72-1.58-3.07-3.63-4.9-4.26a8,8,0,0,0-6.21.47c-.91.57-1,4.05-.19,5.42a72.37,72.37,0,0,0,7.37,9.36c2.39,2.75,5.08,3.05,7.59.13a78.35,78.35,0,0,0,7.43-9.31c.87-1.42.79-5.17.07-5.49a10.2,10.2,0,0,0-6.66-.4C655.49,188.75,654.28,190.78,652.67,192.33ZM79.29,424.79c5.41-4.12,10.27-3.37,15.52.12-2.4-6.29-.47-10.78,4.68-14.6-6.48-.19-10.7-2.89-12.74-9.4-1.36,7.11-6,9-13.47,9C79.27,414.09,81.77,418.39,79.29,424.79Zm135,239.46c-6.75.25-10.27-3.37-12.65-9.09-1.64,6.74-6.22,8.67-12.54,9.31,6.63,3.27,6.41,8.58,4.5,15.74,6-5.5,10.84-4.86,16.06-1.25C207.75,672.87,208.83,668.11,214.33,664.25ZM838.17,375.19c5.35-4,10.22-3.67,15.47.19-2.47-6.42-.43-11,4.73-14.94-6.75.29-10.61-2.86-12.82-9.22-1.37,7-6.1,9-12.33,9.47C838.63,364.39,840.05,369,838.17,375.19ZM723,846.9c5.58,3.86,6.42,8.71,4.81,14.73,5.28-4,10.12-3.79,15.31,0-2.1-6.2-.5-10.92,4.74-14.95-7,.68-10.24-3.17-12.53-10.12C733.26,843.67,729.91,847.31,723,846.9ZM917.57,488.06c-2,6.23-6,9-12.55,8.9,5.77,3.63,6.55,8.61,5.23,14.69,5.3-4.63,10.12-3.18,15.31,0-2.91-6.4.16-10.7,4.33-15C923,497.38,919.91,493.66,917.57,488.06ZM521.31,401.62c5.45,3.8,6.73,8.62,4.56,14.64,7.37-2.75,7.37-2.75,16.33-.12-3.32-6.27-.38-10.59,4.25-14.84-7.34,1.22-10.24-3.34-12.93-10.17C532,399,527.92,401.67,521.31,401.62ZM124.18,543c-2,6.24-6,9-12.45,9.06,5.49,3.84,6.75,8.54,4.64,14.7,5.28-3.92,10.25-4,15.62-.18-2.45-6.31-.32-10.71,4.73-14.64C130,552.08,126.21,549.08,124.18,543ZM775.26,387c5.37-4.42,10.22-3,15.44,0-2.49-6.39-.24-10.77,4.78-14.72-7,.64-10.48-3.09-12.78-8.95-1.84,6.4-5.89,9.08-12.36,9.12C775.23,376.29,777.59,380.62,775.26,387Zm23.23-211.25c7.38,3.41,7.78,8.49,6.12,14.56,5.23-4,10.09-3.8,15.37-.25-2.16-6.28-.12-10.74,4.8-14.62-6.84.4-10.32-3.24-12.23-9.22C807.88,173.93,807.88,173.93,798.49,175.77ZM785.24,541.34c-1.83,6.51-6.25,8.87-12.62,9.18,5.42,3.7,7,8.26,4.76,14.81,5.28-4.66,10.25-3.7,15.82-.36-3-6.44-.3-10.65,4.53-14.66C791.2,550.47,787.22,547.75,785.24,541.34ZM210.32,526.18c-6.92.32-10.3-3.25-12.56-9.32-1.32,7-6.16,8.86-12.31,9.55,5.51,3.75,6.74,8.46,4.69,14.57,5.33-4.09,10.33-4,15.65,0C203.66,534.76,204.83,530,210.32,526.18Zm363.91-388c5.3-5.39,10.18-2.67,15.4-.27-2.77-6.42-.2-10.7,4.71-14.67-7.07.71-10.42-3.21-12.8-9-1.67,6.56-5.95,8.94-13.5,8.78C574,127.26,576.44,131.59,574.23,138.18ZM915.9,633.5c5.2-4.11,10.16-3.81,15.43-.16-2.25-6.34-.11-10.74,4.86-14.86-7.36,1-10.35-3.3-12.88-9.1-1.43,6.8-5.82,9.25-12.34,9.42C916.57,622.55,917.65,627.32,915.9,633.5ZM902.24,756.34c5.33-4.09,10.31-3.57,15.68,0-2.72-6.44-.12-10.87,4.53-15-7,.92-10.11-3.12-12.59-10-2,7.4-5.64,10.59-12.53,10.24C902.81,745.41,904.51,750,902.24,756.34ZM535,644.67c5.41,3.84,6.69,8.52,4.6,14.69,5.15-3.52,10-4.2,15.29-.16-1.92-6.32.15-10.9,5-14.92-7.24,1.06-10.17-3.18-12.65-10C545.37,641.64,541.79,644.93,535,644.67ZM871.7,494.05c-6.51.5-10.41-2.55-12.43-8.81-1.71,6.56-6,9.05-12.42,9.39,5.49,3.72,6.65,8.45,4.8,14.55,5.2-3.9,10.06-3.67,14.92.05C866.87,500.56,866.87,500.56,871.7,494.05ZM725.5,357.71c5.89,3.67,6.8,8.61,4.9,14.79,5.26-4.46,10.25-3.55,15.66-.35-3-6.48.07-10.6,4.55-14.74-6.83.65-10.29-2.8-12.64-8.89C736.42,355.16,732.14,357.48,725.5,357.71Zm-267.63-148c5.16-3.55,10-3.67,15.29.18-2.06-6.15-.29-10.8,4.93-14.4-7.91-2.37-7.91-2.37-13.32-10-.63,7.4-5.51,9.21-13,9.56C458.34,199.08,459.79,203.55,457.87,209.74ZM171.25,855.2c-2.63-6.1-.88-10.8,4.46-14.84-7.29,1.17-10.12-3.52-12.52-8.72-1.9,2.94-2.89,5.75-4.88,7.17s-4.85,1.26-8.45,2.05c6.19,3.66,7.53,8.44,5,14.62C162.45,852.3,162.45,852.3,171.25,855.2Zm82.92-524.11c5.3,6.75,5.3,6.75,5.29,15.62,5-4.16,10-4.16,15.32-.22-2.77-6.47-.22-10.89,4.67-15.11-7.29,1.24-10.18-3.31-12.94-9.86C264.83,329.1,261,331.77,254.17,331.09ZM731.72,165.21c-3.37-7.4-1.28-12,3.69-15.85-6.67.16-10.48-2.86-12.62-9.2-1.43,7-6.14,9-12.38,9.5,5.6,3.63,6.7,8.38,4.92,14.8C720.6,159.19,725.47,161.12,731.72,165.21ZM424.94,665.68c-6.7.14-10.42-3-12.26-9.22-2.16,6-5.78,9.52-12.71,9.17,5.63,3.59,6.51,8.56,5.37,12.87H420C418.26,674.2,419.67,669.55,424.94,665.68ZM299.76,642.29c-1.83,6.36-6,8.84-12.47,9.13,5.62,3.62,6.43,8.58,5,14.59,5.27-4.22,10.12-3.46,15.36,0-2.36-6.21-.66-10.77,4.61-14.79C305.44,651.64,302,648.22,299.76,642.29ZM902.64,437.78c-2.44-6.33-.36-10.76,4.82-15-7.51,1.38-10.2-3.42-12.88-10-1.69,7.7-5.78,10.32-12.3,10.41,5.64,3.72,6.7,8.6,4.93,14.71C892.49,433.87,897.33,433.92,902.64,437.78ZM74.57,175.62c5.48,3.72,6.46,8.62,4.76,14.74,5.32-4.28,10.17-3.77,15.44,0-2.17-6.27-.63-11,4.79-15-7.07.85-10.21-3.36-12.83-8.77C85,173,80.87,175.32,74.57,175.62ZM198,475.06c-1.89,6.32-6.15,8.9-12.64,8.63,4.88,6,4.88,6,5.3,15.34,4.91-4.38,9.89-4,15.44-.25-3.3-6.41-.46-10.64,4.08-14.78C203.71,484,199.88,481.23,198,475.06Zm-16.44-72.12c-1.37,7-6.32,8.7-12.35,9.55,5.93,3.48,6.12,8.52,4.26,15.66,6-5.58,10.79-4.71,16-1.27-2.1-6.15-.61-10.79,4.61-14.63C187.6,412.08,183.55,409.41,181.54,402.94Zm-117.7,59c-1.64,6-5.16,9.44-12,9.18,5.36,3.91,6.47,8.77,4.69,14.82,5.34-4.21,10.19-3.8,15.39,0-2.12-6.2-.48-10.9,5-14.47C68.79,469.07,68.79,469.07,63.84,461.94ZM383,360.51c5.39,3.85,6.7,8.65,4.82,15.06,5.22-5,10.21-3.52,15.5-.45-2.67-6.43,0-10.8,4.6-14.77-6.91.47-10.41-2.94-12.42-9.05C393.57,357.5,389.74,360.65,383,360.51ZM641.24,663.84c-5.21.72-8.41-3.16-10.67-8.85-1.55,6.7-6.1,8.93-12.4,9.45,5.67,3.6,6.58,8.39,5,14.4,5.31-3.94,10.17-3.7,13.77-.64C638.32,673.5,639.73,668.85,641.24,663.84Zm-273.95-457c-3.27.15-5.19-.08-6.9.41s-4.54,1.44-4.82,2.66c-.38,1.65.72,4.18,2,5.6,4.77,5.29,14.69,5,19.66-.25,2.73-2.9,2.28-5.48-1.61-6.75A57.13,57.13,0,0,0,367.29,206.85Zm235.67-.4-.12.44c-1.83.12-3.76-.1-5.44.44s-4.21,1.56-4.65,2.92.81,3.78,2,5.12c4.88,5.51,15.13,5.23,20-.34,2.27-2.6,2.22-5-1.23-6.18A98.86,98.86,0,0,0,603,206.45ZM472.12,765.55l-1.72.21c-3.69,5.36-5.41,11.28-4.09,17.76.67,3.33,3,5.82,6.65,5.46,3.83-.37,4.12-3.87,3.61-6.48C475.46,776.78,473.65,771.19,472.12,765.55ZM538,760.19l1.55.56c5.38-3.28,7.32-8.63,7.91-14.51.16-1.63-1.25-3.42-1.94-5.13-1.41,1.23-3.62,2.23-4.07,3.75C539.94,749.87,539.09,755.06,538,760.19Z"/><path d="M265,794.23l-34.84-11.75c2.06-11.91,4.17-24.17,6.31-36.42,3.23-18.53,6.52-37,9.72-55.58,1.4-8.12,3.25-9.22,11.1-6.21,34.86,13.36,71.15,19.59,108.25,21.84,44.91,2.72,89.53-.76,134.14-5.64,21.67-2.38,43.46-3.69,65.2-5.46,1.64-.13,3.3,0,5.5,0,.34,6.25.67,12.28,1,18.63-2.41.14-4.11,0-5.63.41a18.44,18.44,0,0,0-3.9,2.24,19.87,19.87,0,0,0,4,2.6c1.33.48,2.91.25,5.3.37-.75,9.12-1.73,18-2.13,26.91-.36,8-4.09,14.31-9.13,20a21.53,21.53,0,0,1-7.22,5.18c-6,2.68-10.49.62-13.35-5.93,8.72-3.22,12.42-10.27,12.46-19,0-3.36-1.72-8.3-4.22-9.67s-8.08-.51-10.41,1.53c-3.92,3.44-6.34,8.59-9.4,13q-2.6,3.74-5.21,7.45l-1.28-.92c.29-4.77.77-9.55.81-14.33,0-3.13-.12-6.87-4.21-7.47s-6,2.49-7.15,5.74c-2.1,6-1.74,11.78,2.31,17,2.38,3.08.39,11.65-3.22,12.78-1,.32-3.59-1.16-3.89-2.24a51,51,0,0,1-1.68-10.78c-.24-4.49,0-9,0-13.49,0-7.93-5.07-11.53-13.42-9,4.77,12.57-8.05,9.5-12.14,14.51l-2-.28q-1.24-11.13-2.48-22.27c-5.52.24-11.72,5.82-11.4,12.1.26,5.16,1.89,10.39,3.75,15.28,1.23,3.25,1.49,5.52-.49,8.64-4,6.27-6.61,13.14-4.66,20.84,2.06,8.15,9.21,13.21,16.57,11.83,7.86-1.47,12.54-8,10.66-16.93-1.54-7.25-4.63-14.18-7-21.25-.31-.93-.71-1.83-1.26-3.24l11.47-6.43c.39,5.59.49,10.24,1.1,14.82.47,3.58.93,7.4,2.5,10.57,3.9,7.81,13.13,8.43,18.32,1.45a32.67,32.67,0,0,0,3.78-7c2.27-5.43,2.18-5.47,8.92-6.74.68,9.33,5.78,15,14.84,16.93,11.73,2.47,19.29-3.79,26.08-13.76,0,4.38-.37,7.74.07,11,1.22,9.09,9.66,12.63,16.36,6.38,4.26-4,7.05-9.53,10.47-14.39a22,22,0,0,0,1.21-2.18c7.85,11.14,13.54,10.58,22.81-2.17,0,3.32,0,6.51,0,9.71.05,4.7.86,9.18,5.82,11.19A10,10,0,0,0,637,780.56c5-8.14,9.15-16.84,13.47-25.39a22.69,22.69,0,0,0,1.94-6.69c.24-1.52-.29-3.14-.47-4.72l-1.46-.11c-1.23,3.17-2.33,6.39-3.7,9.48-2.78,6.23-5.57,12.45-8.66,18.51-.7,1.37-2.68,2.09-4.07,3.11-.69-1.56-2-3.13-2-4.66.31-8.64.85-17.28,1.55-25.91.37-4.48-.88-7.85-5-9.88-4.66-2.26-7.64-.74-8.75,4.34q-1.94,8.76-4,17.5a9.83,9.83,0,0,1-1.4,3.71,65,65,0,0,1-4.83,5.14c-1.07-2.23-3-4.44-3.06-6.71-.17-6,.51-12,.76-17.95.31-7.64-3-10.33-11.35-8.88,0,5.18-.06,10.45,0,15.73.14,9.68-4.85,17.45-9.43,25.34-.62,1.06-2.33,1.48-3.54,2.19-.66-1.25-1.89-2.52-1.87-3.76.15-6.81.43-13.62,1-20.41.88-10.28,2-20.54,3.11-30.81,0-.3.3-.57.47-.87l8-1.71c.07-.61.13-1.22.2-1.83l-8.38-2.09c1-7.56,1.62-15.29-8.46-18.23,41.19-.84,81.52,3.19,121.5,14.06,1.93-10.92,3.87-21.35,5.61-31.81,1.64-9.85,4.48-11.79,13.85-8.81a292.55,292.55,0,0,1,90.81,47.28c.65.5,1.27,1,2.47,2-3.35,1.48-6.46,2.46-9.17,4.11-8.49,5.16-17.19,10.11-25.13,16-6.69,5-9.07,12.52-6.28,20.61,6.34,18.37,13.09,36.6,19.72,54.88.77,2.14,1.78,4.21,3.24,7.63-3.21-2.32-5.32-3.78-7.37-5.32A254.79,254.79,0,0,0,735.49,786c-3.77-1.63-4.77-3.45-4-7.49,4-22,7.69-43.94,11.44-65.93,1.47-8.66-1.35-13.52-9.66-16.68-5.28-2-10.58-4.1-16-5.62s-10-3.65-12.54-9.43c-1.67,9.41-3.33,18.82-5,28.42L733,720.64c-1.45,8.55-2.92,17.36-4.46,26.16q-5.82,33.45-11.69,66.89c-1.13,6.51-3.42,7.91-9.61,5.53-35.14-13.53-71.76-19.79-109.16-22.46-38.25-2.73-76.24.33-114.17,4.71-43.42,5-86.93,8.1-130.66,6.18A412.63,412.63,0,0,1,265,794.22Zm129.8-26.41c0,1.69,0,2.94,0,4.19-.11,5.39.42,10.76,6.36,12.81s10.17-1.43,13.83-5.65a10.27,10.27,0,0,0,1.81-2.38c4.09-9.23,8.22-18.46,12.05-27.8.6-1.46-.23-3.5-.4-5.27l-1.51-.17c-.66,1.6-1.33,3.21-2,4.81-2.81,6.76-5.37,13.63-8.55,20.2-1.19,2.45-3.82,4.19-5.8,6.25-.82-2.68-2.4-5.38-2.32-8,.22-7.47,1.09-14.92,1.76-22.37.38-4.16-.38-8.36-4.58-9.56a35.5,35.5,0,0,0-24.31,1.21c-2.19,1-3.86,3.65-5.15,5.9-1.39,2.41-2,5.27-3.06,7.87-3,7.19-5.93,14.41-9.23,21.45-.71,1.51-2.85,2.35-4.34,3.49-.73-1.75-2-3.48-2.08-5.26a97.62,97.62,0,0,1,.39-12c.37-4.81,1-9.6,1.41-14.41.3-3.84-.21-7.55-4.44-9.08s-7.61.2-10,3.58c-2.28,3.18-4.13,6.67-6.68,10.87,0-2.76.14-4.67,0-6.55a9.45,9.45,0,0,0-9.59-9c-2.47,0-3.49.74-3.28,3.56.36,5,.1,10,.19,14.93.13,8-.06,16,.79,23.84.23,2.15,3.4,5.14,5.68,5.65,3.95.87,3.65-3.31,4.41-5.85,2.93-9.86,5.66-19.8,8.81-29.59.74-2.29,2.85-4.13,4.33-6.18l1.56.84c-.22,2.08-.44,4.16-.68,6.23-1,8.57-2.3,17.12-2.74,25.72-.23,4.36,1.36,8.75,6.61,9.94s9.14-1,11.86-5.35c2.32-3.71,4.4-7.57,6.7-11.55C377.74,779.41,382.54,780,394.81,767.82Z"/><path d="M734.59,287.19a37.1,37.1,0,0,1-2.61,4.07c-3.27,4-6.17,8.42-10.09,11.61C712,311,700.48,308,695.35,296.25s-4.92-24.33-3.72-36.86c.14-1.49.42-3,.59-4.46a12.52,12.52,0,0,0-.54-2.16l-23.68,13c4.63,12,9.42,23,13.07,34.29a79.08,79.08,0,0,1,3.71,21.47c.42,13.27-7.11,22.69-18.91,25.34-12.08,2.71-25.3-3.37-30.8-14.26-6.17-12.21-5-24.58-.06-36.74a78.16,78.16,0,0,1,8.2-15.37c2.62-3.71,2.93-6.64.52-10.28a52.6,52.6,0,0,1-3-6.26c-1,1.11-1.68,1.9-2.37,2.7-6.82,7.94-13.75,15.8-20.38,23.9a13.88,13.88,0,0,0-3.21,7.25c-1.14,17.77-1.59,35.59-3,53.33-.57,7.05-2.67,14.06-4.75,20.87-4.48,14.69-12.6,20.85-31.42,20.15-22-.82-35.06-21.37-27.72-43.61,2.74-8.32,8.44-15.67,12.87-23.43a31.68,31.68,0,0,1,2.93-3.68,9.59,9.59,0,0,0-1.85-.16c-13.13,2.13-22.1-4.47-22.57-17.84-.41-11.45.58-22.95.92-34.43.07-2.31,0-4.62,0-7.08-5.38,2.83-10.76,5.51-15.94,8.54-1,.56-1.19,2.52-1.57,3.89-2.27,8.15-3.55,16.72-6.91,24.39-6.63,15.15-20,17.67-32.29,6.5s-15.19-25.79-12.68-41.18c1.35-8.31,4.93-16.6,9.11-24,5.7-10.12,14.92-13.88,24.23-11.91,10.22,2.17,16.89,9.76,18.71,21.49.58,3.75.83,7.56,1.23,11.34,8.47-.75,17.17-9.58,18-17.64,1.92-19.87,3.78-39.75,6.25-59.55.66-5.3,3-10.55,5.38-15.46,2.53-5.28,5.88-6.31,11.61-4.91,10,2.42,16.86,11.44,17.7,22.87a68.16,68.16,0,0,1-9.76,40.23c-9.14,15.28-11.24,31.7-12.29,48.64-.46,7.45-.38,14.95-.11,22.4.13,3.51,1.27,7.8,5.37,7.9,2.51.07,6.29-2.26,7.46-4.55,6.83-13.46,14.52-26.78,18.95-41.06,2.71-8.74.49-19.15-.28-28.75-.57-7.2.45-8.75,7.66-7.71,11.14,1.62,16.82,8.15,16.65,19.95-.15,10.49-.86,21-1.29,31.46-.09,2.08,0,4.17,0,6.25l2.13,1.78a46.38,46.38,0,0,1,3.16-5.6c3.6-4.78,7.37-9.45,11.11-14.13,3.91-4.9,5.24-9.77,3.58-16.44-3.79-15.25,3.61-28.11,18.26-34,1.14-.46,3.34-.83,3.63-.37a6.24,6.24,0,0,1,.59,4.1c-2.55,13.59.17,26.49,4.83,39.16a27.49,27.49,0,0,0,1.28,2.49c4.68-2.47,9.11-5,13.7-7.18a77.8,77.8,0,0,1,11.52-4.75,17.08,17.08,0,0,0,10.44-8.19c7.31-12,17-15.75,30.66-12.73,2.43.53,4.82,1.27,7.58,2,.89-4.51,4-4.66,7.77-4.18,13.32,1.69,19.31,8.47,18.31,21.78-.94,12.45-2.49,24.86-3.37,37.32a77.62,77.62,0,0,0,.57,16.41c.37,2.58,2.39,6.45,4.31,6.88s5.59-2,7.07-4.1a94.09,94.09,0,0,0,9.33-16.46c5.15-12.08,9.7-24.43,14.51-36.67.65-1.65,1.35-3.29,2.21-5.38,3.78,3.07,4,6.6,3,10.21-4.91,17.52-10.78,34.75-20.66,50.14-4.07,6.34-9,12.6-14.94,17.18-13.13,10.21-27.81,4-30.14-12.49-.93-6.65-.15-13.54-.15-20.33Zm-141.5,23.09c-14.65,8-26.26,17.39-31,32.86-4.18,13.71-2.23,26.69,8.93,36.59,7.06,6.26,15.27,8.19,18-5.74C593.09,353.28,593.05,332.34,593.09,310.28ZM710.4,286.84c.07,1.5.17,4,.32,6.47a11.25,11.25,0,0,0,.37,2.46c1.23,4.35,4,5.36,7.28,2.39a22.35,22.35,0,0,0,4.92-6.2c7.58-14.67,14.07-29.72,15.43-46.47.42-5.18-4.23-12.19-9.07-13.46-4-1.05-6.45.92-9.36,7.67-.33.76-.61,1.54-.88,2.33A162.93,162.93,0,0,0,710.4,286.84Zm-60.3-3c-8.07,12.23-13,24.15-9.89,37.91a18.11,18.11,0,0,0,5.68,9.05c7.27,6.21,14.31,3.39,15.82-6a26.65,26.65,0,0,0,.15-7C660.62,306,656.07,295.33,650.1,283.79ZM495.47,265.54c-.52,6.79-1.54,13.39-1.34,20a31.58,31.58,0,0,0,3.28,12.84c3.65,7.24,9.35,7.12,13.21,0,4.38-8.11,4.89-17,4.84-25.19Zm70.6-41.65,1.4.2c4.5-11.5,9.72-22.9,6.13-35.92-.57-2.06-2.44-3.76-3.7-5.62l-1.9.62ZM516.16,262.5c-2-4.8-3.33-9-5.51-12.7-1.78-3-5-2.78-7.15-.26-1.31,1.55-2.72,5.08-2,5.92C504.85,259.34,509.18,262.08,516.16,262.5Zm77.11,21.9-.81,0c-4.3,7.85-8.59,15.7-13.47,24.64,4.8-3.1,8.7-5.48,12.42-8.12a4.74,4.74,0,0,0,1.77-3.22C593.39,293.3,593.27,288.85,593.27,284.4Zm59.37-53.32V219.73C647.72,224.55,647.76,227.74,652.64,231.08Zm103.65,8.37c1.27-6.79-1.6-10.06-7.19-8.51ZM573.78,176c.13-5.42-1.81-7.13-8.23-7C568.5,171.52,571,173.67,573.78,176Zm-61.25,66.41,1.39-.77c.15-4.21-2.5-6.13-6.89-6.67Z"/><path d="M302.23,227.42c0-5.36,3.29-4.76,6.62-4.41,13.83,1.42,20,8.33,19,22.1-.94,12.78-2.49,25.52-3.42,38.3a64.76,64.76,0,0,0,.61,14.92c.42,2.63,2.64,5,4,7.46,2.57-1.53,5.72-2.55,7.57-4.69a44.27,44.27,0,0,0,6.47-10.63c4.18-9.24,9.68-18.33,11.51-28.07,2-10.55.7-21.78.24-32.69-.23-5.48.15-6.63,5.52-6.48,11.67.32,18.69,7.06,18.68,18.85s-.74,23.31-1.14,35c0,1.3,0,2.61,0,5.25,2.49-2.42,4.26-4,5.88-5.72,9-9.48,15.53-19.5,15.1-33.79-.74-24.45.32-48.94.19-73.41,0-5.91-1.6-11.84-2.78-17.7-.69-3.39.32-5,3.69-4.4,5.21.92,10.62,1.51,15.49,3.4,8.08,3.13,11.33,10,11.13,18.35-.29,12.32-.65,24.64-1.25,36.95-.57,11.48-1.5,22.93-2.25,34.4a20,20,0,0,0,.34,2.73,51,51,0,0,1,3.5-4.35c3.31-3.25,6.35-7,10.16-9.46,7.28-4.79,16.3-2.72,20.09,5.08a51.64,51.64,0,0,1,5,18c1.34,16.8-1.8,32.94-11.15,47.23a45.91,45.91,0,0,1-11.79,12c-6.49,4.6-13.78,5.86-20.87.41a7.14,7.14,0,0,0-1.11,1.07c-1.36,2-2.8,5.86-4,5.78-3-.19-6.66-1.42-8.65-3.55-5.11-5.5-6.1-12.84-6.47-20s-.08-14.5-.08-22.92c-7.36,7.57-13.68,13.84-19.67,20.43-1.12,1.24-1.14,3.72-1.23,5.64-.82,16.79-1.09,33.62-2.47,50.36a106.48,106.48,0,0,1-5.27,23.81c-4.35,13.44-10.12,18.73-29.3,19.8a29.4,29.4,0,0,1-29-19c-5.4-14.14-1.76-27.14,5.78-39.45,1.8-2.94,3.93-5.68,6.06-8.72-.69-.21-1.13-.49-1.52-.43-12.44,2-21.41-5.18-22.13-20-.29-5.88-.05-11.78-.05-18.52-2.28,3.45-4,6.4-6.08,9.11-5.54,7.33-12,13.52-22.14,11.43-9.76-2-12.49-10.39-14.24-18.64-3.1-14.57-3.1-29.19,2.79-43.19,7.7-18.27,19.9-24,38.83-18.72C299.38,226.55,300.32,226.85,302.23,227.42Zm53.7,82.85c-14.37,7.63-25.4,16.85-30.75,31.44-5.06,13.83-1.37,29.94,8.43,38.17,8.84,7.42,15.36,5.59,17.87-5.48C356.2,353.63,355.34,332.46,355.93,310.27Zm63.21-21.33c1,5,1.5,10.18,3.05,15,1.49,4.63,5.78,5.86,9.59,2.84a26.94,26.94,0,0,0,6.5-8c6.64-12.12,10-25.35,11.7-38.93a78.5,78.5,0,0,0,.07-18.32c-.63-5.63-4.59-7.22-9.4-4.22a28.74,28.74,0,0,0-6.88,6.38C423.17,256.85,418.79,272,419.14,288.94Zm-144.76-2.47A79.89,79.89,0,0,0,275,295c.89,5.27,4,6.33,8,2.84a13.12,13.12,0,0,0,2.61-3c9.15-15.83,16-32.45,17.31-51,.3-4.19-5.12-11-9.32-11.82-5.55-1.14-7.23,3-8.8,6.92C278.6,254,275.65,269.83,274.38,286.47Zm68.15,21.44c13-5.69,15.76-10.86,12.74-24Zm-29.81-77.35,7.67,8.9C321.4,232.64,319.24,230,312.72,230.56ZM412.8,155.29l-1.07,1.3a38.64,38.64,0,0,0,3.91,5.63c.76.8,2.44.74,3.7,1.06-.21-1.34.05-3.17-.72-3.94C417,157.7,414.77,156.61,412.8,155.29Z"/><path d="M273.11,564.64a32.94,32.94,0,0,0,1.08-3.46c7.2-37.42,14.61-74.8,21.4-112.29,1.76-9.73,1.51-19.81,2.31-29.72a4.34,4.34,0,0,1,1.64-3.09c10.33-5.54,27.56,2.18,30,13.54a45.39,45.39,0,0,1,.57,10.94c-1.53,43.29-3.6,86.56-4.53,129.86-.42,19.26,1.39,38.57,2.29,57.85a36.15,36.15,0,0,0,1.26,6.36c1.28,5.38-.27,7.46-5.86,7.53-9.56.12-17-3.88-22.47-11.71a48,48,0,0,1-8.47-27.31c-.1-17,.43-34,1.47-50.89,1.27-20.75,3.34-41.46,4.24-62.32-1.71,8.54-3.18,17.13-5.18,25.6-4.72,19.9-9.5,39.8-14.65,59.59-2.16,8.27-5,10.38-11.23,10.59a14.46,14.46,0,0,1-14.68-10.63c-1.72-6.71-2.2-13.75-3.07-20.66q-4.27-34.2-8.46-68.41a6.58,6.58,0,0,0-1.94-4.13c0,2.1,0,4.2,0,6.3q-.6,72.48-1.23,145c0,.83.28,1.86-.1,2.46-1.2,1.89-2.66,3.61-4,5.4-1.71-1.46-4.58-2.69-4.91-4.41-1.46-7.66-3-15.46-3-23.21,0-44.14.07-88.29,1-132.42.27-12.34,3.42-24.66,5.76-36.89.79-4.1,2.42-8.89,7.71-9.34,5.08-.44,7.6,3.65,9.75,7.43,6.76,11.92,10.08,25.1,12,38.41,3.89,27.17,6.86,54.47,10.22,81.72.09.75.24,1.49.37,2.24Zm40.93-145L313,421c2.25,2.56,4.41,5.22,6.83,7.61.72.72,2.21.67,3.34,1-.06-1.21.36-3-.27-3.53C320.1,423.69,317,421.72,314,419.61Zm-70.11,22.92-1.44.87a33.42,33.42,0,0,0,1.77,5.94c.4.82,2,1.05,3,1.55.32-1.14,1.26-2.65.85-3.36A34.68,34.68,0,0,0,243.93,442.53Z"/><path d="M568.54,492.58c-4.54,20.42-9,40.88-13.67,61.26-1.76,7.61-4.18,15.07-6.3,22.6-1.42,5-4.07,8.77-9.8,9.17s-10.88-1.43-13.66-6.49a36.14,36.14,0,0,1-4-12.65c-3.47-27.9-6.62-55.83-9.87-83.76l-1.36-.06c-.11,1.6-.3,3.21-.32,4.81q-.8,72.23-1.55,144.46c0,1.33.39,2.86-.13,4a36,36,0,0,1-3.57,5.13c-1.69-1.24-4.53-2.23-4.88-3.77-1.47-6.47-3.06-13.1-3.05-19.67.06-46.64.15-93.29,1.06-139.92.23-11.33,3.36-22.65,5.6-33.88.79-4,2.42-8.51,7.41-9s7.71,3.44,9.86,7.25c7,12.37,10.34,26.06,12.34,39.86,3.87,26.68,6.77,53.49,10.08,80.25A3.54,3.54,0,0,0,544,564.7c1.63-7.31,3.5-14.58,4.86-21.94,6.33-34.37,12.67-68.73,18.65-103.16,1.14-6.62.52-13.54,1.07-20.29a5.11,5.11,0,0,1,2.9-3.61c16.38-4.8,29.78,4.85,29.3,21.73-.82,28.64-2.47,57.26-3.45,85.9-1.14,33.46-3,66.95.48,100.39.41,3.95,1.43,7.85,2.16,11.77.83,4.41-.84,6.53-5.55,6.66-10,.29-17.74-3.87-23.26-12.11-6.76-10.08-9-21.68-8.69-33.37.46-20.46,1.9-40.91,3.24-61.35.93-14.26,2.37-28.48,3.59-42.72Zm24.65-61.41c1.43-6.15-1.86-9.31-9.66-10.43Zm-78.87,11.17-1.23.77a47.52,47.52,0,0,0,1.95,6.41c.33.74,1.78,1,2.72,1.45.41-1.12,1.5-2.67,1.11-3.29A40.18,40.18,0,0,0,514.32,442.34Z"/><path d="M642.52,544.38c2.31-13.85,4-26.89,6.72-39.7,4.66-21.7,10.65-43.13,23-61.87,5.31-8.07,12.23-15.31,19.38-21.88,8.11-7.45,18.31-7.23,28.3-4.1,7.64,2.4,11.92,8.67,11.84,17.81-.11,13.64-.74,27.29-1.29,40.93-.86,21.3-1.75,42.6-2.83,63.88-.17,3.39,1.27,4.5,4,5.64,8.83,3.62,11.13,10.39,6.2,17.86l-10-3.53a9.5,9.5,0,0,0-.77,2.07c-.3,23-.94,46,2.7,68.79,0,.33.07.66.13,1,2.06,10.3,0,12.44-10.62,10.49-7.44-1.37-13.08-5.56-17.23-11.81-6.62-10-8.44-21.33-8.65-32.87s.62-23.29,1-34.94c0-1.29,0-2.58,0-4-8.9,0-17.67-.31-26.41.08-10.83.48-11.23.72-11.45,11.33-.44,21-.37,42-.52,62.94,0,4,.85,9.12-4.44,9.72-5,.57-5.66-4.89-6.13-8.25-1.84-13.16-3.47-26.38-4.29-39.63-.62-10.11,0-20.31.3-30.46.1-3.17-.36-4.63-3.93-5.33-7-1.36-11.11-6.61-11.41-13.29-.13-2.89.31-4.44,3.94-3.34C634,543.14,638.17,543.57,642.52,544.38Zm15.45.18,37.56-2.21c6.23-37.16,9.12-105.87,4.84-117.68-1.58,1-3.13,1.91-4.52,3-9.61,7.58-15.39,17.86-19.87,28.91C664.71,484.38,661,513.75,658,544.56Zm64.38-120.87L720,424.77c1.3,3.27,2.47,6.61,4,9.78.37.78,1.84,1,2.8,1.53.38-1.15,1.41-2.63,1-3.38C726.24,429.58,724.21,426.67,722.35,423.69Z"/><path d="M422.57,557.32c-10.67.47-22.27.88-33.85,1.68-1,.07-2.61,2.73-2.63,4.2-.33,22.32-.44,44.65-.62,67,0,2.32.45,4.85-.32,6.91s-2.82,3.64-4.31,5.44c-1.58-1.46-4.17-2.68-4.57-4.41-2-8.73-4.39-17.53-4.87-26.41-.85-15.77-.53-31.62-.44-47.43,0-3.32-.33-5-4.14-5.72a13.67,13.67,0,0,1-11.41-13.84c0-2.49.53-3.61,3.54-2.89,13.52,3.21,13.33,3.08,15.16-11.12,3.72-28.9,10.44-57,24.31-82.91,5.62-10.52,12.77-19.85,22.45-27.12,8.67-6.51,18.18-6.91,28-4,7.64,2.27,12.12,8.33,12,17.09-.16,16.32-.86,32.64-1.5,49q-1.1,28-2.52,55.93c-.17,3.44.68,5.2,4.2,6.54,8.88,3.4,11.14,10.56,6,17.79l-9.82-3.6a9,9,0,0,0-.76,2.27q1.08,33.18,2.25,66.35a32.8,32.8,0,0,0,1.24,6.36c1.35,5.6-.3,7.77-6.09,7.79-10.7.05-18.47-5-23.68-14.06-7-12.16-7.67-25.66-7.7-39.23C422.55,578.73,422.57,568.6,422.57,557.32Zm-35.31-12.74,38.14-2.26c2.39-39.43,9-78.06,5.3-118.47-3.11,2.21-5.43,3.18-6.76,4.92-5.52,7.21-12,14.06-15.86,22.12C394.09,480.05,390.62,511.73,387.26,544.58Zm63.16-120.4c-.63,6.12,1.85,10.81,6.16,11.67C457.63,431,455.63,427.22,450.42,424.18Z"/><path d="M175.86,204.74c0,2,0,3.94,0,5.92q-.81,56-1.66,112c0,2.62.19,5.75-3.52,6.15s-4.36-2.77-4.65-5.3c-1.05-9.25-2.57-18.54-2.49-27.8q.48-56.48,2-113a49.65,49.65,0,0,1,4.15-17.28c1.11-2.66,4.94-5.36,7.8-5.68,2-.22,5.63,3.24,6.39,5.71,4.36,14.29,8.74,28.63,11.87,43.21,4.86,22.61,8.73,45.44,13,68.17a6.9,6.9,0,0,0,2.13,4c.24-3.35.55-6.69.69-10.05,1.51-35.61,3.22-71.22,4.32-106.84.24-7.88-1.55-15.85-2.68-23.74-.36-2.53-.31-4.84,2.58-4.66,5.71.38,11.6.7,17,2.42,4.67,1.5,7.18,6.17,7.21,11.12.06,12-.29,24-.55,35.94q-1.35,60-2.81,119.89a52.44,52.44,0,0,1-1.9,13.75c-3,9.75-11.23,12.69-20.15,7.64-6.35-3.61-10.34-9.28-13.36-15.73-8.68-18.56-13.39-38.31-17.05-58.31-2.72-14.89-4.67-29.93-7-44.9-.14-.91-.35-1.82-.52-2.73Zm51.47-64.54,6.13,8.9,1.41-1.44C235.18,143.13,233.32,141.34,227.33,140.2Z"/><path d="M265,794.22c.26,2,1,4.16.71,6.12-1.54,9.85-3.29,19.67-5.12,29.47-1.17,6.24-5,8.19-12.09,6A294,294,0,0,1,166,795.12c-3.39-2.4-6.7-4.93-10-7.41-.53-.39-1.05-.8-2-1.54,5.41-2.49,10.57-4.32,15.17-7.09a177.41,177.41,0,0,0,19.3-13.16c6.79-5.41,8.92-13.08,6.13-21.17-6.38-18.53-13.32-36.86-20.06-55.26-.68-1.83-1.52-3.6-2.78-6.57,2.52,1.77,4.09,2.81,5.59,3.94a258.32,258.32,0,0,0,52.29,31c4.06,1.78,4.91,3.75,4.19,7.81-3.92,21.94-7.59,43.92-11.37,65.88-1.43,8.26,1.41,13.45,9.25,16.4,5,1.88,10,3.65,15.08,5.27,5.54,1.76,11.3,3.09,12.87,10.33l1.32-.58q2-14.34,4.07-28.7Z"/><path d="M184.05,610.81a19.78,19.78,0,0,1-6.82,16c-6.88,6-14.32,11.36-21.29,17.27a20.22,20.22,0,0,0-5,6.82c-1.3,2.81-2.81,2.93-5,1.55a6.53,6.53,0,0,1-1.71-1.8c-6.88-9.61-16.21-16-26.67-21.2-7.13-3.51-11.31-9.24-10.64-17.59.57-7.06,4.37-12.2,10.52-15.34,5.81-3,10.81-.1,15,3.68,2.93,2.67,4.66,1.86,7.57,0,5.92-3.83,11.92-8.33,18.54-10.1C171.66,586.57,184,597.19,184.05,610.81Zm-56.28,19.56c6.6,5,12.5,9.52,18.53,13.87a3.32,3.32,0,0,0,3-.2c6.36-4.56,12.62-9.26,18.87-14,.37-.28.32-1.11.88-3.28-4.46,1.46-9.36,1.55-11,3.91-3.4,4.91-6.84,7.17-13.14,5.25.73-3.06,1.46-6.15,2.39-10.05l-5.06,3.91-2.73-2.52c-1.82,1.29-3.38,2.41-5.13,3.67-.45-1.91-.76-3.27-1.22-5.24Zm24.74-28.2,6.72-6.23,2.15,4.11,4.75-3,1.36.84q-3.57,7.22-7.13,14.45c1.78-.62,2.63-1.9,3.7-3,1.93-1.94,2.72-6.17,7.21-3.4.63.39,3.34-1.83,4.44-3.31.49-.67-.27-2.83-1.09-3.78-5-5.79-11.36-7.06-18.55-5.24-10.67,2.71-20.2,12.8-20.32,22.07,3.57-4.5,6.87-8.64,10.13-12.79C147.89,600.38,149.87,597.82,152.51,602.17Zm-28.49,15,1,.92,9.32-12.36c-5.84-7.28-11.32-9.32-16.44-6.42-5.39,3.06-8.18,9.37-6.26,14.49l10.57-13.41.84.5c-.29,1.89-.59,3.78-1,6.31l6.23-4.79.77.47Zm-3.35,10.48,6.92,1.6c.69-4.37,1.28-8.14,1.87-11.9l-.68-.36Zm-2.93-2.3,4.89-11.72-1.22-.64c-2.49,3.2-5,6.41-7.72,9.94Z"/><path d="M355.15,845.94c.08,7.38-3.27,13.2-8.73,17.73-6.39,5.31-13.19,10.11-19.59,15.41a16.8,16.8,0,0,0-4.81,6.43c-1.3,3.25-2.89,3.09-5.25,1.58a2.91,2.91,0,0,1-.71-.69c-7.5-10.67-18.27-17-29.37-23.31-12-6.78-11.69-23.09-.15-30.65,5.19-3.4,10.35-3.07,16.35,2.21,3.46,3.06,5.48,2.26,8.81-.07,5.23-3.67,10.71-7.67,16.7-9.45C342.14,821.06,355.11,831.63,355.15,845.94ZM300.3,863.69V851.23L292.16,862l.77,1.6h7.51c.4,1.23.46,2.78,1.26,3.64a34.18,34.18,0,0,0,5.06,4c4,2.88,8.06,8,12.1,7.95s8.13-5,12.15-7.94c3.11-2.24,6.14-4.6,9.2-6.91-4.34-1.14-8.88-2.94-11.19,1.23-3,5.33-6.78,7.06-13,5.35l2.41-10L312.79,865l-1.71-3.1-5.56,3.94c-.43-1.81-.78-3.25-1.21-5.06ZM347.87,837c-5.09-8-12-10.73-20.53-8.6-10.54,2.64-19.8,12.34-20.64,22.21l13.51-16.52,3.46,2.79,6.6-6c.91,1.61,1.58,2.79,2.24,4l4.8-3.11,1.38.86-7.23,14.57c2.38-1.4,3.86-3.46,5.57-5.31.83-.9,2.68-2.26,3-2C344.38,843,345.21,838.29,347.87,837Zm-42.4,3.54c-6.19-7.19-11.41-9.15-16.28-6.5-5.43,2.94-8.28,9.09-6.45,14.51l10.53-13.2.77.54c-.21,1.79-.42,3.58-.72,6.08l6-4.72.8.45-5,14.7,1,.43Zm-11.78,8.06-1.26-.67-7.58,10,4,2.31Z"/><path d="M855.6,830.9c4.78-3.35,9.32-7,14.32-9.94,13.85-8.08,30-1.41,33.42,13.75,1.87,8.2-.79,15.35-6.9,20.76-6.71,5.93-14.1,11.1-21,16.85a18.12,18.12,0,0,0-4.79,6.44c-1.46,3.32-3.09,3.67-5.53,1.34-1.44-1.37-2.5-3.17-4-4.44-6.07-5.08-12.18-10.13-18.43-15-2.08-1.61-4.71-2.48-7-3.85-12.24-7.42-12.59-23-.69-31,4.49-3,9.13-2.71,13.6.06C851,827.34,853.19,829.15,855.6,830.9Zm-8.25,27.74c.56-4.4,1.11-8.81,1.83-14.48l-8.43,11,6.66,3.44c5.56,4.17,11.21,8.24,16.66,12.55,2.32,1.84,4,2.07,6.46.1,5.07-4,10.44-7.72,15.64-11.62a19.41,19.41,0,0,0,2.43-2.6c-.27-.56-.53-1.12-.8-1.69-3.41,1-8.14,1-9.93,3.33-3.46,4.44-6.39,7.83-13,5.34.62-2.91,1.28-6,2.19-10.32-2.92,2.78-5.13,6.2-7.76,1.74L854,859.18c-.47-1.82-.83-3.23-1.31-5.13ZM879,824c.89,1.86,1.44,3,2,4.12l4.77-2.89,1.34.85q-3.51,7.21-7,14.45c2.31-1.41,3.71-3.41,5.32-5.23.84-1,2.7-2.45,3-2.24,4.46,3.45,5.41-1.39,7.81-2.78-4.36-8.12-11.91-11-21.37-8.35-9.92,2.75-19.67,13.52-19.13,21.71,3.18-4.1,6.16-7.86,9.06-11.68,2.18-2.89,4.29-5.73,7.7-2Zm-35.28,21.22.88.64c.75-.84,1.55-1.64,2.23-2.54,2.4-3.16,4.75-6.36,7.06-9.46-5.21-7-11.19-9.29-16.23-6.51-5.32,2.93-8.34,9.42-6.47,14.62l10.7-13.53.8.45c-.24,1.87-.48,3.74-.82,6.37l5.93-4.66.86.78Q846.21,838.32,843.74,845.24Zm-6.19,8.11,4.76-11.52C833.68,849.05,833,850.78,837.55,853.35Z"/><path d="M133.08,269c.19,7.41-3.17,13.22-8.62,17.78-6.25,5.23-12.93,9.93-19.15,15.18a24.93,24.93,0,0,0-5.4,7.15c-1.38,2.53-2.75,3.13-5,1.35a8.63,8.63,0,0,1-1.73-1.79c-7-9.79-16.63-16-27.13-21.42C56,282,53,271.48,58.29,262.32c5.67-9.72,14.16-11.48,22.82-4.27,3,2.52,4.82,2.3,8,.17,5.85-3.91,11.91-8.35,18.53-10.07C120.9,244.71,133.06,255.33,133.08,269Zm-14.14,18.1c-6.49-1.59-10.67-1.23-12,1.61-2.71,5.58-6.68,7.18-12.81,5.3l2.23-9.93-5.84,4.49-1.31-3.61L83.49,289l-1.34-5.35L77,288.51c6.5,4.91,12.41,9.43,18.43,13.82a2.85,2.85,0,0,0,2.65,0C104.79,297.53,111.44,292.59,118.94,287.08ZM85.16,273.34c3.27-4.14,6.56-8.26,9.79-12.43,2-2.63,4.06-4.74,6.69-.9,2.36-2.11,4.41-3.94,6.65-6l2.16,4.05,4.76-3.08,1.4.9q-3.6,7.25-7.19,14.47a8.07,8.07,0,0,0,3.14-2.28c2.21-2.07,2.92-6.91,8-4.08.66.37,3.31-2,4.36-3.51.45-.66-.55-2.74-1.39-3.76-3.8-4.62-9-6.2-14.74-5.75C97.54,251.88,86.93,261.45,85.16,273.34Zm-1.74-9.58c-6-7.15-11.25-9.21-16.15-6.63a13.14,13.14,0,0,0-6.71,14.79L71.2,258.45l.91.53-1,6.27,6.21-4.74.76.5-5,14.54,1,.52Zm-6.85,23.72c.75-4.53,1.39-8.34,2-12.16l-.62-.47c-2.62,3.39-5.23,6.79-8.26,10.73Zm-4.89-15.82-1.31-.57-7.67,10,4.19,2.13Z"/><path d="M240.82,374.67c5.75-3.8,10.87-7.88,16.58-10.83a21.39,21.39,0,0,1,25,3.52c6.28,6,8.74,15.47,5.22,23.37a29.51,29.51,0,0,1-7.25,9.92c-6.22,5.49-13.12,10.2-19.52,15.5a16.49,16.49,0,0,0-4.86,6.4c-1.35,3.55-3,3.6-5.45,1.53a16.71,16.71,0,0,1-2.67-3c-6-8.12-13.89-13.7-22.74-18.27a32.63,32.63,0,0,1-9.23-6.59c-7.82-8.71-4-24.12,7.1-27.75,3.17-1,7.4.19,10.85,1.31C236.4,370.64,238.46,373,240.82,374.67Zm33.33,26.92-.94-2.29c-3.41,1-8.13,1-9.94,3.23-3.5,4.38-6.43,7.91-13.17,5.42.6-2.82,1.28-6,2.1-9.82l-4.9,3.68-2.81-2.38-5,3.46c-.51-1.74-.93-3.15-1.38-4.69l-5.44,3.26,1.74-12.1-.77-.27c-2.54,3.35-5.07,6.71-7.29,9.65,3.4,2.15,6.35,3.8,9.08,5.77,5.12,3.7,10.07,7.65,15.22,11.33.84.6,2.7.89,3.43.37C260.88,411.46,267.49,406.5,274.15,401.59Zm-8.67-17.42.79.68a67.13,67.13,0,0,1,4.91-6.05c.84-.82,2.43-.84,3.64-1.32a27,27,0,0,0,5.91-2.72c.37-.27-.38-3.23-1.36-4.05-2.37-2-5-4.06-7.86-4.95-12.69-3.91-29.76,8.09-31,22.09L254,371.42l3.74,2.48,6.66-5.86,1.89,4.14,5-3.17,1.3.9Q269,377,265.48,384.17Zm-49.14,2.07,10.78-13.78.87.61c-.24,1.81-.47,3.61-.81,6.17l5.95-4.7.84.45-5,14.72a5.75,5.75,0,0,0,3-2.25c2-2.64,4.14-5.22,5.94-8a3.81,3.81,0,0,0,.15-3.38c-2.77-4.46-9.8-7.05-13.89-5.37C218.41,373.08,215.07,379.25,216.34,386.24Zm6.41,11.15c1.74-4.14,3.33-7.95,4.92-11.76l-1.18-.66c-2.53,3.25-5.06,6.51-7.83,10.09Z"/><path d="M903.85,274c-.09,4.53-2.59,10.12-7.44,14.29-6.68,5.73-13.85,10.89-20.58,16.56a20.25,20.25,0,0,0-5.21,6.73c-1.42,3-2.93,3.18-5.32,1.46a1.41,1.41,0,0,1-.35-.34c-7.84-11.07-19.26-17.4-30.58-24.21-11.85-7.12-10.26-24.48,2.1-30.83,5.82-3,10.8-.74,15,3.08,3.08,2.77,5.22,3,8.38.14a58.3,58.3,0,0,1,11-7.69C886.17,245.05,903.88,255.27,903.85,274Zm-50,18.07c-.4-2-.67-3.36-1-5.14l-5.35,3.66c.63-4.92,1.11-8.64,1.76-13.77-3.37,4.41-5.94,7.78-8.64,11.3,3.14,1.31,5.69,1.87,7.61,3.28,5.62,4.11,11.07,8.46,16.41,12.92,2.11,1.75,3.55,1.52,5.59-.06,5.24-4.08,10.69-7.9,16-11.89a20,20,0,0,0,2.38-2.56l-.81-1.68c-3.41,1.06-8.3,1.08-9.92,3.4-3.38,4.81-6.76,7.2-13,5.43.66-3.08,1.32-6.19,1.82-8.52l-7.36,1.24-.23-1.35Zm42.34-28.92c-4-7.7-11.09-10.75-19.8-8.74-10.86,2.5-20.71,12.63-20.95,22l13.35-16.28,3.56,2.77,6.49-6c.92,1.62,1.6,2.81,2.25,3.93l4.7-2.9,1.33.91q-3.54,7.23-7.09,14.46c2.39-1.55,3.91-3.65,5.66-5.54.82-.88,2.68-2.17,3-1.89C893.1,269.16,893.81,264.3,896.19,263.18Zm-54.47-1.88,1,.22-.86,6.64,5.9-4.76.89.57-4.88,14.22a26.05,26.05,0,0,0,6.52-6.58c4.38-5.74,4.23-6.67-2-10.5a17,17,0,0,0-4.09-1.82c-4.53-1.3-7.76,1.1-10.44,4.23s-4.1,6.72-2.29,11.13Zm.58,13.29-1.2-.7-7.81,10.18,4.26,2C839.23,282,840.77,278.3,842.3,274.59Z"/><path d="M643,374c5.2-3.61,9.86-7.45,15.06-10.33,8-4.42,16.36-4.49,24,.91,7.34,5.15,10.59,12.61,8.64,21.31a24.81,24.81,0,0,1-6.41,12c-6.58,6.29-14.21,11.47-21.18,17.37a19.83,19.83,0,0,0-5.12,6.79c-1.25,2.78-2.56,3.21-4.87,1.64a5.56,5.56,0,0,1-1.42-1.4c-7.13-10.08-17.09-16.43-27.82-22.11-11.57-6.13-13.39-19.31-4.58-28.52,5.64-5.9,11.54-6.53,18.26-1.85C639.4,371.06,641,372.47,643,374Zm-14.84,24.3c3.18,1.49,5.77,2.26,7.83,3.76,5.64,4.11,11,8.59,16.59,12.78.88.66,2.77,1.18,3.45.7,6.86-4.8,13.56-9.83,20.31-14.79l-.65-1.31c-3.7-.11-8.22-1.47-10.54,2.34-3.09,5.06-6.55,7.44-13,5.34.72-3,1.46-6.12,2.31-9.69l-5.61,3.78-1.67-3.06-5.8,4.18c-.37-2.08-.6-3.43-.92-5.22L635,400.8c.65-5,1.13-8.7,1.77-13.67Zm45-30.08,1.44.83-7,14.48c2.34-1.47,3.75-3.47,5.4-5.26.84-.91,2.63-2.3,3.07-2,4.55,2.87,5.39-1.5,7.6-3.23-5.16-8.1-12.49-10.68-21.74-7.9-9.89,3-19,13.09-18.89,21.62,3.35-4.23,6.42-8.09,9.47-12,2.1-2.67,4.08-5.74,7.35-1.73l6.59-5.77c.87,1.79,1.41,2.9,2,4.07Zm-42.07,20.45,1,.52c2.69-3.53,5.46-7,8-10.65a3.48,3.48,0,0,0,.28-3c-2.32-4.45-10-7.39-14.26-5.64a12.86,12.86,0,0,0-7.42,15.14l10.59-13.58.9.51c-.3,1.85-.59,3.71-1,6.44l6.11-4.73.78.7Zm-1.23-4-1.06-.62L621,394.17l4,2.39Z"/><path d="M804.45,453.62c2.28-2.73,4.19-5.25,6.34-7.53a14.29,14.29,0,0,1,17.8-2.65c5.59,3.25,7.82,9.07,5.14,16-2,5.21-5,10.05-7.82,14.94-3.59,6.3-7.76,12.29-11,18.77-1.84,3.68-3.23,4.32-6.64,2.06-8.74-5.79-17.76-11.15-26.42-17a40.09,40.09,0,0,1-8.61-8.2c-5.16-6.51-5-13.43-.11-19.12,5.53-6.43,14.31-8.39,21.13-4.4C797.68,448.42,800.76,451,804.45,453.62Zm.73,6.32c-1.57-2-2.33-3.64-3.6-4.52-3.6-2.49-7.15-5.46-11.2-6.8-5.39-1.78-12.59,2-15.34,6.93-2.43,4.33-2.25,8.76,3.39,13.25,9.79,7.8,20.51,14.43,31.2,21.79,5.16-7.46,9.59-13.67,13.8-20a79.67,79.67,0,0,0,5.68-10c2.9-6.15,1.72-11.22-2.91-14.05-5-3.08-10.73-1.6-14.74,4C809.43,453.32,807.6,456.28,805.18,459.94Z"/><path d="M858.34,597.21c-12.71-9.09-25.86-16.83-36.93-26.87-10.53-9.56-4.95-24.41,9.26-26.57,4-.6,8.57,1.48,12.56,3.12,2.79,1.15,5,3.64,7.85,5.8,1.77-2.22,3.25-4.17,4.83-6.05,5.35-6.38,12.59-8,19.1-4.4,6.17,3.45,8,9.68,4.8,17.8-1.64,4.14-3.51,8.45-6.33,11.8-5.43,6.47-9.89,13.32-12.61,21.32C860.56,594.06,859.85,594.83,858.34,597.21Zm-1.7-8.21c4.51-6.56,8.58-12.21,12.36-18a100.12,100.12,0,0,0,7.35-13c2.32-5.17.57-10.12-3.71-12.63s-9.47-1.7-13.1,2.31a57.49,57.49,0,0,0-4,5.67l-3.41,4.87c-3.48-3.23-6.26-6.65-9.79-8.93-6.35-4.09-15.1-2.1-19.7,3.81-3.79,4.88-2.73,9.81,3.49,16.17a17.78,17.78,0,0,0,2.95,2.68C838,577.55,847.09,583.1,856.64,589Z"/><path d="M145.25,771.23c-2.6-1.48-4.92-2.69-7.13-4.08-7.59-4.8-15.27-9.49-22.66-14.58a45.4,45.4,0,0,1-9.12-8.39c-5.56-6.76-5.35-13.93,0-19.88,5.62-6.21,14.49-7.86,21.26-3.71,3.23,2,6.17,4.43,9.62,6.94,1.88-2.26,3.6-4.43,5.43-6.51,5.18-5.9,12.67-7.33,18.85-3.65,5.9,3.51,7.73,9.67,4.57,17.45a103.4,103.4,0,0,1-6.75,12.73c-3.9,6.7-8,13.29-12,19.94C146.73,768.58,146.12,769.71,145.25,771.23Zm-6.9-37.9c-3.52-3.35-6.17-6.66-9.53-8.92-6.21-4.17-15.2-2.36-19.82,3.4-3.9,4.87-3,9.87,3.12,16.26a17.8,17.8,0,0,0,3.35,3c8.36,5.16,16.74,10.28,25.22,15.22.85.49,3.11.12,3.61-.61,6-8.81,12.07-17.57,17.44-26.75,3.54-6.08,2-11.73-2.75-14.52-5-3-10.68-1.47-14.76,4.11C142.19,727.28,140.39,730.25,138.35,733.33Z"/><path d="M302.12,154.33c2.28-2.72,4.18-5.25,6.35-7.52a14.29,14.29,0,0,1,17.81-2.6c5.5,3.22,7.75,9.21,5.05,16-2.05,5.2-5.07,10-7.87,14.92-3.61,6.3-7.74,12.32-11,18.78-1.67,3.28-2.79,4.43-6.18,2.19-8.75-5.77-17.79-11.11-26.43-17a42.43,42.43,0,0,1-9.28-8.92c-4.8-6.18-4.56-12.89,0-18.3,5.36-6.4,14-8.73,20.6-5.11C294.87,148.83,298.22,151.61,302.12,154.33Zm1.48,5c-5.08-3.61-9.1-7.43-13.87-9.59-5.77-2.61-13.62.85-16.91,6.21-2.72,4.43-2.29,9.09,3.58,14,6.79,5.73,14.61,10.25,22.08,15.15,3,2,6.18,3.5,9.78,5.51,6.33-10,12.58-19.17,18.12-28.79,3.69-6.4,2.17-11.92-2.89-14.77s-10.59-1.18-14.63,4.46C306.85,154.37,305,157.27,303.6,159.36Z"/><path d="M369.83,416.75c2-2.48,3.84-4.84,5.82-7,4.87-5.38,12.76-6.62,18.57-3,5.59,3.46,7.57,9.41,4.64,16.62-2,5-5,9.68-7.75,14.4-3.55,6.13-7.6,12-10.78,18.31-1.74,3.46-2.95,4.75-6.55,2.36-8.59-5.68-17.45-11-26-16.75a44,44,0,0,1-8.78-8c-5.51-6.57-5.44-14.15-.3-19.95,5.53-6.24,14.48-8.05,21.22-4C363.32,411.69,366.37,414.25,369.83,416.75Zm1.06,5.75c-3.39-3.19-6.16-6.63-9.68-8.92-6.38-4.16-15-2.29-19.79,3.6-4,4.93-3.67,10.25,3.49,15.94,9.4,7.47,19.92,13.53,30.62,20.64,6.74-10.59,13.05-20,18.75-29.68,3.21-5.48,2.36-10-1.15-13.28-4.51-4.26-11.42-3.45-15.72,2.09C375,416,373,419.41,370.89,422.5Z"/><path d="M663.23,179.63c-.25-.17-1.05-.66-1.79-1.23-4.92-3.84-9.65-8-14.78-11.49-5.46-3.74-7.29-8.93-4.21-14,2.95-4.83,7.06-5.91,11.65-2.54,2.36,1.73,3.85,1.66,6-.16a27.18,27.18,0,0,1,6.71-4.19A11.57,11.57,0,0,1,681,149.76c3.3,4.53,3.35,10.35-.6,14.66-3,3.27-6.76,5.82-10.14,8.76C668,175.16,665.83,177.25,663.23,179.63Zm-.41-13.47c-.64.1-1.09.21-1.54.24-2.65.15-5.29.27-7.94.41a84,84,0,0,0,6.42,6.25c1.27,1,3.68,2.29,4.61,1.75a122.37,122.37,0,0,0,10.71-7.54L674,165.48c-3.64,1.94-7.28,3.87-11.94,6.33C662.44,168.86,662.62,167.59,662.82,166.16ZM657,158.71c7.89-8,8.82-8.49,17-8.46-.92,1.94-1.79,3.8-3,6.29,1.84-1.15,3-1.9,4.21-2.62s2.55-1.52,3.83-2.27c-1-1.21-1.88-2.78-3.19-3.57C669.33,144.09,659.52,149.31,657,158.71Zm-6.08.28.84.67c1.44-1.91,2.87-3.83,5.41-7.2-4-1-7.2-2.71-9.7-2-2.13.62-3.45,4.07-5.14,6.27l1.5,1.13q2.6-3.11,5.21-6.19l.12,1.28,3.51.33C652.12,155,651.51,157,650.89,159Z"/><path d="M847.06,724.63c4.86-3,9.05-6.1,13.65-8.34,7.56-3.69,14.35-2.33,17.44,2.86,3.66,6.15,2,15.12-3.78,19.93-2.43,2-5.12,3.73-7.52,5.78-6.71,5.75-13.54,11.46-15,20.44-8.94-4.26-17.8-7.84-26-12.59-7.41-4.3-9.37-11.78-7.84-20,1.32-7.09,5.16-12.24,12.46-14.07C837.33,716.92,842.3,720.75,847.06,724.63Zm2.16,35.13c3-3.81,5.35-7.56,8.46-10.46,4.71-4.4,10-8.21,15-12.29,4.77-3.88,6.48-11.68,3.67-16.71-2.37-4.26-7.55-5.19-14.26-2.56a11.85,11.85,0,0,0-2.27,1c-4.43,2.88-8.83,5.81-13.42,8.85a19.43,19.43,0,0,1-2.32-2.25c-5.72-7.75-17.09-5.44-21.43,2.95-4.77,9.23-1.35,19.88,8.34,24.3C836.85,755.27,843,757.34,849.22,759.76Z"/><path d="M799.29,627.07c1.44-1.06,2.72-2.09,4.08-3a85.52,85.52,0,0,1,8.43-5.3c7.67-3.84,14.76-2.88,18.08,2.17,4.06,6.16,2.25,15.58-4,20.64-2.45,2-5.14,3.7-7.52,5.78-6.51,5.68-13.1,11.33-14.53,20-8.61-4-16.94-7.47-24.88-11.68-7.21-3.83-10.48-11.58-9.22-19.47,1.36-8.49,5.76-13.79,12.84-15.44C789.38,619.19,794.31,623,799.29,627.07ZM797.7,630a19.66,19.66,0,0,0-1.89-2.62c-6.72-6.94-16-5.83-20.84,2.45-4.58,7.84-3.15,18,4.5,22.62,6.81,4.14,14.61,6.66,22,9.91,5.79-10.11,13.67-16.66,22.26-22.55,5.58-3.82,7.51-12,4.5-17.31-2.53-4.43-8.42-5.54-15.2-2.1C808,622.94,803.48,626.33,797.7,630Z"/><path d="M632.81,880.8c-7.21-3.25-14.93-6.46-22.39-10.17a19.87,19.87,0,0,1-7.92-28.55c4.75-7.66,13.47-9.82,21.19-5.17,2,1.19,3.78,2.66,5.56,3.93,4.06-2.67,7.78-5.52,11.86-7.7,8.06-4.32,15.47-3.35,18.86,2,4.06,6.44,2,15.61-4.66,20.92-4.41,3.53-9.15,6.8-12.9,10.95C638.54,871.35,635.7,876.58,632.81,880.8Zm-4.9-36.56a25.65,25.65,0,0,0-2.08-2.82c-6.9-7.12-16.19-5.86-21.09,2.82-4.4,7.79-2.63,18.06,5,22.53,6.77,4,14.41,6.4,21.26,9.34,3.12-4,5.23-7.49,8.11-10.16,4.87-4.51,10.22-8.49,15.38-12.68,4.74-3.85,6.49-11.67,3.73-16.74-2.31-4.22-7.69-5.24-14.29-2.62a23.24,23.24,0,0,0-4.47,2.21C635.79,838.6,632.19,841.22,627.91,844.24Z"/><path d="M489.43,136.71c4.55-2.9,8.55-6,13-8.18,7.63-3.85,14.83-2.62,18,2.52,3.71,6,1.9,15.39-4,20.3-2.56,2.12-5.36,4-7.87,6.13-6.4,5.56-13,11-14.23,20.1-1,0-1.58.17-2,0-6.13-3.17-12.06-6.79-18.38-9.51-10.16-4.37-15.09-11.66-13.79-22.22.78-6.29,3.76-11.39,9.7-14.19s11.34-1.19,16.33,2.55C487.22,135,488.26,135.81,489.43,136.71Zm-1.16,2.86c-.46-.53-1.16-1.43-2-2.25-7-7.2-16.69-5.8-21.4,3.08-5,9.35-1.18,20,8.85,24.49,4.7,2.08,9.66,3.57,14.36,5.64,2.81,1.23,4.21.75,6.06-1.83a80.17,80.17,0,0,1,10.18-11.52c3.24-3.06,7.16-5.37,10.66-8.18,4.81-3.86,6.44-11.74,3.6-16.7-2.38-4.17-7.86-5.47-14.26-2.42C499,132.43,494.15,136,488.27,139.57Z"/><path d="M85.23,801.74c5.07-3.09,9.41-6.25,14.16-8.52,7-3.33,13.54-2,16.71,2.7,3.64,5.42,2.28,15-2.82,19.73-.61.56-1.28,1.06-1.94,1.57-9.07,7-18.72,13.44-21.4,25-8.62-4-17.13-7.48-25.16-11.85-7.41-4-10.31-12.32-8.56-21.19a16.93,16.93,0,0,1,13-13.57C75.9,794.34,80.65,798.12,85.23,801.74Zm-.75,3.56c-1-1.21-1.67-2.17-2.47-3-6.33-6.64-15.21-5.86-20.32,1.77-5.78,8.61-3.24,20.11,6.1,24.89,6.3,3.23,13.13,5.42,20,8.19,5.63-10,13.87-16.61,22.68-22.75,5.31-3.7,6.94-11.81,3.93-17-2.42-4.17-7.78-5.2-14.35-2.41a53.61,53.61,0,0,0-8.24,4.66C89.49,801.18,87.37,803.05,84.48,805.3Z"/><path d="M495.41,840.88c4.1-2.69,7.64-5.55,11.64-7.5a27.6,27.6,0,0,1,10.43-2.78c4.15-.2,7.89,1.62,9.46,6,2,5.65,1.74,11.17-1.93,16.1a26,26,0,0,1-4.77,4.34c-8.58,6.8-17.83,13-20.25,24.55-.76.12-1.16.32-1.39.2-6.61-3.33-13.07-7-19.81-10-11.33-5-16.18-16.65-11.15-27.64,4.38-9.57,14.56-12.49,23.28-6.65C492.43,838.52,493.84,839.69,495.41,840.88Zm-1.18,2.89c-.67-.76-1.4-1.67-2.21-2.49-6.77-6.84-16-5.68-20.85,2.6-5.34,9.06-2,20.13,7.79,24.82A158,158,0,0,0,495.2,875c1.05.36,3.21,0,3.7-.82,5.42-8.68,13.15-14.84,21.37-20.6,5.52-3.87,7.28-12.13,4.09-17.3-2.57-4.18-8.28-5.27-14.8-2C504.42,836.86,499.72,840.32,494.23,843.77Z"/><path d="M155.82,514c-2.29-1.82-3.61-3.29-5.26-4.09-5.06-2.44-10.21-4.71-15.4-6.88-11.57-4.83-16.51-16.26-11.69-27.31,4.51-10.33,15.17-13.16,24.27-6.44,1.2.89,2.35,1.82,3.82,3,1.33-1,2.57-2.07,3.93-2.92,3.37-2.11,6.64-4.5,10.25-6.07,6.84-3,13.39-1.63,16.3,2.83,3.7,5.63,2.45,15-2.82,19.66-2.6,2.32-5.59,4.19-8.24,6.45C164.3,497.87,157.5,503.53,155.82,514Zm-3.51-7.22c6.6-6.52,12.15-12.18,17.92-17.62,2.16-2,5-3.4,7.21-5.35,4.55-4,5.78-11.72,2.84-16.46-2.45-3.93-7.71-5-14-2.22a79.57,79.57,0,0,0-10.31,6c-1.79,1.13-3.38,2.59-5.18,4-1-1-1.91-1.73-2.71-2.54-7.14-7.26-16.63-5.85-21.35,3.19-4.58,8.77-1.68,18.94,7.29,23.47C140.23,502.33,146.89,504.53,152.31,506.73Z"/><path d="M924.53,388.31c-5.43-9.43-14-14.85-22.47-20.46-5.93-3.94-8.09-9.46-6.46-16.42,2.4-10.24,12.69-14,20.7-7.12,3,2.55,5,2.66,8.13.71a88.29,88.29,0,0,1,12.9-6.46c4-1.65,8.27-1.69,11.46,2,3.44,4,4.46,8.84,1.91,13.44a34.3,34.3,0,0,1-7.94,9.45c-7.54,6.28-14.39,12.88-16.75,22.89C925.88,386.94,925.26,387.38,924.53,388.31Zm-.64-8.09c4.79-5.27,9.92-11,15.17-16.62,2.15-2.3,4.72-4.21,6.88-6.5,4.76-5.05,5.29-9.32,1.95-13.78-2.91-3.89-6.83-4.32-12.94-.94-4.78,2.64-9.33,5.67-14.12,8.61-1.07-1.26-2-2.43-3-3.49-5.19-5.49-12.22-6.2-16.79-1.72a12.34,12.34,0,0,0,.32,17.82c3,2.79,6.76,4.76,10.1,7.22C915.82,374,920.08,377.32,923.89,380.22Z"/><path d="M154.56,385.3c-6.06-9.37-14.74-14.67-23.14-20.34-5.41-3.65-8-8.73-6.64-15.45,2.29-11.47,13-15.32,21.66-7.48,2.43,2.2,4,1.91,6.42.53a114.81,114.81,0,0,1,13.36-6.68c4.34-1.74,8.82-2,12.28,2.21a12.42,12.42,0,0,1,1,14.46A30.43,30.43,0,0,1,174,359C165.61,366.18,156.87,373,154.56,385.3Zm-3.71-37.63c-2.13-1.84-3.81-3.43-5.64-4.85-4.57-3.56-9.79-3.81-13.8-.79s-6.25,9.19-3.67,13.81c2,3.58,5.31,6.65,8.6,9.23,5.74,4.51,11.9,8.47,16.92,12,5.22-5.53,10.94-11.63,16.72-17.68,2-2,4.14-3.85,6-5.93,4-4.35,4.27-8.78,1.12-13.06-2.71-3.68-6.5-4.24-12-1.25C160.16,341.81,155.43,344.9,150.85,347.67Z"/><path d="M462.73,400.19c-6.2-9.92-15.78-15.17-24.43-21.56-5.82-4.3-7.11-11.49-4.16-18.46,2.14-5.05,6.69-8,12.41-7.09a19,19,0,0,1,8.31,4c2.07,1.63,3.39,1.88,5.64.6a122.56,122.56,0,0,1,13.33-6.76c6-2.53,10-1.65,13.08,2.22a11.93,11.93,0,0,1,0,15.23,49.93,49.93,0,0,1-8,8.2C471.31,382.75,465.06,389.86,462.73,400.19Zm-1-8.07c3.75-4.4,8-9.63,12.5-14.58,2.79-3,6.18-5.53,9.11-8.47,4.76-4.79,5.28-9.68,1.77-14.17-2.82-3.61-6.66-4-12.56-.71-4.77,2.65-9.33,5.69-14.16,8.67-1-1.17-1.94-2.32-2.94-3.4-5.05-5.47-12.3-6.27-16.76-1.87-5.2,5.13-5.12,13,.4,18.18a63.93,63.93,0,0,0,6.77,5C451.35,384.71,456.8,388.58,461.78,392.12Z"/><path d="M652.67,192.33c1.61-1.55,2.82-3.58,4.5-4.08a10.2,10.2,0,0,1,6.66.4c.72.32.8,4.07-.07,5.49a78.35,78.35,0,0,1-7.43,9.31c-2.51,2.92-5.2,2.62-7.59-.13a72.37,72.37,0,0,1-7.37-9.36c-.83-1.37-.72-4.85.19-5.42a8,8,0,0,1,6.21-.47C649.6,188.7,651,190.75,652.67,192.33Z"/><path d="M79.29,424.79c2.48-6.4,0-10.7-6-14.9,7.43,0,12.11-1.87,13.47-9,2,6.51,6.26,9.21,12.74,9.4-5.15,3.82-7.08,8.31-4.68,14.6C89.56,421.42,84.7,420.67,79.29,424.79Z"/><path d="M214.33,664.25c-5.5,3.86-6.58,8.62-4.63,14.71-5.22-3.61-10.07-4.25-16.06,1.25,1.91-7.16,2.13-12.47-4.5-15.74,6.32-.64,10.9-2.57,12.54-9.31C204.06,660.88,207.58,664.5,214.33,664.25Z"/><path d="M838.17,375.19c1.88-6.17.46-10.8-4.95-14.5,6.23-.46,11-2.42,12.33-9.47,2.21,6.36,6.07,9.51,12.82,9.22-5.16,3.92-7.2,8.52-4.73,14.94C848.39,371.52,843.52,371.22,838.17,375.19Z"/><path d="M723,846.9c6.9.41,10.25-3.23,12.33-10.32,2.29,6.95,5.49,10.8,12.53,10.12-5.24,4-6.84,8.75-4.74,14.95-5.19-3.81-10-4.06-15.31,0C729.43,855.61,728.59,850.76,723,846.9Z"/><path d="M917.57,488.06c2.34,5.6,5.45,9.32,12.32,8.55-4.17,4.32-7.24,8.62-4.33,15-5.19-3.16-10-4.61-15.31,0,1.32-6.08.54-11.06-5.23-14.69C911.55,497,915.55,494.29,917.57,488.06Z"/><path d="M521.31,401.62c6.61.05,10.67-2.58,12.21-10.49,2.69,6.83,5.59,11.39,12.93,10.17-4.63,4.25-7.57,8.57-4.25,14.84-9-2.63-9-2.63-16.33.12C528,410.24,526.76,405.42,521.31,401.62Z"/><path d="M124.18,543c2,6.12,5.84,9.12,12.54,8.94-5.05,3.93-7.18,8.33-4.73,14.64-5.37-3.8-10.34-3.74-15.62.18,2.11-6.16.85-10.86-4.64-14.7C118.21,552,122.2,549.2,124.18,543Z"/><path d="M775.26,387c2.33-6.4,0-10.73-4.92-14.57,6.47,0,10.52-2.72,12.36-9.12,2.3,5.86,5.77,9.59,12.78,8.95-5,4-7.27,8.33-4.78,14.72C785.48,384,780.63,382.6,775.26,387Z"/><path d="M798.49,175.77c9.39-1.84,9.39-1.84,14.06-9.53,1.91,6,5.39,9.62,12.23,9.22-4.92,3.88-7,8.34-4.8,14.62-5.28-3.55-10.14-3.79-15.37.25C806.27,184.26,805.87,179.18,798.49,175.77Z"/><path d="M785.24,541.34c2,6.41,6,9.13,12.49,9-4.83,4-7.52,8.22-4.53,14.66-5.57-3.34-10.54-4.3-15.82.36,2.29-6.55.66-11.11-4.76-14.81C779,550.21,783.41,547.85,785.24,541.34Z"/><path d="M210.32,526.18c-5.49,3.86-6.66,8.58-4.53,14.77-5.32-3.92-10.32-4.06-15.65,0,2.05-6.11.82-10.82-4.69-14.57,6.15-.69,11-2.53,12.31-9.55C200,522.93,203.4,526.5,210.32,526.18Z"/><path d="M574.23,138.18c2.21-6.59-.21-10.92-6.19-15.13,7.55.16,11.83-2.22,13.5-8.78,2.38,5.76,5.73,9.68,12.8,9-4.91,4-7.48,8.25-4.71,14.67C584.41,135.51,579.53,132.79,574.23,138.18Z"/><path d="M915.9,633.5c1.75-6.18.67-11-4.93-14.7,6.52-.17,10.91-2.62,12.34-9.42,2.53,5.8,5.52,10.13,12.88,9.1-5,4.12-7.11,8.52-4.86,14.86C926.06,629.69,921.1,629.39,915.9,633.5Z"/><path d="M902.24,756.34c2.27-6.38.57-10.93-4.91-14.7,6.89.35,10.53-2.84,12.53-10.24,2.48,6.89,5.56,10.93,12.59,10-4.65,4.11-7.25,8.54-4.53,15C912.55,752.77,907.57,752.25,902.24,756.34Z"/><path d="M535,644.67c6.75.26,10.33-3,12.23-10.35,2.48,6.78,5.41,11,12.65,10-4.84,4-6.91,8.6-5,14.92-5.29-4-10.14-3.36-15.29.16C541.73,653.19,540.45,648.51,535,644.67Z"/><path d="M871.7,494.05c-4.83,6.51-4.83,6.51-5.13,15.18-4.86-3.72-9.72-4-14.92-.05,1.85-6.1.69-10.83-4.8-14.55,6.37-.34,10.71-2.83,12.42-9.39C861.29,491.5,865.19,494.55,871.7,494.05Z"/><path d="M725.5,357.71c6.64-.23,10.92-2.55,12.47-9.19,2.35,6.09,5.81,9.54,12.64,8.89-4.48,4.14-7.57,8.26-4.55,14.74-5.41-3.2-10.4-4.11-15.66.35C732.3,366.32,731.39,361.38,725.5,357.71Z"/><path d="M457.87,209.74c1.92-6.19.47-10.66-6.13-14.65,7.52-.35,12.4-2.16,13-9.56,5.41,7.62,5.41,7.62,13.32,10-5.22,3.6-7,8.25-4.93,14.4C467.9,206.07,463,206.19,457.87,209.74Z"/><path d="M171.25,855.2c-8.8-2.9-8.8-2.9-16.37.28,2.51-6.18,1.17-11-5-14.62,3.6-.79,6.54-.69,8.45-2.05s3-4.23,4.88-7.17c2.4,5.2,5.23,9.89,12.52,8.72C170.37,844.4,168.62,849.1,171.25,855.2Z"/><path d="M254.17,331.09c6.82.68,10.66-2,12.34-9.57,2.76,6.55,5.65,11.1,12.94,9.86-4.89,4.22-7.44,8.64-4.67,15.11-5.37-3.94-10.33-3.94-15.32.22C259.47,337.84,259.47,337.84,254.17,331.09Z"/><path d="M731.72,165.21c-6.25-4.09-11.12-6-16.39-.75,1.78-6.42.68-11.17-4.92-14.8,6.24-.52,11-2.51,12.38-9.5,2.14,6.34,6,9.36,12.62,9.2C730.44,153.23,728.35,157.81,731.72,165.21Z"/><path d="M424.94,665.68c-5.27,3.87-6.68,8.52-4.92,12.82H405.34c1.14-4.31.26-9.28-5.37-12.87,6.93.35,10.55-3.12,12.71-9.17C414.52,662.71,418.24,665.82,424.94,665.68Z"/><path d="M299.76,642.29c2.2,5.93,5.68,9.35,12.51,8.93-5.27,4-7,8.58-4.61,14.79-5.24-3.46-10.09-4.22-15.36,0,1.42-6,.61-11-5-14.59C293.74,651.13,297.93,648.65,299.76,642.29Z"/><path d="M902.64,437.78c-5.31-3.86-10.15-3.91-15.43.09,1.77-6.11.71-11-4.93-14.71,6.52-.09,10.61-2.71,12.3-10.41,2.68,6.62,5.37,11.42,12.88,10C902.28,427,900.2,431.45,902.64,437.78Z"/><path d="M74.57,175.62c6.3-.3,10.44-2.58,12.16-9.06,2.62,5.41,5.76,9.62,12.83,8.77-5.42,4-7,8.72-4.79,15-5.27-3.73-10.12-4.24-15.44,0C81,184.24,80.05,179.34,74.57,175.62Z"/><path d="M198,475.06c1.9,6.17,5.73,8.92,12.18,8.94-4.54,4.14-7.38,8.37-4.08,14.78-5.55-3.73-10.53-4.13-15.44.25-.42-9.38-.42-9.38-5.3-15.34C191.83,484,196.09,481.38,198,475.06Z"/><path d="M181.54,402.94c2,6.47,6.06,9.14,12.47,9.31-5.22,3.84-6.71,8.48-4.61,14.63-5.16-3.44-10-4.31-16,1.27,1.86-7.14,1.67-12.18-4.26-15.66C175.22,411.64,180.17,409.93,181.54,402.94Z"/><path d="M63.84,461.94c5,7.13,5,7.13,13.08,9.49-5.43,3.57-7.07,8.27-5,14.47-5.2-3.76-10-4.17-15.39,0,1.78-6.05.67-10.91-4.69-14.82C58.68,471.38,62.2,467.94,63.84,461.94Z"/><path d="M383,360.51c6.72.14,10.55-3,12.5-9.21,2,6.11,5.51,9.52,12.42,9.05-4.6,4-7.27,8.34-4.6,14.77-5.29-3.07-10.28-4.58-15.5.45C389.72,369.16,388.41,364.36,383,360.51Z"/><path d="M641.24,663.84c-1.51,5-2.92,9.66-4.34,14.36-3.6-3.06-8.46-3.3-13.77.64,1.62-6,.71-10.8-5-14.4,6.3-.52,10.85-2.75,12.4-9.45C632.83,660.68,636,664.56,641.24,663.84Z"/><path d="M367.29,206.85a57.13,57.13,0,0,1,8.32,1.67c3.89,1.27,4.34,3.85,1.61,6.75-5,5.27-14.89,5.54-19.66.25-1.27-1.42-2.37-4-2-5.6.28-1.22,3-2.15,4.82-2.66S364,207,367.29,206.85Z"/><path d="M603,206.45a98.86,98.86,0,0,1,10.58,2.4c3.45,1.16,3.5,3.58,1.23,6.18-4.88,5.57-15.13,5.85-20,.34-1.2-1.34-2.45-3.74-2-5.12s2.89-2.36,4.65-2.92,3.61-.32,5.44-.44Z"/><path d="M472.12,765.55c1.53,5.64,3.34,11.23,4.45,17,.51,2.61.22,6.11-3.61,6.48-3.68.36-6-2.13-6.65-5.46-1.32-6.48.4-12.4,4.09-17.76Z"/><path d="M538,760.19c1.1-5.13,2-10.32,3.45-15.33.45-1.52,2.66-2.52,4.07-3.75.69,1.71,2.1,3.5,1.94,5.13-.59,5.88-2.53,11.23-7.91,14.51Z"/><path class="cls-1" d="M394.81,767.82c-12.27,12.2-17.07,11.59-22.25-2.65-2.3,4-4.38,7.84-6.7,11.55-2.72,4.35-6.63,6.54-11.86,5.35s-6.84-5.58-6.61-9.94c.44-8.6,1.78-17.15,2.74-25.72.24-2.07.46-4.15.68-6.23l-1.56-.84c-1.48,2-3.59,3.89-4.33,6.18-3.15,9.79-5.88,19.73-8.81,29.59-.76,2.54-.46,6.72-4.41,5.85-2.28-.51-5.45-3.5-5.68-5.65-.85-7.88-.66-15.88-.79-23.84-.09-5,.17-10-.19-14.93-.21-2.82.81-3.57,3.28-3.56a9.45,9.45,0,0,1,9.59,9c.17,1.88,0,3.79,0,6.55,2.55-4.2,4.4-7.69,6.68-10.87,2.42-3.38,5.86-5.09,10-3.58s4.74,5.24,4.44,9.08c-.39,4.81-1,9.6-1.41,14.41a97.62,97.62,0,0,0-.39,12c.09,1.78,1.35,3.51,2.08,5.26,1.49-1.14,3.63-2,4.34-3.49,3.3-7,6.23-14.26,9.23-21.45,1.08-2.6,1.67-5.46,3.06-7.87,1.29-2.25,3-5,5.15-5.9a35.5,35.5,0,0,1,24.31-1.21c4.2,1.2,5,5.4,4.58,9.56-.67,7.45-1.54,14.9-1.76,22.37-.08,2.66,1.5,5.36,2.32,8,2-2.06,4.61-3.8,5.8-6.25,3.18-6.57,5.74-13.44,8.55-20.2.67-1.6,1.34-3.21,2-4.81l1.51.17c.17,1.77,1,3.81.4,5.27-3.83,9.34-8,18.57-12.05,27.8a10.27,10.27,0,0,1-1.81,2.38c-3.66,4.22-7.9,7.71-13.83,5.65s-6.47-7.42-6.36-12.81C394.83,770.76,394.81,769.51,394.81,767.82Zm-11,4c1.14-.19,1.83-.1,2.07-.38,7-8.16,10-17.92,10.49-28.39.08-1.53-2.65-3.72-4.55-4.57-.68-.3-3.63,2.25-4,3.86-1.9,8.05-3.38,16.2-4.78,24.36C382.76,768.34,383.52,770.11,383.81,771.87Z"/><path class="cls-1" d="M593.09,310.28c0,22.06,0,43-4.05,63.71-2.73,13.93-10.94,12-18,5.74-11.16-9.9-13.11-22.88-8.93-36.59C566.83,327.67,578.44,318.24,593.09,310.28Z"/><path class="cls-1" d="M710.4,286.84a162.93,162.93,0,0,1,9-44.81c.27-.79.55-1.57.88-2.33,2.91-6.75,5.33-8.72,9.36-7.67,4.84,1.27,9.49,8.28,9.07,13.46-1.36,16.75-7.85,31.8-15.43,46.47a22.35,22.35,0,0,1-4.92,6.2c-3.32,3-6,2-7.28-2.39a11.25,11.25,0,0,1-.37-2.46C710.57,290.83,710.47,288.34,710.4,286.84Z"/><path class="cls-1" d="M650.1,283.79c6,11.54,10.52,22.21,11.76,34a26.65,26.65,0,0,1-.15,7c-1.51,9.38-8.55,12.2-15.82,6a18.11,18.11,0,0,1-5.68-9.05C637.12,307.94,642,296,650.1,283.79Z"/><path class="cls-1" d="M495.47,265.54l20,7.58c0,8.17-.46,17.08-4.84,25.19-3.86,7.15-9.56,7.27-13.21,0a31.58,31.58,0,0,1-3.28-12.84C493.93,278.93,495,272.33,495.47,265.54Z"/><path class="cls-1" d="M566.07,223.89,568,183.17l1.9-.62c1.26,1.86,3.13,3.56,3.7,5.62,3.59,13-1.63,24.42-6.13,35.92Z"/><path class="cls-1" d="M516.16,262.5c-7-.42-11.31-3.16-14.65-7-.73-.84.68-4.37,2-5.92,2.13-2.52,5.37-2.75,7.15.26C512.83,253.49,514.13,257.7,516.16,262.5Z"/><path class="cls-1" d="M593.27,284.4c0,4.45.12,8.9-.09,13.34a4.74,4.74,0,0,1-1.77,3.22c-3.72,2.64-7.62,5-12.42,8.12,4.88-8.94,9.17-16.79,13.47-24.64Z"/><path class="cls-1" d="M652.64,231.08c-4.88-3.34-4.92-6.53,0-11.35Z"/><path class="cls-1" d="M756.29,239.45l-7.19-8.51C754.69,229.39,757.56,232.66,756.29,239.45Z"/><path class="cls-1" d="M573.78,176c-2.75-2.31-5.28-4.46-8.23-7C572,168.85,573.91,170.56,573.78,176Z"/><path class="cls-1" d="M512.53,242.39,507,235c4.39.54,7,2.46,6.89,6.67Z"/><path class="cls-1" d="M355.93,310.27c-.59,22.19.27,43.36-4.45,64.13-2.51,11.07-9,12.9-17.87,5.48-9.8-8.23-13.49-24.34-8.43-38.17C330.53,327.12,341.56,317.9,355.93,310.27Z"/><path class="cls-1" d="M419.14,288.94c-.35-16.94,4-32.09,14.63-45.26a28.74,28.74,0,0,1,6.88-6.38c4.81-3,8.77-1.41,9.4,4.22a78.5,78.5,0,0,1-.07,18.32c-1.7,13.58-5.06,26.81-11.7,38.93a26.94,26.94,0,0,1-6.5,8c-3.81,3-8.1,1.79-9.59-2.84C420.64,299.12,420.11,294,419.14,288.94Z"/><path class="cls-1" d="M274.38,286.47c1.27-16.64,4.22-32.43,10.34-47.52,1.57-3.88,3.25-8.06,8.8-6.92,4.2.86,9.62,7.63,9.32,11.82-1.29,18.5-8.16,35.12-17.31,51a13.12,13.12,0,0,1-2.61,3c-3.92,3.49-7.07,2.43-8-2.84A79.89,79.89,0,0,1,274.38,286.47Z"/><path class="cls-1" d="M342.53,307.91l12.74-24C358.29,297.05,355.53,302.22,342.53,307.91Z"/><path class="cls-1" d="M312.72,230.56c6.52-.53,8.68,2.08,7.67,8.9Z"/><path class="cls-1" d="M412.8,155.29c2,1.32,4.16,2.41,5.82,4.05.77.77.51,2.6.72,3.94-1.26-.32-2.94-.26-3.7-1.06a38.64,38.64,0,0,1-3.91-5.63Z"/><path class="cls-1" d="M314,419.61c3,2.11,6.06,4.08,8.84,6.42.63.53.21,2.32.27,3.53-1.13-.3-2.62-.25-3.34-1-2.42-2.39-4.58-5-6.83-7.61Z"/><path class="cls-1" d="M243.93,442.53a34.68,34.68,0,0,1,4.2,5c.41.71-.53,2.22-.85,3.36-1-.5-2.62-.73-3-1.55a33.42,33.42,0,0,1-1.77-5.94Z"/><path class="cls-1" d="M593.19,431.17l-9.66-10.43C591.33,421.86,594.62,425,593.19,431.17Z"/><path class="cls-1" d="M514.32,442.34a40.18,40.18,0,0,1,4.55,5.34c.39.62-.7,2.17-1.11,3.29-.94-.47-2.39-.71-2.72-1.45a47.52,47.52,0,0,1-1.95-6.41Z"/><path class="cls-1" d="M658,544.56c3-30.81,6.74-60.18,18-88,4.48-11.05,10.26-21.33,19.87-28.91,1.39-1.09,2.94-2,4.52-3,4.28,11.81,1.39,80.52-4.84,117.68Z"/><path class="cls-1" d="M722.35,423.69c1.86,3,3.89,5.89,5.49,9,.38.75-.65,2.23-1,3.38-1-.5-2.43-.75-2.8-1.53-1.5-3.17-2.67-6.51-4-9.78Z"/><path class="cls-1" d="M387.26,544.58c3.36-32.85,6.83-64.53,20.82-93.69,3.87-8.06,10.34-14.91,15.86-22.12,1.33-1.74,3.65-2.71,6.76-4.92,3.74,40.41-2.91,79-5.3,118.47Z"/><path class="cls-1" d="M450.42,424.18c5.21,3,7.21,6.84,6.16,11.67C452.27,435,449.79,430.3,450.42,424.18Z"/><path class="cls-1" d="M227.33,140.2c6,1.14,7.85,2.93,7.54,7.46l-1.41,1.44Z"/><path class="cls-1" d="M127.77,630.37l5.45-4.65c.46,2,.77,3.33,1.22,5.24,1.75-1.26,3.31-2.38,5.13-3.67l2.73,2.52,5.06-3.91c-.93,3.9-1.66,7-2.39,10.05,6.3,1.92,9.74-.34,13.14-5.25,1.63-2.36,6.53-2.45,11-3.91-.56,2.17-.51,3-.88,3.28-6.25,4.71-12.51,9.41-18.87,14a3.32,3.32,0,0,1-3,.2C140.27,639.89,134.37,635.36,127.77,630.37Z"/><path class="cls-1" d="M152.51,602.17c-2.64-4.35-4.62-1.79-6.63.76-3.26,4.15-6.56,8.29-10.13,12.79.12-9.27,9.65-19.36,20.32-22.07,7.19-1.82,13.57-.55,18.55,5.24.82,1,1.58,3.11,1.09,3.78-1.1,1.48-3.81,3.7-4.44,3.31-4.49-2.77-5.28,1.46-7.21,3.4-1.07,1.07-1.92,2.35-3.7,3q3.55-7.23,7.13-14.45l-1.36-.84-4.75,3-2.15-4.11Z"/><path class="cls-1" d="M124,617.16l5-14.29-.77-.47L122,607.19c.39-2.53.69-4.42,1-6.31l-.84-.5L111.6,613.79c-1.92-5.12.87-11.43,6.26-14.49,5.12-2.9,10.6-.86,16.44,6.42L125,618.08Z"/><path class="cls-1" d="M120.67,627.64,128.78,617l.68.36c-.59,3.76-1.18,7.53-1.87,11.9Z"/><path class="cls-1" d="M117.74,625.34l-4-2.42c2.75-3.53,5.23-6.74,7.72-9.94l1.22.64Z"/><path class="cls-1" d="M300.33,863.66l4-2.93c.43,1.81.78,3.25,1.21,5.06l5.56-3.94,1.71,3.1,5.68-4.07-2.41,10c6.18,1.71,10,0,13-5.35,2.31-4.17,6.85-2.37,11.19-1.23-3.06,2.31-6.09,4.67-9.2,6.91-4,2.91-8.1,7.94-12.15,7.94s-8.09-5.07-12.1-7.95a34.18,34.18,0,0,1-5.06-4c-.8-.86-.86-2.41-1.26-3.64Z"/><path class="cls-1" d="M347.87,837c-2.66,1.3-3.49,6-7.8,2.92-.36-.27-2.21,1.09-3,2-1.71,1.85-3.19,3.91-5.57,5.31l7.23-14.57-1.38-.86-4.8,3.11c-.66-1.18-1.33-2.36-2.24-4l-6.6,6-3.46-2.79L306.7,850.6c.84-9.87,10.1-19.57,20.64-22.21C335.84,826.26,342.78,829,347.87,837Z"/><path class="cls-1" d="M305.47,840.53l-9.36,12.29-1-.43,5-14.7-.8-.45-6,4.72c.3-2.5.51-4.29.72-6.08l-.77-.54-10.53,13.2c-1.83-5.42,1-11.57,6.45-14.51C294.06,831.38,299.28,833.34,305.47,840.53Z"/><path class="cls-1" d="M300.44,863.55h-7.51l-.77-1.6,8.14-10.72c0,4.73,0,8.59,0,12.45Z"/><path class="cls-1" d="M293.69,848.59l-4.84,11.59-4-2.31,7.58-10Z"/><path class="cls-1" d="M847.31,858.68l5.33-4.63c.48,1.9.84,3.31,1.31,5.13l5.34-3.73c2.63,4.46,4.84,1,7.76-1.74-.91,4.3-1.57,7.41-2.19,10.32,6.62,2.49,9.55-.9,13-5.34,1.79-2.3,6.52-2.29,9.93-3.33.27.57.53,1.13.8,1.69a19.41,19.41,0,0,1-2.43,2.6c-5.2,3.9-10.57,7.57-15.64,11.62-2.45,2-4.14,1.74-6.46-.1-5.45-4.31-11.1-8.38-16.66-12.55Z"/><path class="cls-1" d="M879,824l-6.58,6c-3.41-3.74-5.52-.9-7.7,2-2.9,3.82-5.88,7.58-9.06,11.68-.54-8.19,9.21-19,19.13-21.71,9.46-2.63,17,.23,21.37,8.35-2.4,1.39-3.35,6.23-7.81,2.78-.26-.21-2.12,1.29-3,2.24-1.61,1.82-3,3.82-5.32,5.23q3.51-7.23,7-14.45l-1.34-.85L881,828.14C880.46,827,879.91,825.88,879,824Z"/><path class="cls-1" d="M843.74,845.24q2.46-6.91,4.94-13.84l-.86-.78-5.93,4.66c.34-2.63.58-4.5.82-6.37l-.8-.45L831.21,842c-1.87-5.2,1.15-11.69,6.47-14.62,5-2.78,11-.46,16.23,6.51-2.31,3.1-4.66,6.3-7.06,9.46-.68.9-1.48,1.7-2.23,2.54Z"/><path class="cls-1" d="M847.41,858.62l-6.66-3.44,8.43-11c-.72,5.67-1.27,10.08-1.85,14.5Z"/><path class="cls-1" d="M837.55,853.35c-4.56-2.57-3.87-4.3,4.76-11.52Z"/><path class="cls-1" d="M118.94,287.08c-7.5,5.51-14.15,10.45-20.88,15.26a2.85,2.85,0,0,1-2.65,0c-6-4.39-11.93-8.91-18.43-13.82l5.17-4.83L83.49,289l5.67-4.09,1.31,3.61,5.84-4.49L94.08,294c6.13,1.88,10.1.28,12.81-5.3C108.27,285.85,112.45,285.49,118.94,287.08Z"/><path class="cls-1" d="M85.16,273.34c1.77-11.89,12.38-21.46,23.6-22.33,5.78-.45,10.94,1.13,14.74,5.75.84,1,1.84,3.1,1.39,3.76-1,1.54-3.7,3.88-4.36,3.51-5-2.83-5.76,2-8,4.08a8.07,8.07,0,0,1-3.14,2.28q3.6-7.23,7.19-14.47l-1.4-.9-4.76,3.08-2.16-4.05c-2.24,2-4.29,3.85-6.65,6-2.63-3.84-4.66-1.73-6.69.9C91.72,265.08,88.43,269.2,85.16,273.34Z"/><path class="cls-1" d="M83.42,263.76,74,276.07l-1-.52L78,261l-.76-.5-6.21,4.74,1-6.27-.91-.53L60.56,271.92a13.14,13.14,0,0,1,6.71-14.79C72.17,254.55,77.46,256.61,83.42,263.76Z"/><path class="cls-1" d="M76.57,287.48l-6.85-1.9c3-3.94,5.64-7.34,8.26-10.73l.62.47C78,279.14,77.32,283,76.57,287.48Z"/><path class="cls-1" d="M71.68,271.66l-4.79,11.59-4.19-2.13,7.67-10Z"/><path class="cls-1" d="M274.15,401.59c-6.66,4.91-13.27,9.87-20,14.62-.73.52-2.59.23-3.43-.37-5.15-3.68-10.1-7.63-15.22-11.33-2.73-2-5.68-3.62-9.08-5.77,2.22-2.94,4.75-6.3,7.29-9.65l.77.27-1.74,12.1,5.44-3.26c.45,1.54.87,2.95,1.38,4.69l5-3.46,2.81,2.38,4.9-3.68c-.82,3.83-1.5,7-2.1,9.82,6.74,2.49,9.67-1,13.17-5.42,1.81-2.27,6.53-2.23,9.94-3.23Z"/><path class="cls-1" d="M265.48,384.17q3.56-7.12,7.1-14.26l-1.3-.9-5,3.17L264.38,368l-6.66,5.86L254,371.42l-13.43,16.43c1.2-14,18.27-26,31-22.09,2.87.89,5.49,3,7.86,4.95,1,.82,1.73,3.78,1.36,4.05a27,27,0,0,1-5.91,2.72c-1.21.48-2.8.5-3.64,1.32a67.13,67.13,0,0,0-4.91,6.05Z"/><path class="cls-1" d="M216.34,386.24c-1.27-7,2.07-13.16,7.85-15.53,4.09-1.68,11.12.91,13.89,5.37a3.81,3.81,0,0,1-.15,3.38c-1.8,2.78-3.91,5.36-5.94,8a5.75,5.75,0,0,1-3,2.25L234,375l-.84-.45-5.95,4.7c.34-2.56.57-4.36.81-6.17l-.87-.61Z"/><path class="cls-1" d="M222.75,397.39l-4.09-2.33c2.77-3.58,5.3-6.84,7.83-10.09l1.18.66C226.08,389.44,224.49,393.25,222.75,397.39Z"/><path class="cls-1" d="M853.85,292.1l5.2-3.74.23,1.35,7.36-1.24c-.5,2.33-1.16,5.44-1.82,8.52,6.29,1.77,9.67-.62,13-5.43,1.62-2.32,6.51-2.34,9.92-3.4l.81,1.68a20,20,0,0,1-2.38,2.56c-5.32,4-10.77,7.81-16,11.89-2,1.58-3.48,1.81-5.59.06-5.34-4.46-10.79-8.81-16.41-12.92-1.92-1.41-4.47-2-7.61-3.28,2.7-3.52,5.27-6.89,8.64-11.3-.65,5.13-1.13,8.85-1.76,13.77l5.35-3.66C853.18,288.74,853.45,290.09,853.85,292.1Z"/><path class="cls-1" d="M896.19,263.18c-2.38,1.12-3.09,6-7.45,2.78-.37-.28-2.23,1-3,1.89-1.75,1.89-3.27,4-5.66,5.54q3.56-7.23,7.09-14.46l-1.33-.91-4.7,2.9c-.65-1.12-1.33-2.31-2.25-3.93l-6.49,6-3.56-2.77-13.35,16.28c.24-9.39,10.09-19.52,20.95-22C885.1,252.43,892.22,255.48,896.19,263.18Z"/><path class="cls-1" d="M841.72,261.3l-10.24,13.35c-1.81-4.41-.37-8,2.29-11.13s5.91-5.53,10.44-4.23a17,17,0,0,1,4.09,1.82c6.23,3.83,6.38,4.76,2,10.5a26.05,26.05,0,0,1-6.52,6.58L848.66,264l-.89-.57-5.9,4.76.86-6.64Z"/><path class="cls-1" d="M842.3,274.59c-1.53,3.71-3.07,7.43-4.75,11.52l-4.26-2,7.81-10.18Z"/><path class="cls-1" d="M628.19,398.32l8.6-11.19c-.64,5-1.12,8.67-1.77,13.67l5.49-3.67c.32,1.79.55,3.14.92,5.22l5.8-4.18,1.67,3.06,5.61-3.78c-.85,3.57-1.59,6.68-2.31,9.69,6.43,2.1,9.89-.28,13-5.34,2.32-3.81,6.84-2.45,10.54-2.34l.65,1.31c-6.75,5-13.45,10-20.31,14.79-.68.48-2.57,0-3.45-.7-5.59-4.19-11-8.67-16.59-12.78C634,400.58,631.37,399.81,628.19,398.32Z"/><path class="cls-1" d="M673.2,368.24l-4.68,3.13c-.58-1.17-1.12-2.28-2-4.07l-6.59,5.77c-3.27-4-5.25-.94-7.35,1.73-3.05,3.87-6.12,7.73-9.47,12-.1-8.53,9-18.65,18.89-21.62,9.25-2.78,16.58-.2,21.74,7.9-2.21,1.73-3,6.1-7.6,3.23-.44-.28-2.23,1.11-3.07,2-1.65,1.79-3.06,3.79-5.4,5.26l7-14.48Z"/><path class="cls-1" d="M631.13,388.69l5-14.28-.78-.7-6.11,4.73c.43-2.73.72-4.59,1-6.44l-.9-.51L618.8,385.07a12.86,12.86,0,0,1,7.42-15.14c4.25-1.75,11.94,1.19,14.26,5.64a3.48,3.48,0,0,1-.28,3c-2.56,3.63-5.33,7.12-8,10.65Z"/><path class="cls-1" d="M629.9,384.66,625,396.56l-4-2.39L628.84,384Z"/><path class="cls-1" d="M805.18,459.94c2.42-3.66,4.25-6.62,6.28-9.43,4-5.56,9.72-7,14.74-4,4.63,2.83,5.81,7.9,2.91,14.05a79.67,79.67,0,0,1-5.68,10c-4.21,6.36-8.64,12.57-13.8,20-10.69-7.36-21.41-14-31.2-21.79-5.64-4.49-5.82-8.92-3.39-13.25,2.75-4.89,10-8.71,15.34-6.93,4,1.34,7.6,4.31,11.2,6.8C802.85,456.3,803.61,457.92,805.18,459.94Z"/><path class="cls-1" d="M856.64,589c-9.55-5.9-18.6-11.45-27.6-17.08a17.78,17.78,0,0,1-2.95-2.68c-6.22-6.36-7.28-11.29-3.49-16.17,4.6-5.91,13.35-7.9,19.7-3.81,3.53,2.28,6.31,5.7,9.79,8.93l3.41-4.87a57.49,57.49,0,0,1,4-5.67c3.63-4,8.8-4.83,13.1-2.31s6,7.46,3.71,12.63A100.12,100.12,0,0,1,869,571C865.22,576.79,861.15,582.44,856.64,589Z"/><path class="cls-1" d="M138.35,733.33c2-3.08,3.84-6.05,5.88-8.83,4.08-5.58,9.72-7.08,14.76-4.11,4.73,2.79,6.29,8.44,2.75,14.52-5.37,9.18-11.47,17.94-17.44,26.75-.5.73-2.76,1.1-3.61.61-8.48-4.94-16.86-10.06-25.22-15.22a17.8,17.8,0,0,1-3.35-3c-6.07-6.39-7-11.39-3.12-16.26,4.62-5.76,13.61-7.57,19.82-3.4C132.18,726.67,134.83,730,138.35,733.33Z"/><path class="cls-1" d="M303.6,159.36c1.4-2.09,3.25-5,5.26-7.78,4-5.64,9.61-7.29,14.63-4.46s6.58,8.37,2.89,14.77c-5.54,9.62-11.79,18.82-18.12,28.79-3.6-2-6.82-3.56-9.78-5.51-7.47-4.9-15.29-9.42-22.08-15.15-5.87-5-6.3-9.61-3.58-14,3.29-5.36,11.14-8.82,16.91-6.21C294.5,151.93,298.52,155.75,303.6,159.36Z"/><path class="cls-1" d="M370.89,422.5c2.07-3.09,4.1-6.5,6.52-9.61,4.3-5.54,11.21-6.35,15.72-2.09,3.51,3.32,4.36,7.8,1.15,13.28-5.7,9.72-12,19.09-18.75,29.68-10.7-7.11-21.22-13.17-30.62-20.64-7.16-5.69-7.46-11-3.49-15.94,4.74-5.89,13.41-7.76,19.79-3.6C364.73,415.87,367.5,419.31,370.89,422.5Z"/><path class="cls-1" d="M662.82,166.16c-.2,1.43-.38,2.7-.8,5.65,4.66-2.46,8.3-4.39,11.94-6.33l1.12,1.79a122.37,122.37,0,0,1-10.71,7.54c-.93.54-3.34-.73-4.61-1.75a84,84,0,0,1-6.42-6.25c2.65-.14,5.29-.26,7.94-.41C661.73,166.37,662.18,166.26,662.82,166.16Z"/><path class="cls-1" d="M657,158.71c2.55-9.4,12.36-14.62,18.89-10.63,1.31.79,2.14,2.36,3.19,3.57-1.28.75-2.56,1.5-3.83,2.27s-2.37,1.47-4.21,2.62c1.17-2.49,2-4.35,3-6.29C665.79,150.22,664.86,150.67,657,158.71Z"/><path class="cls-1" d="M650.89,159c.62-2,1.23-4,1.75-5.71l-3.51-.33-.12-1.28q-2.61,3.09-5.21,6.19l-1.5-1.13c1.69-2.2,3-5.65,5.14-6.27,2.5-.71,5.71,1,9.7,2-2.54,3.37-4,5.29-5.41,7.2Z"/><path class="cls-1" d="M849.22,759.76c-6.22-2.42-12.37-4.49-18.24-7.17-9.69-4.42-13.11-15.07-8.34-24.3,4.34-8.39,15.71-10.7,21.43-2.95a19.43,19.43,0,0,0,2.32,2.25c4.59-3,9-6,13.42-8.85a11.85,11.85,0,0,1,2.27-1c6.71-2.63,11.89-1.7,14.26,2.56,2.81,5,1.1,12.83-3.67,16.71-5,4.08-10.28,7.89-15,12.29C854.57,752.2,852.25,756,849.22,759.76Z"/><path class="cls-1" d="M797.7,630c5.78-3.67,10.34-7.06,15.34-9.6,6.78-3.44,12.67-2.33,15.2,2.1,3,5.3,1.08,13.49-4.5,17.31-8.59,5.89-16.47,12.44-22.26,22.55-7.4-3.25-15.2-5.77-22-9.91-7.65-4.65-9.08-14.78-4.5-22.62,4.83-8.28,14.12-9.39,20.84-2.45A19.66,19.66,0,0,1,797.7,630Z"/><path class="cls-1" d="M627.91,844.24c4.28-3,7.88-5.64,11.59-8.12a23.24,23.24,0,0,1,4.47-2.21c6.6-2.62,12-1.6,14.29,2.62,2.76,5.07,1,12.89-3.73,16.74-5.16,4.19-10.51,8.17-15.38,12.68-2.88,2.67-5,6.19-8.11,10.16-6.85-2.94-14.49-5.39-21.26-9.34-7.67-4.47-9.44-14.74-5-22.53,4.9-8.68,14.19-9.94,21.09-2.82A25.65,25.65,0,0,1,627.91,844.24Z"/><path class="cls-1" d="M488.27,139.57c5.88-3.59,10.75-7.14,16.09-9.69,6.4-3,11.88-1.75,14.26,2.42,2.84,5,1.21,12.84-3.6,16.7-3.5,2.81-7.42,5.12-10.66,8.18a80.17,80.17,0,0,0-10.18,11.52c-1.85,2.58-3.25,3.06-6.06,1.83-4.7-2.07-9.66-3.56-14.36-5.64-10-4.47-13.8-15.14-8.85-24.49,4.71-8.88,14.39-10.28,21.4-3.08C487.11,138.14,487.81,139,488.27,139.57Z"/><path class="cls-1" d="M84.48,805.3c2.89-2.25,5-4.12,7.35-5.66a53.61,53.61,0,0,1,8.24-4.66c6.57-2.79,11.93-1.76,14.35,2.41,3,5.2,1.38,13.31-3.93,17-8.81,6.14-17,12.78-22.68,22.75-6.89-2.77-13.72-5-20-8.19-9.34-4.78-11.88-16.28-6.1-24.89,5.11-7.63,14-8.41,20.32-1.77C82.81,803.13,83.49,804.09,84.48,805.3Z"/><path class="cls-1" d="M494.23,843.77c5.49-3.45,10.19-6.91,15.33-9.49,6.52-3.27,12.23-2.18,14.8,2,3.19,5.17,1.43,13.43-4.09,17.3-8.22,5.76-15.95,11.92-21.37,20.6-.49.78-2.65,1.18-3.7.82A158,158,0,0,1,479,868.7c-9.82-4.69-13.13-15.76-7.79-24.82,4.88-8.28,14.08-9.44,20.85-2.6C492.83,842.1,493.56,843,494.23,843.77Z"/><path class="cls-1" d="M152.31,506.73c-5.42-2.2-12.08-4.4-18.27-7.52-9-4.53-11.87-14.7-7.29-23.47,4.72-9,14.21-10.45,21.35-3.19.8.81,1.67,1.56,2.71,2.54,1.8-1.41,3.39-2.87,5.18-4a79.57,79.57,0,0,1,10.31-6c6.27-2.76,11.53-1.71,14,2.22,2.94,4.74,1.71,12.49-2.84,16.46-2.25,1.95-5.05,3.31-7.21,5.35C164.46,494.55,158.91,500.21,152.31,506.73Z"/><path class="cls-1" d="M923.89,380.22c-3.81-2.9-8.07-6.21-12.41-9.4-3.34-2.46-7.09-4.43-10.1-7.22a12.34,12.34,0,0,1-.32-17.82c4.57-4.48,11.6-3.77,16.79,1.72,1,1.06,1.91,2.23,3,3.49,4.79-2.94,9.34-6,14.12-8.61,6.11-3.38,10-2.95,12.94.94,3.34,4.46,2.81,8.73-1.95,13.78-2.16,2.29-4.73,4.2-6.88,6.5C933.81,369.22,928.68,375,923.89,380.22Z"/><path class="cls-1" d="M150.85,347.67c4.58-2.77,9.31-5.86,14.27-8.54,5.52-3,9.31-2.43,12,1.25,3.15,4.28,2.84,8.71-1.12,13.06-1.9,2.08-4.09,3.89-6,5.93-5.78,6.05-11.5,12.15-16.72,17.68-5-3.51-11.18-7.47-16.92-12-3.29-2.58-6.61-5.65-8.6-9.23-2.58-4.62-.4-10.74,3.67-13.81s9.23-2.77,13.8.79C147,344.24,148.72,345.83,150.85,347.67Z"/><path class="cls-1" d="M461.78,392.12c-5-3.54-10.43-7.41-15.87-11.31a63.93,63.93,0,0,1-6.77-5c-5.52-5.2-5.6-13-.4-18.18,4.46-4.4,11.71-3.6,16.76,1.87,1,1.08,1.93,2.23,2.94,3.4,4.83-3,9.39-6,14.16-8.67,5.9-3.27,9.74-2.9,12.56.71,3.51,4.49,3,9.38-1.77,14.17-2.93,2.94-6.32,5.43-9.11,8.47C469.75,382.49,465.53,387.72,461.78,392.12Z"/><path d="M383.81,771.87c-.29-1.76-1.05-3.53-.78-5.12,1.4-8.16,2.88-16.31,4.78-24.36.38-1.61,3.33-4.16,4-3.86,1.9.85,4.63,3,4.55,4.57-.53,10.47-3.52,20.23-10.49,28.39C385.64,771.77,385,771.68,383.81,771.87Z"/></svg>